%TF.GenerationSoftware,KiCad,Pcbnew,9.0.7*%
%TF.CreationDate,2026-02-24T20:15:18+00:00*%
%TF.ProjectId,AD5M,4144354d-2e6b-4696-9361-645f70636258,rev?*%
%TF.SameCoordinates,Original*%
%TF.FileFunction,Copper,L1,Top*%
%TF.FilePolarity,Positive*%
%FSLAX46Y46*%
G04 Gerber Fmt 4.6, Leading zero omitted, Abs format (unit mm)*
G04 Created by KiCad (PCBNEW 9.0.7) date 2026-02-24 20:15:18*
%MOMM*%
%LPD*%
G01*
G04 APERTURE LIST*
G04 Aperture macros list*
%AMRoundRect*
0 Rectangle with rounded corners*
0 $1 Rounding radius*
0 $2 $3 $4 $5 $6 $7 $8 $9 X,Y pos of 4 corners*
0 Add a 4 corners polygon primitive as box body*
4,1,4,$2,$3,$4,$5,$6,$7,$8,$9,$2,$3,0*
0 Add four circle primitives for the rounded corners*
1,1,$1+$1,$2,$3*
1,1,$1+$1,$4,$5*
1,1,$1+$1,$6,$7*
1,1,$1+$1,$8,$9*
0 Add four rect primitives between the rounded corners*
20,1,$1+$1,$2,$3,$4,$5,0*
20,1,$1+$1,$4,$5,$6,$7,0*
20,1,$1+$1,$6,$7,$8,$9,0*
20,1,$1+$1,$8,$9,$2,$3,0*%
G04 Aperture macros list end*
%TA.AperFunction,Conductor*%
%ADD10C,0.200000*%
%TD*%
%TA.AperFunction,ComponentPad*%
%ADD11R,1.700000X1.700000*%
%TD*%
%TA.AperFunction,ComponentPad*%
%ADD12C,1.700000*%
%TD*%
%TA.AperFunction,ComponentPad*%
%ADD13C,1.500000*%
%TD*%
%TA.AperFunction,SMDPad,CuDef*%
%ADD14RoundRect,0.200000X0.275000X-0.200000X0.275000X0.200000X-0.275000X0.200000X-0.275000X-0.200000X0*%
%TD*%
%TA.AperFunction,ComponentPad*%
%ADD15RoundRect,0.250000X0.600000X0.750000X-0.600000X0.750000X-0.600000X-0.750000X0.600000X-0.750000X0*%
%TD*%
%TA.AperFunction,ComponentPad*%
%ADD16O,1.700000X2.000000*%
%TD*%
%TA.AperFunction,SMDPad,CuDef*%
%ADD17RoundRect,0.225000X0.375000X-0.225000X0.375000X0.225000X-0.375000X0.225000X-0.375000X-0.225000X0*%
%TD*%
%TA.AperFunction,SMDPad,CuDef*%
%ADD18RoundRect,0.250000X0.250000X0.475000X-0.250000X0.475000X-0.250000X-0.475000X0.250000X-0.475000X0*%
%TD*%
%TA.AperFunction,SMDPad,CuDef*%
%ADD19RoundRect,0.250000X0.325000X0.650000X-0.325000X0.650000X-0.325000X-0.650000X0.325000X-0.650000X0*%
%TD*%
%TA.AperFunction,SMDPad,CuDef*%
%ADD20RoundRect,0.250000X-0.475000X0.250000X-0.475000X-0.250000X0.475000X-0.250000X0.475000X0.250000X0*%
%TD*%
%TA.AperFunction,SMDPad,CuDef*%
%ADD21R,3.700000X1.100000*%
%TD*%
%TA.AperFunction,SMDPad,CuDef*%
%ADD22RoundRect,0.225000X0.225000X0.250000X-0.225000X0.250000X-0.225000X-0.250000X0.225000X-0.250000X0*%
%TD*%
%TA.AperFunction,ComponentPad*%
%ADD23O,2.000000X1.300000*%
%TD*%
%TA.AperFunction,SMDPad,CuDef*%
%ADD24RoundRect,0.150000X0.512500X0.150000X-0.512500X0.150000X-0.512500X-0.150000X0.512500X-0.150000X0*%
%TD*%
%TA.AperFunction,ViaPad*%
%ADD25C,0.650000*%
%TD*%
%TA.AperFunction,ViaPad*%
%ADD26C,0.700000*%
%TD*%
%TA.AperFunction,ViaPad*%
%ADD27C,0.450000*%
%TD*%
%TA.AperFunction,Conductor*%
%ADD28C,0.300000*%
%TD*%
%TA.AperFunction,Conductor*%
%ADD29C,0.600000*%
%TD*%
%TA.AperFunction,Conductor*%
%ADD30C,1.000000*%
%TD*%
%TA.AperFunction,Conductor*%
%ADD31C,0.400000*%
%TD*%
%TA.AperFunction,Conductor*%
%ADD32C,0.800000*%
%TD*%
G04 APERTURE END LIST*
D10*
%TO.N,5V*%
X157150000Y-87350000D02*
X161650000Y-87350000D01*
X161650000Y-88750000D01*
X155750000Y-88750000D01*
X155750000Y-85650000D01*
X157150000Y-85650000D01*
X157150000Y-87350000D01*
%TA.AperFunction,Conductor*%
G36*
X157150000Y-87350000D02*
G01*
X161650000Y-87350000D01*
X161650000Y-88750000D01*
X155750000Y-88750000D01*
X155750000Y-85650000D01*
X157150000Y-85650000D01*
X157150000Y-87350000D01*
G37*
%TD.AperFunction*%
%TO.N,24V*%
X160750000Y-81150000D02*
X161950000Y-81150000D01*
X161950000Y-82650000D01*
X160750000Y-82650000D01*
X160750000Y-81150000D01*
%TA.AperFunction,Conductor*%
G36*
X160750000Y-81150000D02*
G01*
X161950000Y-81150000D01*
X161950000Y-82650000D01*
X160750000Y-82650000D01*
X160750000Y-81150000D01*
G37*
%TD.AperFunction*%
%TO.N,GND*%
X152850000Y-83450000D02*
X153950000Y-83450000D01*
X153950000Y-87450000D01*
X152850000Y-87450000D01*
X152850000Y-83450000D01*
%TA.AperFunction,Conductor*%
G36*
X152850000Y-83450000D02*
G01*
X153950000Y-83450000D01*
X153950000Y-87450000D01*
X152850000Y-87450000D01*
X152850000Y-83450000D01*
G37*
%TD.AperFunction*%
%TO.N,Net-(D1-K)*%
X157650000Y-82950000D02*
X162550000Y-82950000D01*
X162550000Y-85550000D01*
X157650000Y-85550000D01*
X157650000Y-82950000D01*
%TA.AperFunction,Conductor*%
G36*
X157650000Y-82950000D02*
G01*
X162550000Y-82950000D01*
X162550000Y-85550000D01*
X157650000Y-85550000D01*
X157650000Y-82950000D01*
G37*
%TD.AperFunction*%
%TD*%
D11*
%TO.P,J3,1,Pin_1*%
%TO.N,3.3V*%
X160430000Y-72350000D03*
D12*
%TO.P,J3,2,Pin_2*%
%TO.N,SCL*%
X162970000Y-72350000D03*
%TO.P,J3,3,Pin_3*%
%TO.N,SDA*%
X165510000Y-72350000D03*
%TO.P,J3,4,Pin_4*%
%TO.N,Net-(J3-Pin_4)*%
X168050000Y-72350000D03*
%TO.P,J3,5,Pin_5*%
%TO.N,GND*%
X170590000Y-72350000D03*
%TD*%
D13*
%TO.P,U6,1,In_2*%
%TO.N,FAN_EXHAUST*%
X183430000Y-65500000D03*
%TO.P,U6,2,In_1*%
%TO.N,GND*%
X185970000Y-65500000D03*
%TO.P,U6,3,Vm*%
%TO.N,24V*%
X188510000Y-65500000D03*
%TO.P,U6,4,GND*%
%TO.N,GND*%
X191050000Y-65500000D03*
%TD*%
%TO.P,U5,1,In_2*%
%TO.N,FAN_RECIRC*%
X190990000Y-73950000D03*
%TO.P,U5,2,In_1*%
%TO.N,GND*%
X188450000Y-73950000D03*
%TO.P,U5,3,Vm*%
%TO.N,24V*%
X185910000Y-73950000D03*
%TO.P,U5,4,GND*%
%TO.N,GND*%
X183370000Y-73950000D03*
%TD*%
D14*
%TO.P,R3,1*%
%TO.N,Net-(J3-Pin_4)*%
X168950000Y-69675000D03*
%TO.P,R3,2*%
%TO.N,TVOC_LED*%
X168950000Y-68025000D03*
%TD*%
D15*
%TO.P,J1,1,Pin_1*%
%TO.N,24V*%
X155200000Y-93675000D03*
D16*
%TO.P,J1,2,Pin_2*%
%TO.N,GND*%
X152700000Y-93675000D03*
%TD*%
D17*
%TO.P,D1,1,K*%
%TO.N,Net-(D1-K)*%
X158850000Y-83300000D03*
%TO.P,D1,2,A*%
%TO.N,GND*%
X158850000Y-80000000D03*
%TD*%
D18*
%TO.P,C1,1*%
%TO.N,24V*%
X155200000Y-84150000D03*
%TO.P,C1,2*%
%TO.N,GND*%
X153300000Y-84150000D03*
%TD*%
D11*
%TO.P,J2,1,Pin_1*%
%TO.N,5V*%
X153050000Y-46710000D03*
D12*
%TO.P,J2,2,Pin_2*%
%TO.N,3.3V*%
X153050000Y-49250000D03*
%TO.P,J2,3,Pin_3*%
%TO.N,3*%
X153050000Y-51790000D03*
%TO.P,J2,4,Pin_4*%
%TO.N,4*%
X153050000Y-54330000D03*
%TO.P,J2,5,Pin_5*%
%TO.N,10*%
X153050000Y-56870000D03*
%TO.P,J2,6,Pin_6*%
%TO.N,20*%
X153050000Y-59410000D03*
%TO.P,J2,7,Pin_7*%
%TO.N,21*%
X153050000Y-61950000D03*
%TO.P,J2,8,Pin_8*%
%TO.N,5*%
X153050000Y-64490000D03*
%TO.P,J2,9,Pin_9*%
%TO.N,6*%
X153050000Y-67030000D03*
%TO.P,J2,10,Pin_10*%
%TO.N,7*%
X153050000Y-69570000D03*
%TO.P,J2,11,Pin_11*%
%TO.N,GND*%
X153050000Y-72110000D03*
%TD*%
D19*
%TO.P,C4,1*%
%TO.N,5V*%
X156325000Y-86650000D03*
%TO.P,C4,2*%
%TO.N,GND*%
X153375000Y-86650000D03*
%TD*%
D20*
%TO.P,C2,1*%
%TO.N,5V*%
X173950000Y-68300000D03*
%TO.P,C2,2*%
%TO.N,GND*%
X173950000Y-70200000D03*
%TD*%
D21*
%TO.P,L1,1,1*%
%TO.N,Net-(D1-K)*%
X159450000Y-85050000D03*
%TO.P,L1,2,2*%
%TO.N,5V*%
X159450000Y-88050000D03*
%TD*%
D14*
%TO.P,R2,1*%
%TO.N,Net-(U1-FB)*%
X165550000Y-80875000D03*
%TO.P,R2,2*%
%TO.N,GND*%
X165550000Y-79225000D03*
%TD*%
D22*
%TO.P,C3,1*%
%TO.N,Net-(U1-CB)*%
X164025000Y-85050000D03*
%TO.P,C3,2*%
%TO.N,Net-(D1-K)*%
X162475000Y-85050000D03*
%TD*%
D23*
%TO.P,U2,1,5_A5_MISO*%
%TO.N,5*%
X158750000Y-46660000D03*
%TO.P,U2,2,6_MOSI*%
%TO.N,6*%
X158750000Y-49200000D03*
%TO.P,U2,3,7_SS*%
%TO.N,7*%
X158750000Y-51740000D03*
%TO.P,U2,4,8_SDA*%
%TO.N,SDA*%
X158750000Y-54280000D03*
%TO.P,U2,5,9_SCL*%
%TO.N,SCL*%
X158750000Y-56820000D03*
%TO.P,U2,6,10*%
%TO.N,10*%
X158750000Y-59360000D03*
%TO.P,U2,7,20_RX*%
%TO.N,20*%
X158750000Y-61900000D03*
%TO.P,U2,8,21_TX*%
%TO.N,21*%
X158750000Y-64440000D03*
%TO.P,U2,9,5V*%
%TO.N,5V*%
X173950000Y-64440000D03*
%TO.P,U2,10,GND*%
%TO.N,GND*%
X173950000Y-61900000D03*
%TO.P,U2,11,3.3V*%
%TO.N,3.3V*%
X173950000Y-59360000D03*
%TO.P,U2,12,4_A4_SCK*%
%TO.N,4*%
X173950000Y-56820000D03*
%TO.P,U2,13,3_A3*%
%TO.N,3*%
X173950000Y-54280000D03*
%TO.P,U2,14,2_A2*%
%TO.N,TVOC_LED*%
X173950000Y-51740000D03*
%TO.P,U2,15,1_A1*%
%TO.N,FAN_EXHAUST*%
X173950000Y-49200000D03*
%TO.P,U2,16,0_A0*%
%TO.N,FAN_RECIRC*%
X173950000Y-46660000D03*
%TD*%
D14*
%TO.P,R1,1*%
%TO.N,5V*%
X165550000Y-83975000D03*
%TO.P,R1,2*%
%TO.N,Net-(U1-FB)*%
X165550000Y-82325000D03*
%TD*%
D24*
%TO.P,U1,1,CB*%
%TO.N,Net-(U1-CB)*%
X163587500Y-83300000D03*
%TO.P,U1,2,GND*%
%TO.N,GND*%
X163587500Y-82350000D03*
%TO.P,U1,3,FB*%
%TO.N,Net-(U1-FB)*%
X163587500Y-81400000D03*
%TO.P,U1,4,~{SHDN}*%
%TO.N,24V*%
X161312500Y-81400000D03*
%TO.P,U1,5,Vin*%
X161312500Y-82350000D03*
%TO.P,U1,6,SW*%
%TO.N,Net-(D1-K)*%
X161312500Y-83300000D03*
%TD*%
D25*
%TO.N,GND*%
X176050000Y-58550000D03*
X176050000Y-54550000D03*
X176050000Y-63150000D03*
X176350000Y-49150000D03*
X179350000Y-52150000D03*
X183150000Y-55850000D03*
X173950000Y-72850000D03*
X172250000Y-60650000D03*
X184550000Y-70450000D03*
X184550000Y-69050000D03*
X191350000Y-69150000D03*
X191350000Y-70450000D03*
X188350000Y-71650000D03*
X165350000Y-44050000D03*
X165350000Y-46650000D03*
X157850000Y-66750000D03*
X161850000Y-70250000D03*
X171150000Y-68750000D03*
X150750000Y-90450000D03*
X152850000Y-90450000D03*
X150750000Y-88050000D03*
X169450000Y-76350000D03*
X150750000Y-76350000D03*
X169450000Y-78850000D03*
X169350000Y-81550000D03*
X169350000Y-86250000D03*
X169250000Y-88550000D03*
X167450000Y-90150000D03*
X164450000Y-90150000D03*
X161550000Y-90150000D03*
X158850000Y-90150000D03*
X166550000Y-76350000D03*
X162250000Y-76350000D03*
X158050000Y-76350000D03*
X153950000Y-76350000D03*
X150750000Y-80350000D03*
D26*
X150750000Y-84150000D03*
D25*
X169750000Y-49250000D03*
X165350000Y-49250000D03*
X186950000Y-60450000D03*
X185550000Y-60450000D03*
X171150000Y-66950000D03*
X161250000Y-66850000D03*
X161250000Y-62650000D03*
X171150000Y-65350000D03*
D27*
%TO.N,7*%
X157250000Y-51740000D03*
%TO.N,6*%
X155850000Y-51850000D03*
%TO.N,5*%
X154850000Y-51750000D03*
%TO.N,3*%
X170850000Y-53650000D03*
X172450000Y-54250000D03*
%TO.N,4*%
X170950000Y-55850000D03*
X169850000Y-54650000D03*
D25*
%TO.N,3.3V*%
X154550000Y-49250000D03*
%TO.N,5V*%
X170450000Y-57650000D03*
%TO.N,3.3V*%
X171550000Y-59350000D03*
D27*
X160450000Y-69650000D03*
D25*
%TO.N,GND*%
X152650000Y-85450000D03*
%TD*%
D28*
%TO.N,FAN_EXHAUST*%
X183430000Y-58680000D02*
X183430000Y-65500000D01*
X173950000Y-49200000D02*
X183430000Y-58680000D01*
%TO.N,FAN_RECIRC*%
X189750000Y-72710000D02*
X190990000Y-73950000D01*
X176360000Y-46660000D02*
X189750000Y-60050000D01*
X189750000Y-60050000D02*
X189750000Y-72710000D01*
X173950000Y-46660000D02*
X176360000Y-46660000D01*
%TO.N,6*%
X158125003Y-49200000D02*
X158750000Y-49200000D01*
X155850000Y-51475003D02*
X158125003Y-49200000D01*
X155850000Y-51850000D02*
X155850000Y-51475003D01*
%TO.N,7*%
X157250000Y-51740000D02*
X158750000Y-51740000D01*
%TO.N,5*%
X154850000Y-50560000D02*
X154850000Y-51750000D01*
X158750000Y-46660000D02*
X154850000Y-50560000D01*
%TO.N,3*%
X153901000Y-52641000D02*
X153050000Y-51790000D01*
X169841000Y-52641000D02*
X153901000Y-52641000D01*
X170850000Y-53650000D02*
X169841000Y-52641000D01*
X172480000Y-54280000D02*
X172450000Y-54250000D01*
X173950000Y-54280000D02*
X172480000Y-54280000D01*
%TO.N,4*%
X154001000Y-53379000D02*
X153050000Y-54330000D01*
X169850000Y-54650000D02*
X168579000Y-53379000D01*
X168579000Y-53379000D02*
X154001000Y-53379000D01*
X171920000Y-56820000D02*
X170950000Y-55850000D01*
X173950000Y-56820000D02*
X171920000Y-56820000D01*
%TO.N,10*%
X155270000Y-56870000D02*
X153050000Y-56870000D01*
X157760000Y-59360000D02*
X155270000Y-56870000D01*
X158750000Y-59360000D02*
X157760000Y-59360000D01*
%TO.N,20*%
X155110000Y-59410000D02*
X153050000Y-59410000D01*
X157600000Y-61900000D02*
X155110000Y-59410000D01*
X158750000Y-61900000D02*
X157600000Y-61900000D01*
%TO.N,21*%
X157740000Y-64440000D02*
X155250000Y-61950000D01*
X155250000Y-61950000D02*
X153050000Y-61950000D01*
X158750000Y-64440000D02*
X157740000Y-64440000D01*
D29*
%TO.N,3.3V*%
X153050000Y-49250000D02*
X154550000Y-49250000D01*
D30*
%TO.N,5V*%
X170450000Y-60940000D02*
X170450000Y-57650000D01*
X173950000Y-64440000D02*
X170450000Y-60940000D01*
D28*
%TO.N,SDA*%
X165510000Y-72350000D02*
X165510000Y-61040000D01*
X165510000Y-61040000D02*
X158750000Y-54280000D01*
%TO.N,SCL*%
X162970000Y-61040000D02*
X158750000Y-56820000D01*
X162970000Y-72350000D02*
X162970000Y-61040000D01*
D29*
%TO.N,3.3V*%
X160450000Y-69650000D02*
X160450000Y-72330000D01*
X160450000Y-72330000D02*
X160430000Y-72350000D01*
X171560000Y-59360000D02*
X171550000Y-59350000D01*
X173950000Y-59360000D02*
X171560000Y-59360000D01*
D28*
%TO.N,TVOC_LED*%
X168950000Y-56740000D02*
X173950000Y-51740000D01*
X168950000Y-68025000D02*
X168950000Y-56740000D01*
%TO.N,Net-(J3-Pin_4)*%
X168950000Y-69675000D02*
X168950000Y-71450000D01*
X168950000Y-71450000D02*
X168050000Y-72350000D01*
D30*
%TO.N,5V*%
X173950000Y-68300000D02*
X173950000Y-64440000D01*
X175400000Y-68300000D02*
X173950000Y-68300000D01*
X175950000Y-80850000D02*
X175950000Y-68850000D01*
X172825000Y-83975000D02*
X175950000Y-80850000D01*
X175950000Y-68850000D02*
X175400000Y-68300000D01*
X165550000Y-83975000D02*
X172825000Y-83975000D01*
D29*
%TO.N,24V*%
X185910000Y-80890000D02*
X185910000Y-73950000D01*
X175250000Y-91550000D02*
X185910000Y-80890000D01*
X155200000Y-91550000D02*
X175250000Y-91550000D01*
X155200000Y-91550000D02*
X155200000Y-90200000D01*
X155200000Y-84900000D02*
X155200000Y-84150000D01*
X154950000Y-85150000D02*
X155200000Y-84900000D01*
X155200000Y-90200000D02*
X154950000Y-89950000D01*
X154950000Y-89950000D02*
X154950000Y-85150000D01*
X155200000Y-93675000D02*
X155200000Y-91550000D01*
%TO.N,GND*%
X162071389Y-79225000D02*
X161296389Y-80000000D01*
X165550000Y-79225000D02*
X162071389Y-79225000D01*
%TO.N,Net-(U1-FB)*%
X165025000Y-81400000D02*
X165550000Y-80875000D01*
X163587500Y-81400000D02*
X165025000Y-81400000D01*
X165550000Y-82325000D02*
X165550000Y-80875000D01*
D30*
%TO.N,GND*%
X153400000Y-85450000D02*
X152650000Y-85450000D01*
%TO.N,5V*%
X163562187Y-88050000D02*
X159450000Y-88050000D01*
X165550000Y-86062187D02*
X163562187Y-88050000D01*
X165550000Y-83975000D02*
X165550000Y-86062187D01*
D29*
%TO.N,Net-(U1-CB)*%
X163587500Y-84612500D02*
X164025000Y-85050000D01*
X163587500Y-83300000D02*
X163587500Y-84612500D01*
D31*
%TO.N,GND*%
X162046389Y-80750000D02*
X161296389Y-80000000D01*
X162450000Y-80750000D02*
X162046389Y-80750000D01*
X162450000Y-81874999D02*
X162450000Y-80750000D01*
X162925001Y-82350000D02*
X162450000Y-81874999D01*
X161296389Y-80000000D02*
X158850000Y-80000000D01*
X163587500Y-82350000D02*
X162925001Y-82350000D01*
D29*
X157450000Y-80000000D02*
X153300000Y-84150000D01*
X158850000Y-80000000D02*
X157450000Y-80000000D01*
%TO.N,24V*%
X157950000Y-81400000D02*
X161312500Y-81400000D01*
X155200000Y-84150000D02*
X157950000Y-81400000D01*
D32*
X185910000Y-73950000D02*
X185910000Y-71790000D01*
X188510000Y-69190000D02*
X188510000Y-65500000D01*
X185910000Y-71790000D02*
X188510000Y-69190000D01*
%TD*%
%TA.AperFunction,Conductor*%
%TO.N,GND*%
G36*
X175600259Y-51790471D02*
G01*
X175651310Y-51821256D01*
X182743181Y-58913127D01*
X182776666Y-58974450D01*
X182779500Y-59000808D01*
X182779500Y-64363731D01*
X182759815Y-64430770D01*
X182728386Y-64464049D01*
X182615352Y-64546173D01*
X182476174Y-64685351D01*
X182476174Y-64685352D01*
X182476172Y-64685354D01*
X182426485Y-64753741D01*
X182360476Y-64844594D01*
X182271117Y-65019970D01*
X182210290Y-65207173D01*
X182179500Y-65401577D01*
X182179500Y-65598422D01*
X182210290Y-65792826D01*
X182271117Y-65980029D01*
X182357828Y-66150208D01*
X182360476Y-66155405D01*
X182476172Y-66314646D01*
X182615354Y-66453828D01*
X182774595Y-66569524D01*
X182857455Y-66611743D01*
X182949970Y-66658882D01*
X182949972Y-66658882D01*
X182949975Y-66658884D01*
X183050317Y-66691487D01*
X183137173Y-66719709D01*
X183331578Y-66750500D01*
X183331583Y-66750500D01*
X183528422Y-66750500D01*
X183722826Y-66719709D01*
X183741144Y-66713757D01*
X183910025Y-66658884D01*
X184085405Y-66569524D01*
X184244646Y-66453828D01*
X184383828Y-66314646D01*
X184499524Y-66155405D01*
X184588884Y-65980025D01*
X184588884Y-65980022D01*
X184589795Y-65978236D01*
X184637769Y-65927440D01*
X184705590Y-65910644D01*
X184771725Y-65933181D01*
X184810765Y-65978235D01*
X184900905Y-66155145D01*
X184926319Y-66190125D01*
X184926320Y-66190125D01*
X185570000Y-65546445D01*
X185570000Y-65552661D01*
X185597259Y-65654394D01*
X185649920Y-65745606D01*
X185724394Y-65820080D01*
X185815606Y-65872741D01*
X185917339Y-65900000D01*
X185923553Y-65900000D01*
X185279873Y-66543677D01*
X185279873Y-66543678D01*
X185314858Y-66569096D01*
X185490164Y-66658418D01*
X185677294Y-66719221D01*
X185871618Y-66750000D01*
X186068382Y-66750000D01*
X186262705Y-66719221D01*
X186449835Y-66658418D01*
X186625143Y-66569095D01*
X186660125Y-66543678D01*
X186660126Y-66543678D01*
X186016448Y-65900000D01*
X186022661Y-65900000D01*
X186124394Y-65872741D01*
X186215606Y-65820080D01*
X186290080Y-65745606D01*
X186342741Y-65654394D01*
X186370000Y-65552661D01*
X186370000Y-65546448D01*
X187013678Y-66190126D01*
X187013678Y-66190125D01*
X187039097Y-66155141D01*
X187129234Y-65978236D01*
X187177208Y-65927439D01*
X187245029Y-65910644D01*
X187311164Y-65933181D01*
X187350204Y-65978235D01*
X187351115Y-65980024D01*
X187351116Y-65980025D01*
X187440476Y-66155405D01*
X187556172Y-66314646D01*
X187556174Y-66314648D01*
X187573181Y-66331655D01*
X187606666Y-66392978D01*
X187609500Y-66419336D01*
X187609500Y-68765637D01*
X187589815Y-68832676D01*
X187573181Y-68853318D01*
X185210540Y-71215958D01*
X185210537Y-71215961D01*
X185182670Y-71257669D01*
X185111985Y-71363455D01*
X185078046Y-71445393D01*
X185044106Y-71527329D01*
X185044103Y-71527341D01*
X185009500Y-71701303D01*
X185009500Y-73030664D01*
X184989815Y-73097703D01*
X184973181Y-73118345D01*
X184956174Y-73135351D01*
X184956174Y-73135352D01*
X184956172Y-73135354D01*
X184906485Y-73203741D01*
X184840476Y-73294594D01*
X184750204Y-73471764D01*
X184702229Y-73522560D01*
X184634408Y-73539355D01*
X184568274Y-73516818D01*
X184529234Y-73471764D01*
X184439096Y-73294858D01*
X184413678Y-73259873D01*
X184413677Y-73259873D01*
X183770000Y-73903551D01*
X183770000Y-73897339D01*
X183742741Y-73795606D01*
X183690080Y-73704394D01*
X183615606Y-73629920D01*
X183524394Y-73577259D01*
X183422661Y-73550000D01*
X183416447Y-73550000D01*
X184060125Y-72906320D01*
X184060125Y-72906319D01*
X184025145Y-72880905D01*
X183849835Y-72791581D01*
X183662705Y-72730778D01*
X183468382Y-72700000D01*
X183271618Y-72700000D01*
X183077294Y-72730778D01*
X182890161Y-72791582D01*
X182714863Y-72880899D01*
X182714859Y-72880902D01*
X182679873Y-72906320D01*
X182679872Y-72906320D01*
X183323554Y-73550000D01*
X183317339Y-73550000D01*
X183215606Y-73577259D01*
X183124394Y-73629920D01*
X183049920Y-73704394D01*
X182997259Y-73795606D01*
X182970000Y-73897339D01*
X182970000Y-73903552D01*
X182326320Y-73259872D01*
X182326320Y-73259873D01*
X182300902Y-73294859D01*
X182300899Y-73294863D01*
X182211582Y-73470161D01*
X182150778Y-73657294D01*
X182120000Y-73851617D01*
X182120000Y-74048382D01*
X182150778Y-74242705D01*
X182211581Y-74429835D01*
X182300905Y-74605145D01*
X182326319Y-74640125D01*
X182326320Y-74640125D01*
X182970000Y-73996445D01*
X182970000Y-74002661D01*
X182997259Y-74104394D01*
X183049920Y-74195606D01*
X183124394Y-74270080D01*
X183215606Y-74322741D01*
X183317339Y-74350000D01*
X183323553Y-74350000D01*
X182679873Y-74993677D01*
X182679873Y-74993678D01*
X182714858Y-75019096D01*
X182890164Y-75108418D01*
X183077294Y-75169221D01*
X183271618Y-75200000D01*
X183468382Y-75200000D01*
X183662705Y-75169221D01*
X183849835Y-75108418D01*
X184025143Y-75019095D01*
X184060125Y-74993678D01*
X184060126Y-74993678D01*
X183416448Y-74350000D01*
X183422661Y-74350000D01*
X183524394Y-74322741D01*
X183615606Y-74270080D01*
X183690080Y-74195606D01*
X183742741Y-74104394D01*
X183770000Y-74002661D01*
X183770000Y-73996448D01*
X184413678Y-74640126D01*
X184413678Y-74640125D01*
X184439097Y-74605141D01*
X184529234Y-74428236D01*
X184577208Y-74377439D01*
X184645029Y-74360644D01*
X184711164Y-74383181D01*
X184750204Y-74428235D01*
X184751115Y-74430024D01*
X184751116Y-74430025D01*
X184840476Y-74605405D01*
X184956172Y-74764646D01*
X184956174Y-74764648D01*
X185073181Y-74881655D01*
X185106666Y-74942978D01*
X185109500Y-74969336D01*
X185109500Y-80507060D01*
X185089815Y-80574099D01*
X185073181Y-80594741D01*
X174954741Y-90713181D01*
X174893418Y-90746666D01*
X174867060Y-90749500D01*
X156124500Y-90749500D01*
X156057461Y-90729815D01*
X156011706Y-90677011D01*
X156000500Y-90625500D01*
X156000500Y-90121155D01*
X156000499Y-90121153D01*
X155969738Y-89966510D01*
X155969737Y-89966503D01*
X155930244Y-89871158D01*
X155909397Y-89820827D01*
X155909390Y-89820814D01*
X155857323Y-89742891D01*
X155836445Y-89676214D01*
X155854929Y-89608834D01*
X155906908Y-89562143D01*
X155960425Y-89550000D01*
X168350000Y-89550000D01*
X168387408Y-85098458D01*
X168407656Y-85031586D01*
X168460842Y-84986277D01*
X168511404Y-84975500D01*
X172923543Y-84975500D01*
X172957777Y-84968689D01*
X173049223Y-84950500D01*
X173116836Y-84937051D01*
X173170165Y-84914961D01*
X173298914Y-84861632D01*
X173462782Y-84752139D01*
X173602139Y-84612782D01*
X173602139Y-84612780D01*
X173612347Y-84602573D01*
X173612348Y-84602570D01*
X176727139Y-81487782D01*
X176733112Y-81478843D01*
X176836632Y-81323914D01*
X176894459Y-81184306D01*
X176912051Y-81141836D01*
X176950500Y-80948541D01*
X176950500Y-80751460D01*
X176950500Y-68751459D01*
X176950500Y-68751456D01*
X176922150Y-68608938D01*
X176920664Y-68601465D01*
X176912051Y-68558164D01*
X176880811Y-68482745D01*
X176879066Y-68478532D01*
X176879064Y-68478526D01*
X176836635Y-68376093D01*
X176836634Y-68376092D01*
X176836632Y-68376086D01*
X176798116Y-68318443D01*
X176727140Y-68212219D01*
X176699969Y-68185048D01*
X176587782Y-68072861D01*
X176587781Y-68072860D01*
X176184208Y-67669288D01*
X176184206Y-67669285D01*
X176184206Y-67669286D01*
X176177139Y-67662219D01*
X176177139Y-67662218D01*
X176037782Y-67522861D01*
X176037781Y-67522860D01*
X176037780Y-67522859D01*
X175873920Y-67413371D01*
X175873907Y-67413364D01*
X175721123Y-67350079D01*
X175721115Y-67350077D01*
X175711859Y-67346243D01*
X175691836Y-67337949D01*
X175551332Y-67310001D01*
X175549207Y-67309578D01*
X175549193Y-67309575D01*
X175498542Y-67299500D01*
X175498541Y-67299500D01*
X175074500Y-67299500D01*
X175007461Y-67279815D01*
X174961706Y-67227011D01*
X174950500Y-67175500D01*
X174950500Y-65452662D01*
X174970185Y-65385623D01*
X175001616Y-65352343D01*
X175049497Y-65317556D01*
X175049497Y-65317555D01*
X175049501Y-65317553D01*
X175177553Y-65189501D01*
X175283996Y-65042994D01*
X175366211Y-64881639D01*
X175422171Y-64709409D01*
X175448025Y-64546174D01*
X175450500Y-64530551D01*
X175450500Y-64349448D01*
X175427781Y-64206014D01*
X175422171Y-64170591D01*
X175366211Y-63998361D01*
X175366211Y-63998360D01*
X175337740Y-63942484D01*
X175283996Y-63837006D01*
X175244162Y-63782179D01*
X175177558Y-63690505D01*
X175177554Y-63690500D01*
X175049499Y-63562445D01*
X175049494Y-63562441D01*
X174902997Y-63456006D01*
X174902996Y-63456005D01*
X174902994Y-63456004D01*
X174851300Y-63429664D01*
X174741639Y-63373788D01*
X174741636Y-63373787D01*
X174569410Y-63317828D01*
X174407720Y-63292219D01*
X174344585Y-63262289D01*
X174307654Y-63202978D01*
X174308652Y-63133115D01*
X174347262Y-63074883D01*
X174407721Y-63047273D01*
X174569287Y-63021684D01*
X174569289Y-63021683D01*
X174681630Y-62985182D01*
X173996448Y-62300000D01*
X174002661Y-62300000D01*
X174104394Y-62272741D01*
X174195606Y-62220080D01*
X174270080Y-62145606D01*
X174322741Y-62054394D01*
X174350000Y-61952661D01*
X174350000Y-61946448D01*
X175114949Y-62711397D01*
X175177172Y-62649173D01*
X175177176Y-62649169D01*
X175283565Y-62502734D01*
X175365747Y-62341447D01*
X175365748Y-62341444D01*
X175421682Y-62169293D01*
X175450000Y-61990506D01*
X175450000Y-61809493D01*
X175421682Y-61630706D01*
X175365748Y-61458555D01*
X175365747Y-61458552D01*
X175283565Y-61297265D01*
X175177176Y-61150830D01*
X175114949Y-61088603D01*
X174350000Y-61853552D01*
X174350000Y-61847339D01*
X174322741Y-61745606D01*
X174270080Y-61654394D01*
X174195606Y-61579920D01*
X174104394Y-61527259D01*
X174002661Y-61500000D01*
X173996449Y-61500000D01*
X174681629Y-60814817D01*
X174681629Y-60814816D01*
X174569293Y-60778317D01*
X174407720Y-60752726D01*
X174344585Y-60722797D01*
X174307654Y-60663485D01*
X174308652Y-60593623D01*
X174347262Y-60535390D01*
X174407720Y-60507780D01*
X174422270Y-60505475D01*
X174569409Y-60482171D01*
X174741639Y-60426211D01*
X174902994Y-60343996D01*
X175049501Y-60237553D01*
X175177553Y-60109501D01*
X175283996Y-59962994D01*
X175366211Y-59801639D01*
X175422171Y-59629409D01*
X175440088Y-59516286D01*
X175450500Y-59450551D01*
X175450500Y-59269448D01*
X175434019Y-59165397D01*
X175422171Y-59090591D01*
X175366211Y-58918361D01*
X175366211Y-58918360D01*
X175337740Y-58862484D01*
X175283996Y-58757006D01*
X175181500Y-58615931D01*
X175177558Y-58610505D01*
X175177554Y-58610500D01*
X175049499Y-58482445D01*
X175049494Y-58482441D01*
X174902997Y-58376006D01*
X174902996Y-58376005D01*
X174902994Y-58376004D01*
X174844913Y-58346410D01*
X174741639Y-58293788D01*
X174741636Y-58293787D01*
X174569410Y-58237829D01*
X174409321Y-58212473D01*
X174346186Y-58182544D01*
X174309255Y-58123232D01*
X174310253Y-58053370D01*
X174348863Y-57995137D01*
X174409321Y-57967527D01*
X174479425Y-57956422D01*
X174569409Y-57942171D01*
X174741639Y-57886211D01*
X174902994Y-57803996D01*
X175049501Y-57697553D01*
X175177553Y-57569501D01*
X175283996Y-57422994D01*
X175366211Y-57261639D01*
X175422171Y-57089409D01*
X175440088Y-56976286D01*
X175450500Y-56910551D01*
X175450500Y-56729448D01*
X175434019Y-56625397D01*
X175422171Y-56550591D01*
X175366211Y-56378361D01*
X175366211Y-56378360D01*
X175332642Y-56312479D01*
X175283996Y-56217006D01*
X175212344Y-56118385D01*
X175177558Y-56070505D01*
X175177554Y-56070500D01*
X175049499Y-55942445D01*
X175049494Y-55942441D01*
X174902997Y-55836006D01*
X174902996Y-55836005D01*
X174902994Y-55836004D01*
X174851300Y-55809664D01*
X174741639Y-55753788D01*
X174741636Y-55753787D01*
X174569410Y-55697829D01*
X174409321Y-55672473D01*
X174346186Y-55642544D01*
X174309255Y-55583232D01*
X174310253Y-55513370D01*
X174348863Y-55455137D01*
X174409321Y-55427527D01*
X174479425Y-55416422D01*
X174569409Y-55402171D01*
X174741639Y-55346211D01*
X174902994Y-55263996D01*
X175049501Y-55157553D01*
X175177553Y-55029501D01*
X175283996Y-54882994D01*
X175366211Y-54721639D01*
X175422171Y-54549409D01*
X175440088Y-54436286D01*
X175450500Y-54370551D01*
X175450500Y-54189448D01*
X175428437Y-54050153D01*
X175422171Y-54010591D01*
X175366211Y-53838361D01*
X175366211Y-53838360D01*
X175337740Y-53782484D01*
X175283996Y-53677006D01*
X175244162Y-53622179D01*
X175177558Y-53530505D01*
X175177554Y-53530500D01*
X175049499Y-53402445D01*
X175049494Y-53402441D01*
X174902997Y-53296006D01*
X174902996Y-53296005D01*
X174902994Y-53296004D01*
X174851300Y-53269664D01*
X174741639Y-53213788D01*
X174741636Y-53213787D01*
X174569410Y-53157829D01*
X174409321Y-53132473D01*
X174346186Y-53102544D01*
X174309255Y-53043232D01*
X174310253Y-52973370D01*
X174348863Y-52915137D01*
X174409321Y-52887527D01*
X174479425Y-52876422D01*
X174569409Y-52862171D01*
X174741639Y-52806211D01*
X174902994Y-52723996D01*
X175049501Y-52617553D01*
X175177553Y-52489501D01*
X175283996Y-52342994D01*
X175366211Y-52181639D01*
X175422171Y-52009409D01*
X175441156Y-51889539D01*
X175471085Y-51826405D01*
X175530396Y-51789473D01*
X175600259Y-51790471D01*
G37*
%TD.AperFunction*%
%TA.AperFunction,Conductor*%
G36*
X189018834Y-70057179D02*
G01*
X189074767Y-70099051D01*
X189099184Y-70164515D01*
X189099500Y-70173361D01*
X189099500Y-72676279D01*
X189079815Y-72743318D01*
X189027011Y-72789073D01*
X188957853Y-72799017D01*
X188934610Y-72792643D01*
X188934467Y-72793086D01*
X188742705Y-72730778D01*
X188548382Y-72700000D01*
X188351618Y-72700000D01*
X188157294Y-72730778D01*
X187970161Y-72791582D01*
X187794863Y-72880899D01*
X187794859Y-72880902D01*
X187759873Y-72906320D01*
X187759872Y-72906320D01*
X188403553Y-73550000D01*
X188397339Y-73550000D01*
X188295606Y-73577259D01*
X188204394Y-73629920D01*
X188129920Y-73704394D01*
X188077259Y-73795606D01*
X188050000Y-73897339D01*
X188050000Y-73903552D01*
X187406320Y-73259872D01*
X187406320Y-73259873D01*
X187380902Y-73294859D01*
X187290765Y-73471764D01*
X187242790Y-73522560D01*
X187174969Y-73539355D01*
X187108835Y-73516818D01*
X187069795Y-73471763D01*
X186979525Y-73294596D01*
X186945578Y-73247873D01*
X186863828Y-73135354D01*
X186846819Y-73118345D01*
X186813334Y-73057022D01*
X186810500Y-73030664D01*
X186810500Y-72214361D01*
X186830185Y-72147322D01*
X186846819Y-72126680D01*
X188887819Y-70085680D01*
X188949142Y-70052195D01*
X189018834Y-70057179D01*
G37*
%TD.AperFunction*%
%TA.AperFunction,Conductor*%
G36*
X176106231Y-47330185D02*
G01*
X176126873Y-47346819D01*
X189063181Y-60283127D01*
X189096666Y-60344450D01*
X189099500Y-60370808D01*
X189099500Y-64206014D01*
X189079815Y-64273053D01*
X189027011Y-64318808D01*
X188957853Y-64328752D01*
X188937182Y-64323945D01*
X188802829Y-64280291D01*
X188608422Y-64249500D01*
X188608417Y-64249500D01*
X188411583Y-64249500D01*
X188411578Y-64249500D01*
X188217173Y-64280290D01*
X188029970Y-64341117D01*
X187854594Y-64430476D01*
X187763741Y-64496485D01*
X187695354Y-64546172D01*
X187695352Y-64546174D01*
X187695351Y-64546174D01*
X187556174Y-64685351D01*
X187556174Y-64685352D01*
X187556172Y-64685354D01*
X187506485Y-64753741D01*
X187440476Y-64844594D01*
X187350204Y-65021764D01*
X187302229Y-65072560D01*
X187234408Y-65089355D01*
X187168274Y-65066818D01*
X187129234Y-65021764D01*
X187039096Y-64844858D01*
X187013678Y-64809873D01*
X187013677Y-64809873D01*
X186370000Y-65453551D01*
X186370000Y-65447339D01*
X186342741Y-65345606D01*
X186290080Y-65254394D01*
X186215606Y-65179920D01*
X186124394Y-65127259D01*
X186022661Y-65100000D01*
X186016447Y-65100000D01*
X186660125Y-64456320D01*
X186660125Y-64456319D01*
X186625145Y-64430905D01*
X186449835Y-64341581D01*
X186262705Y-64280778D01*
X186068382Y-64250000D01*
X185871618Y-64250000D01*
X185677294Y-64280778D01*
X185490161Y-64341582D01*
X185314863Y-64430899D01*
X185314859Y-64430902D01*
X185279873Y-64456320D01*
X185279872Y-64456320D01*
X185923554Y-65100000D01*
X185917339Y-65100000D01*
X185815606Y-65127259D01*
X185724394Y-65179920D01*
X185649920Y-65254394D01*
X185597259Y-65345606D01*
X185570000Y-65447339D01*
X185570000Y-65453552D01*
X184926320Y-64809872D01*
X184926320Y-64809873D01*
X184900902Y-64844859D01*
X184810765Y-65021764D01*
X184762790Y-65072560D01*
X184694969Y-65089355D01*
X184628835Y-65066818D01*
X184589795Y-65021763D01*
X184499525Y-64844596D01*
X184471659Y-64806243D01*
X184383828Y-64685354D01*
X184244646Y-64546172D01*
X184129018Y-64462162D01*
X184126523Y-64460145D01*
X184108399Y-64433942D01*
X184088949Y-64408718D01*
X184088202Y-64404742D01*
X184086777Y-64402682D01*
X184086547Y-64395932D01*
X184080500Y-64363731D01*
X184080500Y-58615928D01*
X184055502Y-58490261D01*
X184055501Y-58490260D01*
X184055501Y-58490256D01*
X184010473Y-58381548D01*
X184006466Y-58371874D01*
X183954290Y-58293787D01*
X183935278Y-58265332D01*
X183935272Y-58265325D01*
X175406545Y-49736599D01*
X175373060Y-49675276D01*
X175376294Y-49610603D01*
X175422171Y-49469409D01*
X175440088Y-49356286D01*
X175450500Y-49290551D01*
X175450500Y-49109448D01*
X175422818Y-48934677D01*
X175422171Y-48930591D01*
X175366211Y-48758361D01*
X175366211Y-48758360D01*
X175337740Y-48702484D01*
X175283996Y-48597006D01*
X175244162Y-48542179D01*
X175177558Y-48450505D01*
X175177554Y-48450500D01*
X175049499Y-48322445D01*
X175049494Y-48322441D01*
X174902997Y-48216006D01*
X174902996Y-48216005D01*
X174902994Y-48216004D01*
X174851300Y-48189664D01*
X174741639Y-48133788D01*
X174741636Y-48133787D01*
X174569410Y-48077829D01*
X174409321Y-48052473D01*
X174346186Y-48022544D01*
X174309255Y-47963232D01*
X174310253Y-47893370D01*
X174348863Y-47835137D01*
X174409321Y-47807527D01*
X174479425Y-47796422D01*
X174569409Y-47782171D01*
X174741639Y-47726211D01*
X174902994Y-47643996D01*
X175049501Y-47537553D01*
X175177553Y-47409501D01*
X175180316Y-47405697D01*
X175212345Y-47361615D01*
X175267674Y-47318949D01*
X175312663Y-47310500D01*
X176039192Y-47310500D01*
X176106231Y-47330185D01*
G37*
%TD.AperFunction*%
%TA.AperFunction,Conductor*%
G36*
X172789123Y-60180185D02*
G01*
X172809765Y-60196819D01*
X172850500Y-60237554D01*
X172850505Y-60237558D01*
X172922392Y-60289786D01*
X172997006Y-60343996D01*
X173102484Y-60397740D01*
X173158360Y-60426211D01*
X173158363Y-60426212D01*
X173201135Y-60440109D01*
X173330591Y-60482171D01*
X173446790Y-60500575D01*
X173492279Y-60507780D01*
X173555414Y-60537709D01*
X173592345Y-60597021D01*
X173591347Y-60666883D01*
X173552737Y-60725116D01*
X173492279Y-60752726D01*
X173330704Y-60778317D01*
X173218369Y-60814816D01*
X173218369Y-60814817D01*
X173903552Y-61500000D01*
X173897339Y-61500000D01*
X173795606Y-61527259D01*
X173704394Y-61579920D01*
X173629920Y-61654394D01*
X173577259Y-61745606D01*
X173550000Y-61847339D01*
X173550000Y-61853552D01*
X172785051Y-61088603D01*
X172722827Y-61150826D01*
X172722823Y-61150830D01*
X172616432Y-61297267D01*
X172560841Y-61406370D01*
X172512867Y-61457165D01*
X172445046Y-61473960D01*
X172378911Y-61451422D01*
X172362676Y-61437755D01*
X171486819Y-60561898D01*
X171472115Y-60534970D01*
X171455523Y-60509152D01*
X171454631Y-60502951D01*
X171453334Y-60500575D01*
X171450500Y-60474217D01*
X171450500Y-60299500D01*
X171470185Y-60232461D01*
X171522989Y-60186706D01*
X171574500Y-60175500D01*
X171631306Y-60175500D01*
X171694734Y-60162883D01*
X171718926Y-60160500D01*
X172722084Y-60160500D01*
X172789123Y-60180185D01*
G37*
%TD.AperFunction*%
%TA.AperFunction,Conductor*%
G36*
X198292539Y-42870185D02*
G01*
X198338294Y-42922989D01*
X198349500Y-42974500D01*
X198349500Y-96575500D01*
X198329815Y-96642539D01*
X198277011Y-96688294D01*
X198225500Y-96699500D01*
X149624500Y-96699500D01*
X149557461Y-96679815D01*
X149511706Y-96627011D01*
X149500500Y-96575500D01*
X149500500Y-93418753D01*
X151350000Y-93418753D01*
X151350000Y-93425000D01*
X152266988Y-93425000D01*
X152234075Y-93482007D01*
X152200000Y-93609174D01*
X152200000Y-93740826D01*
X152234075Y-93867993D01*
X152266988Y-93925000D01*
X151350000Y-93925000D01*
X151350000Y-93931246D01*
X151383242Y-94141127D01*
X151383242Y-94141130D01*
X151448904Y-94343217D01*
X151545379Y-94532557D01*
X151670272Y-94704459D01*
X151670276Y-94704464D01*
X151820535Y-94854723D01*
X151820540Y-94854727D01*
X151992442Y-94979620D01*
X152181782Y-95076095D01*
X152383871Y-95141757D01*
X152450000Y-95152231D01*
X152450000Y-94108012D01*
X152507007Y-94140925D01*
X152634174Y-94175000D01*
X152765826Y-94175000D01*
X152892993Y-94140925D01*
X152950000Y-94108012D01*
X152950000Y-95152230D01*
X153016126Y-95141757D01*
X153016129Y-95141757D01*
X153218217Y-95076095D01*
X153407557Y-94979620D01*
X153579458Y-94854728D01*
X153718330Y-94715856D01*
X153779653Y-94682371D01*
X153849345Y-94687355D01*
X153905279Y-94729226D01*
X153911551Y-94738440D01*
X153915185Y-94744331D01*
X153915186Y-94744334D01*
X154007288Y-94893656D01*
X154131344Y-95017712D01*
X154280666Y-95109814D01*
X154447203Y-95164999D01*
X154549991Y-95175500D01*
X155850008Y-95175499D01*
X155952797Y-95164999D01*
X156119334Y-95109814D01*
X156268656Y-95017712D01*
X156392712Y-94893656D01*
X156484814Y-94744334D01*
X156539999Y-94577797D01*
X156550500Y-94475009D01*
X156550499Y-92874992D01*
X156539999Y-92772203D01*
X156484814Y-92605666D01*
X156444061Y-92539595D01*
X156425622Y-92472204D01*
X156446545Y-92405541D01*
X156500187Y-92360771D01*
X156549601Y-92350500D01*
X175328844Y-92350500D01*
X175328845Y-92350499D01*
X175483497Y-92319737D01*
X175629179Y-92259394D01*
X175760289Y-92171789D01*
X186531789Y-81400289D01*
X186619394Y-81269179D01*
X186679738Y-81123497D01*
X186710500Y-80968842D01*
X186710500Y-80811157D01*
X186710500Y-74969336D01*
X186719144Y-74939895D01*
X186725668Y-74909909D01*
X186729422Y-74904893D01*
X186730185Y-74902297D01*
X186746819Y-74881655D01*
X186769736Y-74858738D01*
X186863828Y-74764646D01*
X186979524Y-74605405D01*
X187068884Y-74430025D01*
X187068884Y-74430022D01*
X187069795Y-74428236D01*
X187117769Y-74377440D01*
X187185590Y-74360644D01*
X187251725Y-74383181D01*
X187290765Y-74428235D01*
X187380905Y-74605145D01*
X187406319Y-74640125D01*
X187406320Y-74640125D01*
X188050000Y-73996445D01*
X188050000Y-74002661D01*
X188077259Y-74104394D01*
X188129920Y-74195606D01*
X188204394Y-74270080D01*
X188295606Y-74322741D01*
X188397339Y-74350000D01*
X188403553Y-74350000D01*
X187759873Y-74993677D01*
X187759873Y-74993678D01*
X187794858Y-75019096D01*
X187970164Y-75108418D01*
X188157294Y-75169221D01*
X188351618Y-75200000D01*
X188548382Y-75200000D01*
X188742705Y-75169221D01*
X188929835Y-75108418D01*
X189105143Y-75019095D01*
X189140125Y-74993678D01*
X189140126Y-74993678D01*
X188496448Y-74350000D01*
X188502661Y-74350000D01*
X188604394Y-74322741D01*
X188695606Y-74270080D01*
X188770080Y-74195606D01*
X188822741Y-74104394D01*
X188850000Y-74002661D01*
X188850000Y-73996446D01*
X189493678Y-74640126D01*
X189493678Y-74640125D01*
X189519097Y-74605141D01*
X189609234Y-74428236D01*
X189657208Y-74377439D01*
X189725029Y-74360644D01*
X189791164Y-74383181D01*
X189830204Y-74428235D01*
X189831115Y-74430024D01*
X189831116Y-74430025D01*
X189920476Y-74605405D01*
X190036172Y-74764646D01*
X190175354Y-74903828D01*
X190334595Y-75019524D01*
X190417455Y-75061743D01*
X190509970Y-75108882D01*
X190509972Y-75108882D01*
X190509975Y-75108884D01*
X190610317Y-75141487D01*
X190697173Y-75169709D01*
X190891578Y-75200500D01*
X190891583Y-75200500D01*
X191088422Y-75200500D01*
X191282826Y-75169709D01*
X191284328Y-75169221D01*
X191470025Y-75108884D01*
X191645405Y-75019524D01*
X191804646Y-74903828D01*
X191943828Y-74764646D01*
X192059524Y-74605405D01*
X192148884Y-74430025D01*
X192209709Y-74242826D01*
X192217188Y-74195606D01*
X192240500Y-74048422D01*
X192240500Y-73851577D01*
X192209709Y-73657173D01*
X192160142Y-73504624D01*
X192148884Y-73469975D01*
X192148882Y-73469972D01*
X192148882Y-73469970D01*
X192093407Y-73361095D01*
X192059524Y-73294595D01*
X191943828Y-73135354D01*
X191804646Y-72996172D01*
X191645405Y-72880476D01*
X191470029Y-72791117D01*
X191282826Y-72730290D01*
X191088422Y-72699500D01*
X191088417Y-72699500D01*
X190891583Y-72699500D01*
X190891578Y-72699500D01*
X190753588Y-72721355D01*
X190684294Y-72712400D01*
X190646509Y-72686563D01*
X190436819Y-72476873D01*
X190403334Y-72415550D01*
X190400500Y-72389192D01*
X190400500Y-66773720D01*
X190420185Y-66706681D01*
X190472989Y-66660926D01*
X190542147Y-66650982D01*
X190565388Y-66657359D01*
X190565533Y-66656914D01*
X190757294Y-66719221D01*
X190951618Y-66750000D01*
X191148382Y-66750000D01*
X191342705Y-66719221D01*
X191529835Y-66658418D01*
X191705143Y-66569095D01*
X191740125Y-66543678D01*
X191740126Y-66543678D01*
X191096447Y-65900000D01*
X191102661Y-65900000D01*
X191204394Y-65872741D01*
X191295606Y-65820080D01*
X191370080Y-65745606D01*
X191422741Y-65654394D01*
X191450000Y-65552661D01*
X191450000Y-65546447D01*
X192093678Y-66190126D01*
X192093678Y-66190125D01*
X192119095Y-66155143D01*
X192208418Y-65979835D01*
X192269221Y-65792705D01*
X192300000Y-65598382D01*
X192300000Y-65401617D01*
X192269221Y-65207294D01*
X192208418Y-65020164D01*
X192119096Y-64844858D01*
X192093678Y-64809873D01*
X192093677Y-64809873D01*
X191450000Y-65453551D01*
X191450000Y-65447339D01*
X191422741Y-65345606D01*
X191370080Y-65254394D01*
X191295606Y-65179920D01*
X191204394Y-65127259D01*
X191102661Y-65100000D01*
X191096446Y-65100000D01*
X191740125Y-64456320D01*
X191740125Y-64456319D01*
X191705145Y-64430905D01*
X191529835Y-64341581D01*
X191342705Y-64280778D01*
X191148382Y-64250000D01*
X190951618Y-64250000D01*
X190757294Y-64280778D01*
X190565533Y-64343086D01*
X190565046Y-64341588D01*
X190502461Y-64348305D01*
X190439987Y-64317018D01*
X190404346Y-64256923D01*
X190400500Y-64226279D01*
X190400500Y-59985928D01*
X190375502Y-59860261D01*
X190375501Y-59860260D01*
X190375501Y-59860256D01*
X190340050Y-59774669D01*
X190326466Y-59741874D01*
X190255277Y-59635331D01*
X190255272Y-59635325D01*
X176774673Y-46154726D01*
X176774669Y-46154723D01*
X176668127Y-46083535D01*
X176549744Y-46034499D01*
X176549738Y-46034497D01*
X176424071Y-46009500D01*
X176424069Y-46009500D01*
X175312663Y-46009500D01*
X175245624Y-45989815D01*
X175212345Y-45958385D01*
X175177558Y-45910505D01*
X175177554Y-45910500D01*
X175049499Y-45782445D01*
X175049494Y-45782441D01*
X174902997Y-45676006D01*
X174902996Y-45676005D01*
X174902994Y-45676004D01*
X174851300Y-45649664D01*
X174741639Y-45593788D01*
X174741636Y-45593787D01*
X174569410Y-45537829D01*
X174390551Y-45509500D01*
X174390546Y-45509500D01*
X173509454Y-45509500D01*
X173509449Y-45509500D01*
X173330589Y-45537829D01*
X173158363Y-45593787D01*
X173158360Y-45593788D01*
X172997002Y-45676006D01*
X172850505Y-45782441D01*
X172850500Y-45782445D01*
X172722445Y-45910500D01*
X172722441Y-45910505D01*
X172616006Y-46057002D01*
X172533788Y-46218360D01*
X172533787Y-46218363D01*
X172477829Y-46390589D01*
X172449500Y-46569448D01*
X172449500Y-46750551D01*
X172477829Y-46929410D01*
X172533787Y-47101636D01*
X172533788Y-47101639D01*
X172616006Y-47262997D01*
X172722441Y-47409494D01*
X172722445Y-47409499D01*
X172850500Y-47537554D01*
X172850505Y-47537558D01*
X172947291Y-47607876D01*
X172997006Y-47643996D01*
X173102484Y-47697740D01*
X173158360Y-47726211D01*
X173158363Y-47726212D01*
X173244476Y-47754191D01*
X173330591Y-47782171D01*
X173403639Y-47793740D01*
X173490678Y-47807527D01*
X173553813Y-47837456D01*
X173590744Y-47896768D01*
X173589746Y-47966631D01*
X173551136Y-48024863D01*
X173490678Y-48052473D01*
X173330589Y-48077829D01*
X173158363Y-48133787D01*
X173158360Y-48133788D01*
X172997002Y-48216006D01*
X172850505Y-48322441D01*
X172850500Y-48322445D01*
X172722445Y-48450500D01*
X172722441Y-48450505D01*
X172616006Y-48597002D01*
X172533788Y-48758360D01*
X172533787Y-48758363D01*
X172477829Y-48930589D01*
X172449500Y-49109448D01*
X172449500Y-49290551D01*
X172477829Y-49469410D01*
X172533787Y-49641636D01*
X172533788Y-49641639D01*
X172552227Y-49677826D01*
X172598384Y-49768414D01*
X172616006Y-49802997D01*
X172722441Y-49949494D01*
X172722445Y-49949499D01*
X172850500Y-50077554D01*
X172850505Y-50077558D01*
X172974209Y-50167433D01*
X172997006Y-50183996D01*
X173092979Y-50232897D01*
X173158360Y-50266211D01*
X173158363Y-50266212D01*
X173201135Y-50280109D01*
X173330591Y-50322171D01*
X173403639Y-50333740D01*
X173490678Y-50347527D01*
X173553813Y-50377456D01*
X173590744Y-50436768D01*
X173589746Y-50506631D01*
X173551136Y-50564863D01*
X173490678Y-50592473D01*
X173330589Y-50617829D01*
X173158363Y-50673787D01*
X173158360Y-50673788D01*
X172997002Y-50756006D01*
X172850505Y-50862441D01*
X172850500Y-50862445D01*
X172722445Y-50990500D01*
X172722441Y-50990505D01*
X172616006Y-51137002D01*
X172533788Y-51298360D01*
X172533787Y-51298363D01*
X172477829Y-51470589D01*
X172449500Y-51649448D01*
X172449500Y-51830551D01*
X172477829Y-52009412D01*
X172523703Y-52150601D01*
X172525698Y-52220442D01*
X172493453Y-52276599D01*
X171585713Y-53184339D01*
X171524390Y-53217824D01*
X171454698Y-53212840D01*
X171410351Y-53184339D01*
X171312482Y-53086470D01*
X171312478Y-53086467D01*
X171193659Y-53007074D01*
X171193649Y-53007069D01*
X171102684Y-52969390D01*
X171062456Y-52942510D01*
X170255674Y-52135727D01*
X170255673Y-52135726D01*
X170211542Y-52106239D01*
X170149127Y-52064535D01*
X170030744Y-52015499D01*
X170030738Y-52015497D01*
X169905071Y-51990500D01*
X169905069Y-51990500D01*
X160370352Y-51990500D01*
X160303313Y-51970815D01*
X160257558Y-51918011D01*
X160247614Y-51848853D01*
X160247878Y-51847104D01*
X160250500Y-51830547D01*
X160250500Y-51649448D01*
X160234019Y-51545397D01*
X160222171Y-51470591D01*
X160166211Y-51298361D01*
X160166211Y-51298360D01*
X160137740Y-51242484D01*
X160083996Y-51137006D01*
X160038614Y-51074543D01*
X159977558Y-50990505D01*
X159977554Y-50990500D01*
X159849499Y-50862445D01*
X159849494Y-50862441D01*
X159702997Y-50756006D01*
X159702996Y-50756005D01*
X159702994Y-50756004D01*
X159651300Y-50729664D01*
X159541639Y-50673788D01*
X159541636Y-50673787D01*
X159369410Y-50617829D01*
X159209321Y-50592473D01*
X159146186Y-50562544D01*
X159109255Y-50503232D01*
X159110253Y-50433370D01*
X159148863Y-50375137D01*
X159209321Y-50347527D01*
X159279425Y-50336422D01*
X159369409Y-50322171D01*
X159541639Y-50266211D01*
X159702994Y-50183996D01*
X159849501Y-50077553D01*
X159977553Y-49949501D01*
X160083996Y-49802994D01*
X160166211Y-49641639D01*
X160222171Y-49469409D01*
X160240088Y-49356286D01*
X160250500Y-49290551D01*
X160250500Y-49109448D01*
X160222818Y-48934677D01*
X160222171Y-48930591D01*
X160166211Y-48758361D01*
X160166211Y-48758360D01*
X160137740Y-48702484D01*
X160083996Y-48597006D01*
X160044162Y-48542179D01*
X159977558Y-48450505D01*
X159977554Y-48450500D01*
X159849499Y-48322445D01*
X159849494Y-48322441D01*
X159702997Y-48216006D01*
X159702996Y-48216005D01*
X159702994Y-48216004D01*
X159651300Y-48189664D01*
X159541639Y-48133788D01*
X159541636Y-48133787D01*
X159369410Y-48077829D01*
X159209321Y-48052473D01*
X159146186Y-48022544D01*
X159109255Y-47963232D01*
X159110253Y-47893370D01*
X159148863Y-47835137D01*
X159209321Y-47807527D01*
X159279425Y-47796422D01*
X159369409Y-47782171D01*
X159541639Y-47726211D01*
X159702994Y-47643996D01*
X159849501Y-47537553D01*
X159977553Y-47409501D01*
X160083996Y-47262994D01*
X160166211Y-47101639D01*
X160222171Y-46929409D01*
X160236765Y-46837259D01*
X160250500Y-46750551D01*
X160250500Y-46569448D01*
X160234019Y-46465397D01*
X160222171Y-46390591D01*
X160166211Y-46218361D01*
X160166211Y-46218360D01*
X160097513Y-46083535D01*
X160083996Y-46057006D01*
X160012344Y-45958385D01*
X159977558Y-45910505D01*
X159977554Y-45910500D01*
X159849499Y-45782445D01*
X159849494Y-45782441D01*
X159702997Y-45676006D01*
X159702996Y-45676005D01*
X159702994Y-45676004D01*
X159651300Y-45649664D01*
X159541639Y-45593788D01*
X159541636Y-45593787D01*
X159369410Y-45537829D01*
X159190551Y-45509500D01*
X159190546Y-45509500D01*
X158309454Y-45509500D01*
X158309449Y-45509500D01*
X158130589Y-45537829D01*
X157958363Y-45593787D01*
X157958360Y-45593788D01*
X157797002Y-45676006D01*
X157650505Y-45782441D01*
X157650500Y-45782445D01*
X157522445Y-45910500D01*
X157522441Y-45910505D01*
X157416006Y-46057002D01*
X157333788Y-46218360D01*
X157333787Y-46218363D01*
X157277829Y-46390589D01*
X157249500Y-46569448D01*
X157249500Y-46750551D01*
X157277829Y-46929412D01*
X157323703Y-47070601D01*
X157325698Y-47140442D01*
X157293453Y-47196599D01*
X155515145Y-48974907D01*
X155453822Y-49008392D01*
X155384130Y-49003408D01*
X155328197Y-48961536D01*
X155312905Y-48934683D01*
X155281548Y-48858979D01*
X155214317Y-48758360D01*
X155191211Y-48723779D01*
X155191205Y-48723771D01*
X155076228Y-48608794D01*
X155076220Y-48608788D01*
X154941023Y-48518452D01*
X154941019Y-48518450D01*
X154790793Y-48456225D01*
X154790783Y-48456222D01*
X154631307Y-48424500D01*
X154631305Y-48424500D01*
X154468695Y-48424500D01*
X154468693Y-48424500D01*
X154354994Y-48447117D01*
X154330802Y-48449500D01*
X154200894Y-48449500D01*
X154133855Y-48429815D01*
X154100577Y-48398387D01*
X154080104Y-48370208D01*
X153966569Y-48256673D01*
X153933084Y-48195350D01*
X153938068Y-48125658D01*
X153979940Y-48069725D01*
X154010915Y-48052810D01*
X154142331Y-48003796D01*
X154257546Y-47917546D01*
X154343796Y-47802331D01*
X154394091Y-47667483D01*
X154400500Y-47607873D01*
X154400499Y-45812128D01*
X154394091Y-45752517D01*
X154365554Y-45676006D01*
X154343797Y-45617671D01*
X154343793Y-45617664D01*
X154257547Y-45502455D01*
X154257544Y-45502452D01*
X154142335Y-45416206D01*
X154142328Y-45416202D01*
X154007482Y-45365908D01*
X154007483Y-45365908D01*
X153947883Y-45359501D01*
X153947881Y-45359500D01*
X153947873Y-45359500D01*
X153947864Y-45359500D01*
X152152129Y-45359500D01*
X152152123Y-45359501D01*
X152092516Y-45365908D01*
X151957671Y-45416202D01*
X151957664Y-45416206D01*
X151842455Y-45502452D01*
X151842452Y-45502455D01*
X151756206Y-45617664D01*
X151756202Y-45617671D01*
X151705908Y-45752517D01*
X151699501Y-45812116D01*
X151699501Y-45812123D01*
X151699500Y-45812135D01*
X151699500Y-47607870D01*
X151699501Y-47607876D01*
X151705908Y-47667483D01*
X151756202Y-47802328D01*
X151756206Y-47802335D01*
X151842452Y-47917544D01*
X151842455Y-47917547D01*
X151957664Y-48003793D01*
X151957671Y-48003797D01*
X152089082Y-48052810D01*
X152145016Y-48094681D01*
X152169433Y-48160145D01*
X152154582Y-48228418D01*
X152133431Y-48256673D01*
X152019889Y-48370215D01*
X151894951Y-48542179D01*
X151798444Y-48731585D01*
X151732753Y-48933760D01*
X151699500Y-49143713D01*
X151699500Y-49356286D01*
X151717416Y-49469407D01*
X151732754Y-49566243D01*
X151788106Y-49736599D01*
X151798444Y-49768414D01*
X151894951Y-49957820D01*
X152019890Y-50129786D01*
X152170213Y-50280109D01*
X152342182Y-50405050D01*
X152350946Y-50409516D01*
X152401742Y-50457491D01*
X152418536Y-50525312D01*
X152395998Y-50591447D01*
X152350946Y-50630484D01*
X152342182Y-50634949D01*
X152170213Y-50759890D01*
X152019890Y-50910213D01*
X151894951Y-51082179D01*
X151798444Y-51271585D01*
X151732753Y-51473760D01*
X151710385Y-51614986D01*
X151699500Y-51683713D01*
X151699500Y-51896287D01*
X151732754Y-52106243D01*
X151788106Y-52276599D01*
X151798444Y-52308414D01*
X151894951Y-52497820D01*
X152019890Y-52669786D01*
X152170213Y-52820109D01*
X152342182Y-52945050D01*
X152350946Y-52949516D01*
X152401742Y-52997491D01*
X152418536Y-53065312D01*
X152395998Y-53131447D01*
X152350946Y-53170484D01*
X152342182Y-53174949D01*
X152170213Y-53299890D01*
X152019890Y-53450213D01*
X151894951Y-53622179D01*
X151798444Y-53811585D01*
X151732753Y-54013760D01*
X151699500Y-54223713D01*
X151699500Y-54436286D01*
X151717416Y-54549407D01*
X151732754Y-54646243D01*
X151788106Y-54816599D01*
X151798444Y-54848414D01*
X151894951Y-55037820D01*
X152019890Y-55209786D01*
X152170213Y-55360109D01*
X152342182Y-55485050D01*
X152350946Y-55489516D01*
X152401742Y-55537491D01*
X152418536Y-55605312D01*
X152395998Y-55671447D01*
X152350946Y-55710484D01*
X152342182Y-55714949D01*
X152170213Y-55839890D01*
X152019890Y-55990213D01*
X151894951Y-56162179D01*
X151798444Y-56351585D01*
X151732753Y-56553760D01*
X151699500Y-56763713D01*
X151699500Y-56976286D01*
X151717416Y-57089407D01*
X151732754Y-57186243D01*
X151788106Y-57356599D01*
X151798444Y-57388414D01*
X151894951Y-57577820D01*
X152019890Y-57749786D01*
X152170213Y-57900109D01*
X152342182Y-58025050D01*
X152350946Y-58029516D01*
X152401742Y-58077491D01*
X152418536Y-58145312D01*
X152395998Y-58211447D01*
X152350946Y-58250484D01*
X152342182Y-58254949D01*
X152170213Y-58379890D01*
X152019890Y-58530213D01*
X151894951Y-58702179D01*
X151798444Y-58891585D01*
X151732753Y-59093760D01*
X151710385Y-59234986D01*
X151699500Y-59303713D01*
X151699500Y-59516287D01*
X151732754Y-59726243D01*
X151780119Y-59872018D01*
X151798444Y-59928414D01*
X151894951Y-60117820D01*
X152019890Y-60289786D01*
X152170213Y-60440109D01*
X152342182Y-60565050D01*
X152350946Y-60569516D01*
X152401742Y-60617491D01*
X152418536Y-60685312D01*
X152395998Y-60751447D01*
X152350946Y-60790484D01*
X152342182Y-60794949D01*
X152170213Y-60919890D01*
X152019890Y-61070213D01*
X151894951Y-61242179D01*
X151798444Y-61431585D01*
X151798443Y-61431587D01*
X151798443Y-61431588D01*
X151789744Y-61458360D01*
X151732753Y-61633760D01*
X151699500Y-61843713D01*
X151699500Y-62056286D01*
X151717398Y-62169293D01*
X151732754Y-62266243D01*
X151777928Y-62405275D01*
X151798444Y-62468414D01*
X151894951Y-62657820D01*
X152019890Y-62829786D01*
X152170213Y-62980109D01*
X152342182Y-63105050D01*
X152350946Y-63109516D01*
X152401742Y-63157491D01*
X152418536Y-63225312D01*
X152395998Y-63291447D01*
X152350946Y-63330484D01*
X152342182Y-63334949D01*
X152170213Y-63459890D01*
X152019890Y-63610213D01*
X151894951Y-63782179D01*
X151798444Y-63971585D01*
X151732753Y-64173760D01*
X151706173Y-64341581D01*
X151699500Y-64383713D01*
X151699500Y-64596287D01*
X151732754Y-64806243D01*
X151791386Y-64986694D01*
X151798444Y-65008414D01*
X151894951Y-65197820D01*
X152019890Y-65369786D01*
X152170213Y-65520109D01*
X152342182Y-65645050D01*
X152350946Y-65649516D01*
X152401742Y-65697491D01*
X152418536Y-65765312D01*
X152395998Y-65831447D01*
X152350946Y-65870484D01*
X152342182Y-65874949D01*
X152170213Y-65999890D01*
X152019890Y-66150213D01*
X151894951Y-66322179D01*
X151798444Y-66511585D01*
X151732753Y-66713760D01*
X151699500Y-66923713D01*
X151699500Y-67136286D01*
X151725350Y-67299500D01*
X151732754Y-67346243D01*
X151794213Y-67535394D01*
X151798444Y-67548414D01*
X151894951Y-67737820D01*
X152019890Y-67909786D01*
X152170213Y-68060109D01*
X152342182Y-68185050D01*
X152350946Y-68189516D01*
X152401742Y-68237491D01*
X152418536Y-68305312D01*
X152395998Y-68371447D01*
X152350946Y-68410484D01*
X152342182Y-68414949D01*
X152170213Y-68539890D01*
X152019890Y-68690213D01*
X151894951Y-68862179D01*
X151798444Y-69051585D01*
X151732753Y-69253760D01*
X151699500Y-69463713D01*
X151699500Y-69676286D01*
X151730814Y-69873999D01*
X151732754Y-69886243D01*
X151797555Y-70085680D01*
X151798444Y-70088414D01*
X151894951Y-70277820D01*
X152019890Y-70449786D01*
X152170213Y-70600109D01*
X152342179Y-70725048D01*
X152342181Y-70725049D01*
X152342184Y-70725051D01*
X152351493Y-70729794D01*
X152402290Y-70777766D01*
X152419087Y-70845587D01*
X152396552Y-70911722D01*
X152351505Y-70950760D01*
X152342446Y-70955376D01*
X152342440Y-70955380D01*
X152288282Y-70994727D01*
X152288282Y-70994728D01*
X152920591Y-71627037D01*
X152857007Y-71644075D01*
X152742993Y-71709901D01*
X152649901Y-71802993D01*
X152584075Y-71917007D01*
X152567037Y-71980591D01*
X151934728Y-71348282D01*
X151934727Y-71348282D01*
X151895380Y-71402439D01*
X151798904Y-71591782D01*
X151733242Y-71793869D01*
X151733242Y-71793872D01*
X151700000Y-72003753D01*
X151700000Y-72216246D01*
X151733242Y-72426127D01*
X151733242Y-72426130D01*
X151798904Y-72628217D01*
X151895375Y-72817550D01*
X151934728Y-72871716D01*
X152567037Y-72239408D01*
X152584075Y-72302993D01*
X152649901Y-72417007D01*
X152742993Y-72510099D01*
X152857007Y-72575925D01*
X152920590Y-72592962D01*
X152288282Y-73225269D01*
X152288282Y-73225270D01*
X152342449Y-73264624D01*
X152531782Y-73361095D01*
X152733870Y-73426757D01*
X152943754Y-73460000D01*
X153156246Y-73460000D01*
X153366127Y-73426757D01*
X153366130Y-73426757D01*
X153568217Y-73361095D01*
X153757554Y-73264622D01*
X153811716Y-73225270D01*
X153811717Y-73225270D01*
X153179408Y-72592962D01*
X153242993Y-72575925D01*
X153357007Y-72510099D01*
X153450099Y-72417007D01*
X153515925Y-72302993D01*
X153532962Y-72239408D01*
X154165270Y-72871717D01*
X154165270Y-72871716D01*
X154204622Y-72817554D01*
X154301095Y-72628217D01*
X154366757Y-72426130D01*
X154366757Y-72426127D01*
X154400000Y-72216246D01*
X154400000Y-72003753D01*
X154366757Y-71793872D01*
X154366757Y-71793869D01*
X154301095Y-71591782D01*
X154204624Y-71402449D01*
X154165270Y-71348282D01*
X154165269Y-71348282D01*
X153532962Y-71980590D01*
X153515925Y-71917007D01*
X153450099Y-71802993D01*
X153357007Y-71709901D01*
X153242993Y-71644075D01*
X153179409Y-71627037D01*
X153811716Y-70994728D01*
X153757547Y-70955373D01*
X153757547Y-70955372D01*
X153748500Y-70950763D01*
X153697706Y-70902788D01*
X153680912Y-70834966D01*
X153703451Y-70768832D01*
X153748508Y-70729793D01*
X153757816Y-70725051D01*
X153837007Y-70667515D01*
X153929786Y-70600109D01*
X153929788Y-70600106D01*
X153929792Y-70600104D01*
X154080104Y-70449792D01*
X154080106Y-70449788D01*
X154080109Y-70449786D01*
X154205048Y-70277820D01*
X154205047Y-70277820D01*
X154205051Y-70277816D01*
X154301557Y-70088412D01*
X154367246Y-69886243D01*
X154400500Y-69676287D01*
X154400500Y-69463713D01*
X154367246Y-69253757D01*
X154301557Y-69051588D01*
X154205051Y-68862184D01*
X154205049Y-68862181D01*
X154205048Y-68862179D01*
X154080109Y-68690213D01*
X153929786Y-68539890D01*
X153757820Y-68414951D01*
X153757115Y-68414591D01*
X153749054Y-68410485D01*
X153698259Y-68362512D01*
X153681463Y-68294692D01*
X153703999Y-68228556D01*
X153749054Y-68189515D01*
X153757816Y-68185051D01*
X153779789Y-68169086D01*
X153929786Y-68060109D01*
X153929788Y-68060106D01*
X153929792Y-68060104D01*
X154080104Y-67909792D01*
X154080106Y-67909788D01*
X154080109Y-67909786D01*
X154205048Y-67737820D01*
X154205047Y-67737820D01*
X154205051Y-67737816D01*
X154301557Y-67548412D01*
X154367246Y-67346243D01*
X154400500Y-67136287D01*
X154400500Y-66923713D01*
X154367246Y-66713757D01*
X154301557Y-66511588D01*
X154205051Y-66322184D01*
X154205049Y-66322181D01*
X154205048Y-66322179D01*
X154080109Y-66150213D01*
X153929786Y-65999890D01*
X153757820Y-65874951D01*
X153757115Y-65874591D01*
X153749054Y-65870485D01*
X153698259Y-65822512D01*
X153681463Y-65754692D01*
X153703999Y-65688556D01*
X153749054Y-65649515D01*
X153757816Y-65645051D01*
X153834835Y-65589094D01*
X153929786Y-65520109D01*
X153929788Y-65520106D01*
X153929792Y-65520104D01*
X154080104Y-65369792D01*
X154080106Y-65369788D01*
X154080109Y-65369786D01*
X154205048Y-65197820D01*
X154205047Y-65197820D01*
X154205051Y-65197816D01*
X154301557Y-65008412D01*
X154367246Y-64806243D01*
X154400500Y-64596287D01*
X154400500Y-64383713D01*
X154367246Y-64173757D01*
X154301557Y-63971588D01*
X154205051Y-63782184D01*
X154205049Y-63782181D01*
X154205048Y-63782179D01*
X154080109Y-63610213D01*
X153929786Y-63459890D01*
X153757820Y-63334951D01*
X153757115Y-63334591D01*
X153749054Y-63330485D01*
X153698259Y-63282512D01*
X153681463Y-63214692D01*
X153703999Y-63148556D01*
X153749054Y-63109515D01*
X153757816Y-63105051D01*
X153837341Y-63047273D01*
X153929786Y-62980109D01*
X153929788Y-62980106D01*
X153929792Y-62980104D01*
X154080104Y-62829792D01*
X154080106Y-62829788D01*
X154080109Y-62829786D01*
X154207915Y-62653875D01*
X154209259Y-62654851D01*
X154255705Y-62612834D01*
X154309618Y-62600500D01*
X154929192Y-62600500D01*
X154996231Y-62620185D01*
X155016873Y-62636819D01*
X157325325Y-64945272D01*
X157325328Y-64945275D01*
X157360413Y-64968718D01*
X157402006Y-65015524D01*
X157416000Y-65042988D01*
X157416005Y-65042997D01*
X157522441Y-65189494D01*
X157522445Y-65189499D01*
X157650500Y-65317554D01*
X157650505Y-65317558D01*
X157722392Y-65369786D01*
X157797006Y-65423996D01*
X157902484Y-65477740D01*
X157958360Y-65506211D01*
X157958363Y-65506212D01*
X158001135Y-65520109D01*
X158130591Y-65562171D01*
X158213429Y-65575291D01*
X158309449Y-65590500D01*
X158309454Y-65590500D01*
X159190551Y-65590500D01*
X159277259Y-65576765D01*
X159369409Y-65562171D01*
X159541639Y-65506211D01*
X159702994Y-65423996D01*
X159849501Y-65317553D01*
X159977553Y-65189501D01*
X160083996Y-65042994D01*
X160166211Y-64881639D01*
X160222171Y-64709409D01*
X160248025Y-64546174D01*
X160250500Y-64530551D01*
X160250500Y-64349448D01*
X160227781Y-64206014D01*
X160222171Y-64170591D01*
X160166211Y-63998361D01*
X160166211Y-63998360D01*
X160137740Y-63942484D01*
X160083996Y-63837006D01*
X160044162Y-63782179D01*
X159977558Y-63690505D01*
X159977554Y-63690500D01*
X159849499Y-63562445D01*
X159849494Y-63562441D01*
X159702997Y-63456006D01*
X159702996Y-63456005D01*
X159702994Y-63456004D01*
X159651300Y-63429664D01*
X159541639Y-63373788D01*
X159541636Y-63373787D01*
X159369410Y-63317829D01*
X159209321Y-63292473D01*
X159146186Y-63262544D01*
X159109255Y-63203232D01*
X159110253Y-63133370D01*
X159148863Y-63075137D01*
X159209321Y-63047527D01*
X159279425Y-63036422D01*
X159369409Y-63022171D01*
X159541639Y-62966211D01*
X159702994Y-62883996D01*
X159849501Y-62777553D01*
X159977553Y-62649501D01*
X160083996Y-62502994D01*
X160166211Y-62341639D01*
X160222171Y-62169409D01*
X160240388Y-62054394D01*
X160250500Y-61990551D01*
X160250500Y-61809448D01*
X160225941Y-61654394D01*
X160222171Y-61630591D01*
X160179740Y-61500000D01*
X160166212Y-61458363D01*
X160166211Y-61458360D01*
X160137740Y-61402484D01*
X160083996Y-61297006D01*
X160044162Y-61242179D01*
X159977558Y-61150505D01*
X159977554Y-61150500D01*
X159849499Y-61022445D01*
X159849494Y-61022441D01*
X159702997Y-60916006D01*
X159702996Y-60916005D01*
X159702994Y-60916004D01*
X159651300Y-60889664D01*
X159541639Y-60833788D01*
X159541636Y-60833787D01*
X159369410Y-60777829D01*
X159209321Y-60752473D01*
X159146186Y-60722544D01*
X159109255Y-60663232D01*
X159110253Y-60593370D01*
X159148863Y-60535137D01*
X159209321Y-60507527D01*
X159279425Y-60496422D01*
X159369409Y-60482171D01*
X159541639Y-60426211D01*
X159702994Y-60343996D01*
X159849501Y-60237553D01*
X159977553Y-60109501D01*
X160083996Y-59962994D01*
X160166211Y-59801639D01*
X160222171Y-59629409D01*
X160241156Y-59509539D01*
X160271085Y-59446405D01*
X160330396Y-59409473D01*
X160400259Y-59410471D01*
X160451310Y-59441256D01*
X162283181Y-61273127D01*
X162316666Y-61334450D01*
X162319500Y-61360808D01*
X162319500Y-71090382D01*
X162299815Y-71157421D01*
X162265408Y-71191099D01*
X162266125Y-71192085D01*
X162090215Y-71319889D01*
X161976673Y-71433431D01*
X161915350Y-71466915D01*
X161845658Y-71461931D01*
X161789725Y-71420059D01*
X161772810Y-71389082D01*
X161723796Y-71257669D01*
X161723793Y-71257664D01*
X161637547Y-71142455D01*
X161637544Y-71142452D01*
X161522335Y-71056206D01*
X161522328Y-71056202D01*
X161387483Y-71005908D01*
X161361242Y-71003087D01*
X161296691Y-70976348D01*
X161256845Y-70918954D01*
X161250500Y-70879798D01*
X161250500Y-69571155D01*
X161250499Y-69571153D01*
X161232696Y-69481654D01*
X161219737Y-69416503D01*
X161195373Y-69357683D01*
X161159397Y-69270827D01*
X161159390Y-69270814D01*
X161071789Y-69139711D01*
X161071786Y-69139707D01*
X160960292Y-69028213D01*
X160960288Y-69028210D01*
X160829185Y-68940609D01*
X160829172Y-68940602D01*
X160683501Y-68880264D01*
X160683489Y-68880261D01*
X160528845Y-68849500D01*
X160528842Y-68849500D01*
X160371158Y-68849500D01*
X160371155Y-68849500D01*
X160216510Y-68880261D01*
X160216498Y-68880264D01*
X160070827Y-68940602D01*
X160070814Y-68940609D01*
X159939711Y-69028210D01*
X159939707Y-69028213D01*
X159828213Y-69139707D01*
X159828210Y-69139711D01*
X159740609Y-69270814D01*
X159740602Y-69270827D01*
X159680264Y-69416498D01*
X159680261Y-69416510D01*
X159649500Y-69571153D01*
X159649500Y-70875678D01*
X159629815Y-70942717D01*
X159577011Y-70988472D01*
X159535381Y-70998702D01*
X159535429Y-70999146D01*
X159532134Y-70999500D01*
X159532131Y-70999500D01*
X159532128Y-70999501D01*
X159532122Y-70999501D01*
X159472516Y-71005908D01*
X159337671Y-71056202D01*
X159337664Y-71056206D01*
X159222455Y-71142452D01*
X159222452Y-71142455D01*
X159136206Y-71257664D01*
X159136204Y-71257669D01*
X159085908Y-71392517D01*
X159079501Y-71452116D01*
X159079500Y-71452135D01*
X159079500Y-73247870D01*
X159079501Y-73247876D01*
X159085908Y-73307483D01*
X159136202Y-73442328D01*
X159136206Y-73442335D01*
X159222452Y-73557544D01*
X159222455Y-73557547D01*
X159337664Y-73643793D01*
X159337671Y-73643797D01*
X159472517Y-73694091D01*
X159472516Y-73694091D01*
X159479444Y-73694835D01*
X159532127Y-73700500D01*
X161327872Y-73700499D01*
X161387483Y-73694091D01*
X161522331Y-73643796D01*
X161637546Y-73557546D01*
X161723796Y-73442331D01*
X161772810Y-73310916D01*
X161814681Y-73254984D01*
X161880145Y-73230566D01*
X161948418Y-73245417D01*
X161976673Y-73266569D01*
X162090213Y-73380109D01*
X162262179Y-73505048D01*
X162262181Y-73505049D01*
X162262184Y-73505051D01*
X162451588Y-73601557D01*
X162653757Y-73667246D01*
X162863713Y-73700500D01*
X162863714Y-73700500D01*
X163076286Y-73700500D01*
X163076287Y-73700500D01*
X163286243Y-73667246D01*
X163488412Y-73601557D01*
X163677816Y-73505051D01*
X163764138Y-73442335D01*
X163849786Y-73380109D01*
X163849788Y-73380106D01*
X163849792Y-73380104D01*
X164000104Y-73229792D01*
X164000106Y-73229788D01*
X164000109Y-73229786D01*
X164125048Y-73057820D01*
X164125047Y-73057820D01*
X164125051Y-73057816D01*
X164129514Y-73049054D01*
X164177488Y-72998259D01*
X164245308Y-72981463D01*
X164311444Y-73003999D01*
X164350486Y-73049056D01*
X164354951Y-73057820D01*
X164479890Y-73229786D01*
X164630213Y-73380109D01*
X164802179Y-73505048D01*
X164802181Y-73505049D01*
X164802184Y-73505051D01*
X164991588Y-73601557D01*
X165193757Y-73667246D01*
X165403713Y-73700500D01*
X165403714Y-73700500D01*
X165616286Y-73700500D01*
X165616287Y-73700500D01*
X165826243Y-73667246D01*
X166028412Y-73601557D01*
X166217816Y-73505051D01*
X166304138Y-73442335D01*
X166389786Y-73380109D01*
X166389788Y-73380106D01*
X166389792Y-73380104D01*
X166540104Y-73229792D01*
X166540106Y-73229788D01*
X166540109Y-73229786D01*
X166665048Y-73057820D01*
X166665047Y-73057820D01*
X166665051Y-73057816D01*
X166669514Y-73049054D01*
X166717488Y-72998259D01*
X166785308Y-72981463D01*
X166851444Y-73003999D01*
X166890486Y-73049056D01*
X166894951Y-73057820D01*
X167019890Y-73229786D01*
X167170213Y-73380109D01*
X167342179Y-73505048D01*
X167342181Y-73505049D01*
X167342184Y-73505051D01*
X167531588Y-73601557D01*
X167733757Y-73667246D01*
X167943713Y-73700500D01*
X167943714Y-73700500D01*
X168156286Y-73700500D01*
X168156287Y-73700500D01*
X168366243Y-73667246D01*
X168568412Y-73601557D01*
X168757816Y-73505051D01*
X168844138Y-73442335D01*
X168929786Y-73380109D01*
X168929788Y-73380106D01*
X168929792Y-73380104D01*
X169080104Y-73229792D01*
X169080106Y-73229788D01*
X169080109Y-73229786D01*
X169165890Y-73111717D01*
X169205051Y-73057816D01*
X169209793Y-73048508D01*
X169257763Y-72997711D01*
X169325583Y-72980911D01*
X169391719Y-73003445D01*
X169430763Y-73048500D01*
X169435373Y-73057547D01*
X169474728Y-73111716D01*
X170107037Y-72479408D01*
X170124075Y-72542993D01*
X170189901Y-72657007D01*
X170282993Y-72750099D01*
X170397007Y-72815925D01*
X170460590Y-72832962D01*
X169828282Y-73465269D01*
X169828282Y-73465270D01*
X169882449Y-73504624D01*
X170071782Y-73601095D01*
X170273870Y-73666757D01*
X170483754Y-73700000D01*
X170696246Y-73700000D01*
X170906127Y-73666757D01*
X170906130Y-73666757D01*
X171108217Y-73601095D01*
X171297554Y-73504622D01*
X171351716Y-73465270D01*
X171351717Y-73465270D01*
X170719408Y-72832962D01*
X170782993Y-72815925D01*
X170897007Y-72750099D01*
X170990099Y-72657007D01*
X171055925Y-72542993D01*
X171072962Y-72479408D01*
X171705270Y-73111717D01*
X171705270Y-73111716D01*
X171744622Y-73057554D01*
X171841095Y-72868217D01*
X171906757Y-72666130D01*
X171906757Y-72666127D01*
X171940000Y-72456246D01*
X171940000Y-72243753D01*
X171906757Y-72033872D01*
X171906757Y-72033869D01*
X171841095Y-71831782D01*
X171744624Y-71642449D01*
X171705270Y-71588282D01*
X171705269Y-71588282D01*
X171072962Y-72220590D01*
X171055925Y-72157007D01*
X170990099Y-72042993D01*
X170897007Y-71949901D01*
X170782993Y-71884075D01*
X170719408Y-71867037D01*
X171351716Y-71234728D01*
X171297550Y-71195375D01*
X171108217Y-71098904D01*
X170906129Y-71033242D01*
X170696246Y-71000000D01*
X170483754Y-71000000D01*
X170273872Y-71033242D01*
X170273869Y-71033242D01*
X170071782Y-71098904D01*
X169882446Y-71195376D01*
X169797385Y-71257177D01*
X169731578Y-71280656D01*
X169663525Y-71264830D01*
X169614830Y-71214724D01*
X169600500Y-71156858D01*
X169600500Y-70536488D01*
X169611218Y-70499986D01*
X172725001Y-70499986D01*
X172735494Y-70602697D01*
X172790641Y-70769119D01*
X172790643Y-70769124D01*
X172882684Y-70918345D01*
X173006654Y-71042315D01*
X173155875Y-71134356D01*
X173155880Y-71134358D01*
X173322302Y-71189505D01*
X173322309Y-71189506D01*
X173425019Y-71199999D01*
X173699999Y-71199999D01*
X173700000Y-71199998D01*
X173700000Y-70450000D01*
X172725001Y-70450000D01*
X172725001Y-70499986D01*
X169611218Y-70499986D01*
X169620185Y-70469449D01*
X169638404Y-70447249D01*
X169648423Y-70437581D01*
X169660185Y-70430472D01*
X169780472Y-70310185D01*
X169868478Y-70164606D01*
X169919086Y-70002196D01*
X169925500Y-69931616D01*
X169925500Y-69418384D01*
X169919086Y-69347804D01*
X169868478Y-69185394D01*
X169780472Y-69039815D01*
X169780470Y-69039813D01*
X169780469Y-69039811D01*
X169678339Y-68937681D01*
X169644854Y-68876358D01*
X169649838Y-68806666D01*
X169678339Y-68762319D01*
X169780468Y-68660189D01*
X169780469Y-68660188D01*
X169780472Y-68660185D01*
X169868478Y-68514606D01*
X169919086Y-68352196D01*
X169925500Y-68281616D01*
X169925500Y-67768384D01*
X169919086Y-67697804D01*
X169868478Y-67535394D01*
X169780472Y-67389815D01*
X169780470Y-67389813D01*
X169780469Y-67389811D01*
X169660188Y-67269530D01*
X169654282Y-67264903D01*
X169655083Y-67263879D01*
X169613158Y-67218090D01*
X169600500Y-67163510D01*
X169600500Y-61804783D01*
X169606737Y-61783541D01*
X169608315Y-61761458D01*
X169616389Y-61750670D01*
X169620185Y-61737744D01*
X169636915Y-61723247D01*
X169650183Y-61705521D01*
X169662807Y-61700811D01*
X169672989Y-61691989D01*
X169694902Y-61688838D01*
X169715645Y-61681100D01*
X169728809Y-61683962D01*
X169742147Y-61682045D01*
X169762288Y-61691243D01*
X169783919Y-61695947D01*
X169801649Y-61709218D01*
X169805703Y-61711070D01*
X169812175Y-61717096D01*
X169819283Y-61724203D01*
X172413181Y-64318101D01*
X172446666Y-64379424D01*
X172449500Y-64405782D01*
X172449500Y-64530551D01*
X172477829Y-64709410D01*
X172533787Y-64881636D01*
X172533788Y-64881639D01*
X172589664Y-64991300D01*
X172604371Y-65020164D01*
X172616006Y-65042997D01*
X172722441Y-65189494D01*
X172722445Y-65189499D01*
X172850502Y-65317556D01*
X172898384Y-65352343D01*
X172941050Y-65407672D01*
X172949500Y-65452662D01*
X172949500Y-67462770D01*
X172929815Y-67529809D01*
X172913181Y-67550451D01*
X172882289Y-67581342D01*
X172790187Y-67730663D01*
X172790185Y-67730668D01*
X172787815Y-67737820D01*
X172735001Y-67897203D01*
X172735001Y-67897204D01*
X172735000Y-67897204D01*
X172724500Y-67999983D01*
X172724500Y-68600001D01*
X172724501Y-68600019D01*
X172735000Y-68702796D01*
X172735001Y-68702799D01*
X172790185Y-68869331D01*
X172790187Y-68869336D01*
X172804989Y-68893334D01*
X172882288Y-69018656D01*
X173006344Y-69142712D01*
X173009628Y-69144737D01*
X173009653Y-69144753D01*
X173011445Y-69146746D01*
X173012011Y-69147193D01*
X173011934Y-69147289D01*
X173056379Y-69196699D01*
X173067603Y-69265661D01*
X173039761Y-69329744D01*
X173009665Y-69355826D01*
X173006660Y-69357679D01*
X173006655Y-69357683D01*
X172882684Y-69481654D01*
X172790643Y-69630875D01*
X172790641Y-69630880D01*
X172735494Y-69797302D01*
X172735493Y-69797309D01*
X172725000Y-69900013D01*
X172725000Y-69950000D01*
X173826000Y-69950000D01*
X173893039Y-69969685D01*
X173938794Y-70022489D01*
X173950000Y-70074000D01*
X173950000Y-70200000D01*
X174076000Y-70200000D01*
X174143039Y-70219685D01*
X174188794Y-70272489D01*
X174200000Y-70324000D01*
X174200000Y-71199999D01*
X174474972Y-71199999D01*
X174474986Y-71199998D01*
X174577697Y-71189505D01*
X174744119Y-71134358D01*
X174744126Y-71134355D01*
X174760402Y-71124316D01*
X174827794Y-71105875D01*
X174894458Y-71126797D01*
X174939228Y-71180438D01*
X174949500Y-71229854D01*
X174949500Y-80384217D01*
X174929815Y-80451256D01*
X174913181Y-80471898D01*
X172446899Y-82938181D01*
X172385576Y-82971666D01*
X172359218Y-82974500D01*
X168530303Y-82974500D01*
X168463264Y-82954815D01*
X168417509Y-82902011D01*
X168406307Y-82849458D01*
X168450000Y-77650000D01*
X151750000Y-77650000D01*
X151750000Y-89550000D01*
X154025500Y-89550000D01*
X154092539Y-89569685D01*
X154138294Y-89622489D01*
X154149500Y-89674000D01*
X154149500Y-90028846D01*
X154180261Y-90183489D01*
X154180264Y-90183501D01*
X154240602Y-90329172D01*
X154240609Y-90329185D01*
X154328210Y-90460288D01*
X154328213Y-90460292D01*
X154363180Y-90495258D01*
X154396666Y-90556580D01*
X154399500Y-90582940D01*
X154399500Y-92111267D01*
X154379815Y-92178306D01*
X154327011Y-92224061D01*
X154314506Y-92228972D01*
X154280671Y-92240184D01*
X154280663Y-92240187D01*
X154131342Y-92332289D01*
X154007289Y-92456342D01*
X153911551Y-92611559D01*
X153859603Y-92658283D01*
X153790640Y-92669506D01*
X153726558Y-92641662D01*
X153718331Y-92634143D01*
X153579464Y-92495276D01*
X153579459Y-92495272D01*
X153407557Y-92370379D01*
X153218215Y-92273903D01*
X153016124Y-92208241D01*
X152950000Y-92197768D01*
X152950000Y-93241988D01*
X152892993Y-93209075D01*
X152765826Y-93175000D01*
X152634174Y-93175000D01*
X152507007Y-93209075D01*
X152450000Y-93241988D01*
X152450000Y-92197768D01*
X152449999Y-92197768D01*
X152383875Y-92208241D01*
X152181784Y-92273903D01*
X151992442Y-92370379D01*
X151820540Y-92495272D01*
X151820535Y-92495276D01*
X151670276Y-92645535D01*
X151670272Y-92645540D01*
X151545379Y-92817442D01*
X151448904Y-93006782D01*
X151383242Y-93208869D01*
X151383242Y-93208872D01*
X151350000Y-93418753D01*
X149500500Y-93418753D01*
X149500500Y-42974500D01*
X149520185Y-42907461D01*
X149572989Y-42861706D01*
X149624500Y-42850500D01*
X198225500Y-42850500D01*
X198292539Y-42870185D01*
G37*
%TD.AperFunction*%
%TD*%
M02*
