%TF.GenerationSoftware,KiCad,Pcbnew,9.0.7*%
%TF.CreationDate,2026-02-24T20:16:30+00:00*%
%TF.ProjectId,AD5M,4144354d-2e6b-4696-9361-645f70636258,rev?*%
%TF.SameCoordinates,Original*%
%TF.FileFunction,Drillmap*%
%TF.FilePolarity,Positive*%
%FSLAX45Y45*%
G04 Gerber Fmt 4.5, Leading zero omitted, Abs format (unit mm)*
G04 Created by KiCad (PCBNEW 9.0.7) date 2026-02-24 20:16:30*
%MOMM*%
%LPD*%
G01*
G04 APERTURE LIST*
%ADD10C,0.200000*%
G04 APERTURE END LIST*
D10*
X14895000Y-4225000D02*
X19895000Y-4225000D01*
X19895000Y-9725000D01*
X14895000Y-9725000D01*
X14895000Y-4225000D01*
X15145777Y-10046484D02*
X15145777Y-9846484D01*
X15145777Y-9846484D02*
X15193396Y-9846484D01*
X15193396Y-9846484D02*
X15221967Y-9856008D01*
X15221967Y-9856008D02*
X15241015Y-9875055D01*
X15241015Y-9875055D02*
X15250539Y-9894103D01*
X15250539Y-9894103D02*
X15260062Y-9932198D01*
X15260062Y-9932198D02*
X15260062Y-9960770D01*
X15260062Y-9960770D02*
X15250539Y-9998865D01*
X15250539Y-9998865D02*
X15241015Y-10017912D01*
X15241015Y-10017912D02*
X15221967Y-10036960D01*
X15221967Y-10036960D02*
X15193396Y-10046484D01*
X15193396Y-10046484D02*
X15145777Y-10046484D01*
X15345777Y-10046484D02*
X15345777Y-9913150D01*
X15345777Y-9951246D02*
X15355301Y-9932198D01*
X15355301Y-9932198D02*
X15364824Y-9922674D01*
X15364824Y-9922674D02*
X15383872Y-9913150D01*
X15383872Y-9913150D02*
X15402920Y-9913150D01*
X15469586Y-10046484D02*
X15469586Y-9913150D01*
X15469586Y-9846484D02*
X15460062Y-9856008D01*
X15460062Y-9856008D02*
X15469586Y-9865531D01*
X15469586Y-9865531D02*
X15479110Y-9856008D01*
X15479110Y-9856008D02*
X15469586Y-9846484D01*
X15469586Y-9846484D02*
X15469586Y-9865531D01*
X15593396Y-10046484D02*
X15574348Y-10036960D01*
X15574348Y-10036960D02*
X15564824Y-10017912D01*
X15564824Y-10017912D02*
X15564824Y-9846484D01*
X15698158Y-10046484D02*
X15679110Y-10036960D01*
X15679110Y-10036960D02*
X15669586Y-10017912D01*
X15669586Y-10017912D02*
X15669586Y-9846484D01*
X15926729Y-10046484D02*
X15926729Y-9846484D01*
X15926729Y-9846484D02*
X15993396Y-9989341D01*
X15993396Y-9989341D02*
X16060062Y-9846484D01*
X16060062Y-9846484D02*
X16060062Y-10046484D01*
X16241015Y-10046484D02*
X16241015Y-9941722D01*
X16241015Y-9941722D02*
X16231491Y-9922674D01*
X16231491Y-9922674D02*
X16212443Y-9913150D01*
X16212443Y-9913150D02*
X16174348Y-9913150D01*
X16174348Y-9913150D02*
X16155301Y-9922674D01*
X16241015Y-10036960D02*
X16221967Y-10046484D01*
X16221967Y-10046484D02*
X16174348Y-10046484D01*
X16174348Y-10046484D02*
X16155301Y-10036960D01*
X16155301Y-10036960D02*
X16145777Y-10017912D01*
X16145777Y-10017912D02*
X16145777Y-9998865D01*
X16145777Y-9998865D02*
X16155301Y-9979817D01*
X16155301Y-9979817D02*
X16174348Y-9970293D01*
X16174348Y-9970293D02*
X16221967Y-9970293D01*
X16221967Y-9970293D02*
X16241015Y-9960770D01*
X16336253Y-9913150D02*
X16336253Y-10113150D01*
X16336253Y-9922674D02*
X16355301Y-9913150D01*
X16355301Y-9913150D02*
X16393396Y-9913150D01*
X16393396Y-9913150D02*
X16412443Y-9922674D01*
X16412443Y-9922674D02*
X16421967Y-9932198D01*
X16421967Y-9932198D02*
X16431491Y-9951246D01*
X16431491Y-9951246D02*
X16431491Y-10008389D01*
X16431491Y-10008389D02*
X16421967Y-10027436D01*
X16421967Y-10027436D02*
X16412443Y-10036960D01*
X16412443Y-10036960D02*
X16393396Y-10046484D01*
X16393396Y-10046484D02*
X16355301Y-10046484D01*
X16355301Y-10046484D02*
X16336253Y-10036960D01*
X16517205Y-10027436D02*
X16526729Y-10036960D01*
X16526729Y-10036960D02*
X16517205Y-10046484D01*
X16517205Y-10046484D02*
X16507682Y-10036960D01*
X16507682Y-10036960D02*
X16517205Y-10027436D01*
X16517205Y-10027436D02*
X16517205Y-10046484D01*
X16517205Y-9922674D02*
X16526729Y-9932198D01*
X16526729Y-9932198D02*
X16517205Y-9941722D01*
X16517205Y-9941722D02*
X16507682Y-9932198D01*
X16507682Y-9932198D02*
X16517205Y-9922674D01*
X16517205Y-9922674D02*
X16517205Y-9941722D01*
M02*
