%TF.GenerationSoftware,KiCad,Pcbnew,9.0.7*%
%TF.CreationDate,2026-02-24T20:15:18+00:00*%
%TF.ProjectId,AD5M,4144354d-2e6b-4696-9361-645f70636258,rev?*%
%TF.SameCoordinates,Original*%
%TF.FileFunction,Legend,Top*%
%TF.FilePolarity,Positive*%
%FSLAX46Y46*%
G04 Gerber Fmt 4.6, Leading zero omitted, Abs format (unit mm)*
G04 Created by KiCad (PCBNEW 9.0.7) date 2026-02-24 20:15:18*
%MOMM*%
%LPD*%
G01*
G04 APERTURE LIST*
G04 Aperture macros list*
%AMRoundRect*
0 Rectangle with rounded corners*
0 $1 Rounding radius*
0 $2 $3 $4 $5 $6 $7 $8 $9 X,Y pos of 4 corners*
0 Add a 4 corners polygon primitive as box body*
4,1,4,$2,$3,$4,$5,$6,$7,$8,$9,$2,$3,0*
0 Add four circle primitives for the rounded corners*
1,1,$1+$1,$2,$3*
1,1,$1+$1,$4,$5*
1,1,$1+$1,$6,$7*
1,1,$1+$1,$8,$9*
0 Add four rect primitives between the rounded corners*
20,1,$1+$1,$2,$3,$4,$5,0*
20,1,$1+$1,$4,$5,$6,$7,0*
20,1,$1+$1,$6,$7,$8,$9,0*
20,1,$1+$1,$8,$9,$2,$3,0*%
G04 Aperture macros list end*
%ADD10C,0.153000*%
%ADD11C,0.200000*%
%ADD12C,0.120000*%
%ADD13C,0.100000*%
%ADD14C,0.550000*%
%ADD15R,1.700000X1.700000*%
%ADD16C,1.700000*%
%ADD17C,1.500000*%
%ADD18RoundRect,0.200000X0.275000X-0.200000X0.275000X0.200000X-0.275000X0.200000X-0.275000X-0.200000X0*%
%ADD19RoundRect,0.250000X0.600000X0.750000X-0.600000X0.750000X-0.600000X-0.750000X0.600000X-0.750000X0*%
%ADD20O,1.700000X2.000000*%
%ADD21RoundRect,0.225000X0.375000X-0.225000X0.375000X0.225000X-0.375000X0.225000X-0.375000X-0.225000X0*%
%ADD22RoundRect,0.250000X0.250000X0.475000X-0.250000X0.475000X-0.250000X-0.475000X0.250000X-0.475000X0*%
%ADD23RoundRect,0.250000X0.325000X0.650000X-0.325000X0.650000X-0.325000X-0.650000X0.325000X-0.650000X0*%
%ADD24RoundRect,0.250000X-0.475000X0.250000X-0.475000X-0.250000X0.475000X-0.250000X0.475000X0.250000X0*%
%ADD25R,3.700000X1.100000*%
%ADD26RoundRect,0.225000X0.225000X0.250000X-0.225000X0.250000X-0.225000X-0.250000X0.225000X-0.250000X0*%
%ADD27O,2.000000X1.300000*%
%ADD28RoundRect,0.150000X0.512500X0.150000X-0.512500X0.150000X-0.512500X-0.150000X0.512500X-0.150000X0*%
G04 APERTURE END LIST*
D10*
X171145895Y-94019663D02*
X171479228Y-95019663D01*
X171479228Y-95019663D02*
X171812561Y-94019663D01*
X172669704Y-95019663D02*
X172098276Y-95019663D01*
X172383990Y-95019663D02*
X172383990Y-94019663D01*
X172383990Y-94019663D02*
X172288752Y-94162520D01*
X172288752Y-94162520D02*
X172193514Y-94257758D01*
X172193514Y-94257758D02*
X172098276Y-94305377D01*
X173098276Y-94924424D02*
X173145895Y-94972044D01*
X173145895Y-94972044D02*
X173098276Y-95019663D01*
X173098276Y-95019663D02*
X173050657Y-94972044D01*
X173050657Y-94972044D02*
X173098276Y-94924424D01*
X173098276Y-94924424D02*
X173098276Y-95019663D01*
X173764942Y-94019663D02*
X173860180Y-94019663D01*
X173860180Y-94019663D02*
X173955418Y-94067282D01*
X173955418Y-94067282D02*
X174003037Y-94114901D01*
X174003037Y-94114901D02*
X174050656Y-94210139D01*
X174050656Y-94210139D02*
X174098275Y-94400615D01*
X174098275Y-94400615D02*
X174098275Y-94638710D01*
X174098275Y-94638710D02*
X174050656Y-94829186D01*
X174050656Y-94829186D02*
X174003037Y-94924424D01*
X174003037Y-94924424D02*
X173955418Y-94972044D01*
X173955418Y-94972044D02*
X173860180Y-95019663D01*
X173860180Y-95019663D02*
X173764942Y-95019663D01*
X173764942Y-95019663D02*
X173669704Y-94972044D01*
X173669704Y-94972044D02*
X173622085Y-94924424D01*
X173622085Y-94924424D02*
X173574466Y-94829186D01*
X173574466Y-94829186D02*
X173526847Y-94638710D01*
X173526847Y-94638710D02*
X173526847Y-94400615D01*
X173526847Y-94400615D02*
X173574466Y-94210139D01*
X173574466Y-94210139D02*
X173622085Y-94114901D01*
X173622085Y-94114901D02*
X173669704Y-94067282D01*
X173669704Y-94067282D02*
X173764942Y-94019663D01*
D11*
X193566336Y-89477332D02*
X193569153Y-89473567D01*
X193564810Y-89487651D02*
X193565183Y-89480703D01*
X193565376Y-89502102D02*
X193564909Y-89492925D01*
X193565377Y-89519022D02*
X193565618Y-89508603D01*
X193563026Y-89537139D02*
X193564856Y-89526147D01*
X193557937Y-89555898D02*
X193561380Y-89544558D01*
X193550753Y-89575313D02*
X193555311Y-89563550D01*
X193542537Y-89595686D02*
X193547549Y-89583295D01*
X193534157Y-89617322D02*
X193539173Y-89604136D01*
X193525840Y-89640322D02*
X193530832Y-89626320D01*
X193517223Y-89664568D02*
X193522478Y-89649848D01*
X193507642Y-89689810D02*
X193513584Y-89674535D01*
X193496436Y-89715752D02*
X193503440Y-89700100D01*
X193483231Y-89742146D02*
X193491463Y-89726255D01*
X193468069Y-89768842D02*
X193477444Y-89752785D01*
X193451272Y-89795795D02*
X193461569Y-89779584D01*
X193433250Y-89823058D02*
X193444221Y-89806647D01*
X193414305Y-89850776D02*
X193425799Y-89834064D01*
X193394454Y-89879175D02*
X193406514Y-89862016D01*
X193373358Y-89908534D02*
X193386235Y-89890756D01*
X193350466Y-89939117D02*
X193364510Y-89920568D01*
X193325201Y-89971104D02*
X193340751Y-89951695D01*
X193297148Y-90004510D02*
X193314415Y-89984260D01*
X193266239Y-90039116D02*
X193285200Y-90018198D01*
X193232899Y-90074417D02*
X193253221Y-90053176D01*
X193197989Y-90109673D02*
X193219100Y-90088581D01*
X193162622Y-90144037D02*
X193183832Y-90123610D01*
X193127961Y-90176680D02*
X193148577Y-90157403D01*
X193095017Y-90206924D02*
X193114468Y-90189174D01*
X193064454Y-90234374D02*
X193082409Y-90218336D01*
X193036412Y-90259024D02*
X193052871Y-90244638D01*
X193010494Y-90281255D02*
X193025770Y-90268242D01*
X192985893Y-90301724D02*
X193000521Y-90289656D01*
X192961542Y-90321238D02*
X192976192Y-90309616D01*
X192936258Y-90340633D02*
X192951648Y-90328960D01*
X192908894Y-90360648D02*
X192925696Y-90348503D01*
X192878515Y-90381822D02*
X192897243Y-90368918D01*
X192844623Y-90404398D02*
X192865497Y-90390639D01*
X192807378Y-90428241D02*
X192830187Y-90413771D01*
X192767832Y-90452749D02*
X192791796Y-90438004D01*
X192728149Y-90476767D02*
X192751787Y-90462530D01*
X192691710Y-90498562D02*
X192709888Y-90487705D01*
X192712824Y-90485952D01*
X192662631Y-90516067D02*
X192678692Y-90506348D01*
X192644914Y-90527306D02*
X192653600Y-90521621D01*
X192641549Y-90530833D02*
X192641274Y-90529940D01*
X192653643Y-90526164D02*
X192644085Y-90530180D01*
X192679866Y-90514051D02*
X192662187Y-90522343D01*
X192716905Y-90496232D02*
X192693333Y-90507638D01*
X192760371Y-90474957D02*
X192733637Y-90488083D01*
X192805733Y-90452504D02*
X192778517Y-90466011D01*
X192849252Y-90430686D02*
X192823613Y-90443590D01*
X192888835Y-90410409D02*
X192865741Y-90422324D01*
X192924259Y-90391574D02*
X192903584Y-90402697D01*
X192956657Y-90373382D02*
X192937561Y-90384271D01*
X192987889Y-90354708D02*
X192969189Y-90366063D01*
X193019908Y-90334475D02*
X193000459Y-90346910D01*
X193054135Y-90312020D02*
X193033208Y-90325846D01*
X193090974Y-90287376D02*
X193068492Y-90302462D01*
X193129871Y-90261198D02*
X193106288Y-90277073D01*
X193169667Y-90234514D02*
X193145746Y-90250525D01*
X193208970Y-90208451D02*
X193185555Y-90223923D01*
X193246520Y-90183967D02*
X193224322Y-90198369D01*
X193281565Y-90161589D02*
X193260936Y-90174688D01*
X193314128Y-90141217D02*
X193294933Y-90153169D01*
X193344896Y-90122213D02*
X193326640Y-90133467D01*
X193374920Y-90103642D02*
X193356942Y-90114787D01*
X193405280Y-90084527D02*
X193386948Y-90096139D01*
X193436769Y-90064095D02*
X193417673Y-90076589D01*
X193469586Y-90042015D02*
X193449709Y-90055512D01*
X193503274Y-90018460D02*
X193482982Y-90032787D01*
X193536915Y-89993958D02*
X193516809Y-90008757D01*
X193569397Y-89969212D02*
X193550158Y-89984047D01*
X193599662Y-89944917D02*
X193581898Y-89959385D01*
X193626962Y-89921575D02*
X193611058Y-89935416D01*
X193651057Y-89899357D02*
X193637077Y-89912521D01*
X193672163Y-89878121D02*
X193659921Y-89890733D01*
X193690757Y-89857535D02*
X193679940Y-89869815D01*
X193707372Y-89837204D02*
X193697667Y-89849391D01*
X193722393Y-89816792D02*
X193713604Y-89829068D01*
X193735902Y-89796123D02*
X193728030Y-89808568D01*
X193747690Y-89775184D02*
X193740897Y-89787785D01*
X193757366Y-89754067D02*
X193751907Y-89766755D01*
X193764469Y-89732920D02*
X193760624Y-89745602D01*
X193768571Y-89711891D02*
X193766584Y-89724481D01*
X193769377Y-89691107D02*
X193769401Y-89703533D01*
X193766785Y-89670685D02*
X193768848Y-89682876D01*
X193760951Y-89650758D02*
X193764916Y-89662630D01*
X193752348Y-89631493D02*
X193757881Y-89642940D01*
X193741753Y-89613096D02*
X193748350Y-89623990D01*
X193730045Y-89595746D02*
X193737182Y-89605990D01*
X193717923Y-89579518D02*
X193725225Y-89589088D01*
X193705626Y-89564291D02*
X193713040Y-89573294D01*
X193692722Y-89549704D02*
X193700607Y-89558392D01*
X193678322Y-89535283D02*
X193687251Y-89543940D01*
X193661604Y-89520719D02*
X193672021Y-89529487D01*
X193642378Y-89506154D02*
X193654264Y-89514859D01*
X193621604Y-89492449D02*
X193634186Y-89500456D01*
X193601409Y-89481156D02*
X193613269Y-89487451D01*
X193584338Y-89474055D02*
X193593949Y-89477573D01*
X193572433Y-89472593D02*
X193578706Y-89472554D01*
X190356131Y-85290055D02*
X190355120Y-85309985D01*
X190357857Y-85255400D02*
X190356812Y-85276485D01*
X190359643Y-85218720D02*
X190358562Y-85241041D01*
X190361494Y-85179852D02*
X190360373Y-85203512D01*
X190363414Y-85138645D02*
X190362251Y-85163728D01*
X190365404Y-85095038D02*
X190364199Y-85121561D01*
X190367464Y-85049110D02*
X190366218Y-85077005D01*
X190369587Y-85001025D02*
X190368304Y-85030188D01*
X190371769Y-84950949D02*
X190370451Y-84981283D01*
X190374006Y-84899003D02*
X190372655Y-84930446D01*
X189864946Y-83908971D02*
X189864594Y-83925664D01*
X189864667Y-83881223D02*
X189865008Y-83897857D01*
X189863219Y-83853568D02*
X189864264Y-83870148D01*
X189860591Y-83825983D02*
X189862345Y-83842526D01*
X189856799Y-83798419D02*
X189859246Y-83814958D01*
X189851909Y-83770794D02*
X189855001Y-83787385D01*
X189846051Y-83742988D02*
X189849701Y-83759708D01*
X189839398Y-83714855D02*
X189843496Y-83731794D01*
X189832144Y-83686242D02*
X189836574Y-83703491D01*
X189824472Y-83657011D02*
X189829126Y-83674650D01*
X189816538Y-83627061D02*
X189821329Y-83645144D01*
X189808448Y-83596336D02*
X189813319Y-83614889D01*
X189800269Y-83564821D02*
X189805186Y-83583849D01*
X189792035Y-83532519D02*
X189796982Y-83552017D01*
X189783760Y-83499443D02*
X189788731Y-83519404D01*
X190254767Y-84104486D02*
X190258016Y-84135917D01*
X190249690Y-84055573D02*
X190252668Y-84084225D01*
X190245055Y-84011264D02*
X190247771Y-84037165D01*
X190240827Y-83971352D02*
X190243306Y-83994664D01*
X190236923Y-83935279D02*
X190239225Y-83956401D01*
X190233190Y-83901964D02*
X190235417Y-83921635D01*
X190229395Y-83869724D02*
X190231699Y-83889037D01*
X190225257Y-83836485D02*
X190227811Y-83856724D01*
X190220480Y-83800075D02*
X190223461Y-83822538D01*
X190214800Y-83758527D02*
X190218359Y-83784343D01*
X190208024Y-83710376D02*
X190212263Y-83740329D01*
X190200046Y-83654798D02*
X190205017Y-83689292D01*
X190190831Y-83591461D02*
X190196547Y-83630636D01*
X190180380Y-83520325D02*
X190186835Y-83564172D01*
X190168708Y-83441471D02*
X190175893Y-83489935D01*
X190014222Y-84618882D02*
X190008988Y-84652933D01*
X190021964Y-84562935D02*
X190017515Y-84596344D01*
X190028388Y-84507988D02*
X190024732Y-84540815D01*
X190033479Y-84453836D02*
X190030625Y-84486228D01*
X190037222Y-84400070D02*
X190035179Y-84432309D01*
X190039610Y-84346010D02*
X190038381Y-84378547D01*
X190040645Y-84290720D02*
X190040225Y-84324147D01*
X190040360Y-84233198D02*
X190040725Y-84268109D01*
X190038833Y-84172619D02*
X190039928Y-84209467D01*
X190036206Y-84108586D02*
X190037935Y-84147529D01*
X190032703Y-84041360D02*
X190034918Y-84082128D01*
X190028617Y-83971924D02*
X190031135Y-84013830D01*
X190024252Y-83901716D02*
X190026895Y-83943852D01*
X190019843Y-83832291D02*
X190022483Y-83873729D01*
X190015488Y-83764973D02*
X190018094Y-83804976D01*
X190011068Y-83700523D02*
X190013747Y-83738741D01*
X190006217Y-83638940D02*
X190009225Y-83675487D01*
X190000387Y-83579600D02*
X190004073Y-83614927D01*
X189992944Y-83521509D02*
X189997695Y-83556250D01*
X189983269Y-83463557D02*
X189989447Y-83498379D01*
X189970854Y-83404764D02*
X189978742Y-83440221D01*
X189955364Y-83344451D02*
X189965135Y-83380901D01*
X189936617Y-83282215D02*
X189948361Y-83319863D01*
X189914539Y-83217862D02*
X189928288Y-83256798D01*
X189889114Y-83151326D02*
X189904871Y-83191576D01*
X186849365Y-82424828D02*
X186731283Y-82433622D01*
X187030582Y-82411354D02*
X186924974Y-82419202D01*
X187190950Y-82399457D02*
X187097857Y-82406359D01*
X187330612Y-82389115D02*
X187249897Y-82395090D01*
X187450202Y-82380257D02*
X187381391Y-82385356D01*
X187551140Y-82372738D02*
X187493244Y-82377062D01*
X187635939Y-82366312D02*
X187587263Y-82370025D01*
X187708396Y-82360615D02*
X187666479Y-82363951D01*
X187773134Y-82355219D02*
X187735130Y-82358441D01*
X187834749Y-82349716D02*
X187797965Y-82353058D01*
X187896915Y-82343819D02*
X187859343Y-82347429D01*
X187961496Y-82337450D02*
X187922349Y-82341337D01*
X188027975Y-82330805D02*
X187987922Y-82334811D01*
X188093877Y-82324293D02*
X188054640Y-82328147D01*
X188155654Y-82318435D02*
X188119461Y-82321816D01*
X188209590Y-82313747D02*
X188178637Y-82316352D01*
X188252669Y-82310643D02*
X188228607Y-82312247D01*
X188283082Y-82309365D02*
X188266812Y-82309847D01*
X188300015Y-82310022D02*
X188291904Y-82309334D01*
X188303251Y-82312644D02*
X188303366Y-82310776D01*
X188311219Y-81034511D02*
X188298356Y-81020003D01*
X188331018Y-81059727D02*
X188319466Y-81044391D01*
X188348633Y-81086286D02*
X188338391Y-81070153D01*
X188364073Y-81114091D02*
X188355134Y-81097231D01*
X188377357Y-81142945D02*
X188369708Y-81125492D01*
X188388522Y-81172528D02*
X188382138Y-81154696D01*
X188397625Y-81202381D02*
X188392468Y-81184464D01*
X188404746Y-81231967D02*
X188400764Y-81214291D01*
X188409997Y-81260791D02*
X188407118Y-81243639D01*
X188413526Y-81288515D02*
X188411656Y-81272059D01*
X188415516Y-81315077D02*
X188414539Y-81299305D01*
X188416195Y-81340782D02*
X188415968Y-81325453D01*
X188415805Y-81366248D02*
X188416183Y-81350955D01*
X188414568Y-81392231D02*
X188415425Y-81376513D01*
X188412638Y-81419434D02*
X188413893Y-81402888D01*
X188410063Y-81448324D02*
X188411707Y-81430720D01*
X188406750Y-81478975D02*
X188408859Y-81460331D01*
X188402498Y-81511088D02*
X188405206Y-81491631D01*
X188397071Y-81544144D02*
X188400518Y-81524208D01*
X188390278Y-81577570D02*
X188394568Y-81557496D01*
X188382055Y-81610898D02*
X188387201Y-81590939D01*
X188372534Y-81643923D02*
X188378424Y-81624155D01*
X188362056Y-81676741D02*
X188368458Y-81657065D01*
X188351092Y-81709653D02*
X188357709Y-81689868D01*
X188340158Y-81743030D02*
X188346680Y-81722909D01*
X188329720Y-81777191D02*
X188335881Y-81756560D01*
X188320111Y-81812277D02*
X188325738Y-81791087D01*
X188311468Y-81848162D02*
X188316506Y-81826529D01*
X188303774Y-81884497D02*
X188308253Y-81862658D01*
X188296937Y-81920793D02*
X188300918Y-81899056D01*
X188290869Y-81956520D02*
X188294399Y-81935204D01*
X188285565Y-81991196D02*
X188288628Y-81970576D01*
X188281175Y-82024469D02*
X188283655Y-82004732D01*
X188277996Y-82056151D02*
X188279699Y-82037388D01*
X188276370Y-82086169D02*
X188277091Y-82068410D01*
X188276563Y-82114514D02*
X188276161Y-82097757D01*
X188278659Y-82141193D02*
X188277121Y-82125436D01*
X188282438Y-82166170D02*
X188279945Y-82151443D01*
X188287366Y-82189368D02*
X188284282Y-82175722D01*
X188292708Y-82210718D02*
X188289493Y-82198187D01*
X188297693Y-82230236D02*
X188294804Y-82218794D01*
X188301669Y-82248098D02*
X188299470Y-82237610D01*
X188304245Y-82264697D02*
X188302924Y-82254892D01*
X188305309Y-82280620D02*
X188304896Y-82271124D01*
X188304926Y-82296523D02*
X188305366Y-82286941D01*
X188303202Y-82312998D02*
X188304431Y-82302993D01*
X188300169Y-82330436D02*
X188302189Y-82319813D01*
X188295703Y-82348943D02*
X188298611Y-82337682D01*
X188289569Y-82368360D02*
X188293517Y-82356592D01*
X188281508Y-82388327D02*
X188286650Y-82376294D01*
X188271327Y-82408351D02*
X188277762Y-82396364D01*
X188258978Y-82427872D02*
X188266709Y-82416274D01*
X188244588Y-82446325D02*
X188253515Y-82435450D01*
X188228401Y-82463204D02*
X188238363Y-82453342D01*
X188210725Y-82478126D02*
X188221533Y-82469485D01*
X188191861Y-82490895D02*
X188203339Y-82483561D01*
X188172056Y-82501551D02*
X188184067Y-82495463D01*
X188151479Y-82510347D02*
X188163933Y-82505325D01*
X188130238Y-82517674D02*
X188143077Y-82513469D01*
X188108393Y-82523968D02*
X188121587Y-82520317D01*
X188085979Y-82529628D02*
X188099511Y-82526304D01*
X188063017Y-82534947D02*
X188076876Y-82531792D01*
X188039518Y-82540103D02*
X188053697Y-82537026D01*
X188015490Y-82545190D02*
X188029986Y-82542145D01*
X187990935Y-82550243D02*
X188005747Y-82547215D01*
X189147238Y-81527346D02*
G75*
G02*
X188839664Y-81527346I-153787J0D01*
G01*
X188839664Y-81527346D02*
G75*
G02*
X189147238Y-81527346I153787J0D01*
G01*
X194920778Y-90951977D02*
X194890573Y-90932959D01*
X194971119Y-90983673D02*
X194940914Y-90964655D01*
X195021460Y-91015369D02*
X194991255Y-90996352D01*
X195071801Y-91047066D02*
X195041596Y-91028048D01*
X195122142Y-91078762D02*
X195091937Y-91059744D01*
X193563982Y-90593568D02*
X193465699Y-90511007D01*
X193712595Y-90718631D02*
X193626479Y-90646112D01*
X193840656Y-90826722D02*
X193766926Y-90764434D01*
X193947923Y-90917604D02*
X193886687Y-90865663D01*
X194034594Y-90991376D02*
X193985642Y-90949653D01*
X194101711Y-91048785D02*
X194064262Y-91016711D01*
X194151619Y-91091600D02*
X194124040Y-91067936D01*
X194188173Y-91122777D02*
X194167939Y-91105582D01*
X194216218Y-91146056D02*
X194200326Y-91133009D01*
X194240807Y-91165351D02*
X194226246Y-91154118D01*
X194266426Y-91184153D02*
X194250642Y-91172744D01*
X194296310Y-91204999D02*
X194277580Y-91192058D01*
X194332299Y-91229356D02*
X194309711Y-91214151D01*
X194375218Y-91257904D02*
X194348400Y-91240123D01*
X194425291Y-91290847D02*
X194394172Y-91270419D01*
X195752684Y-90986673D02*
X195779744Y-90987256D01*
X195708272Y-90986373D02*
X195734783Y-90986419D01*
X195664708Y-90986974D02*
X195690728Y-90986477D01*
X195621787Y-90988492D02*
X195647462Y-90987442D01*
X195579120Y-90990956D02*
X195604717Y-90989334D01*
X195536070Y-90994410D02*
X195562009Y-90992186D01*
X195491816Y-90998919D02*
X195518606Y-90996051D01*
X195445573Y-91004568D02*
X195473661Y-91001000D01*
X195396871Y-91011474D02*
X195426475Y-91007133D01*
X195345817Y-91019781D02*
X195376767Y-91014576D01*
X195293328Y-91029666D02*
X195324944Y-91023486D01*
X195241049Y-91041298D02*
X195272257Y-91034047D01*
X195190934Y-91054767D02*
X195220549Y-91046409D01*
X195144764Y-91069998D02*
X195171773Y-91060607D01*
X195103675Y-91086674D02*
X195127527Y-91076484D01*
X195067724Y-91104168D02*
X195088565Y-91093601D01*
X195035823Y-91121615D02*
X195054465Y-91111215D01*
X195006050Y-91138126D02*
X195023745Y-91128414D01*
X194976021Y-91153024D02*
X194994244Y-91144359D01*
X194943259Y-91166076D02*
X194963485Y-91158515D01*
X194905546Y-91177623D02*
X194929047Y-91170878D01*
X194861220Y-91188429D02*
X194888891Y-91181996D01*
X194809454Y-91199414D02*
X194841647Y-91192735D01*
X194750535Y-91211384D02*
X194786891Y-91204011D01*
X194686129Y-91224773D02*
X194725430Y-91216517D01*
X194619221Y-91239512D02*
X194659506Y-91230487D01*
X194553470Y-91255159D02*
X194592497Y-91245674D01*
X194492397Y-91271091D02*
X194528129Y-91261533D01*
X194438570Y-91286700D02*
X194469663Y-91277418D01*
X194392785Y-91301595D02*
X194419083Y-91292779D01*
X194353484Y-91315742D02*
X194376281Y-91307354D01*
X194317174Y-91329417D02*
X194338791Y-91321258D01*
X194279519Y-91343008D02*
X194302607Y-91334841D01*
X194236477Y-91356812D02*
X194263341Y-91348486D01*
X194185423Y-91370842D02*
X194217354Y-91362405D01*
X194125839Y-91384711D02*
X194162827Y-91376453D01*
X194059009Y-91397734D02*
X194100056Y-91390100D01*
X193987361Y-91409096D02*
X194030884Y-91402583D01*
X193913796Y-91418028D02*
X193958027Y-91413079D01*
X193841022Y-91423977D02*
X193884411Y-91420879D01*
X193770948Y-91426764D02*
X193812499Y-91425562D01*
X193704484Y-91426603D02*
X193743794Y-91427115D01*
X193641747Y-91423995D02*
X193678845Y-91425886D01*
X193582329Y-91419601D02*
X193617523Y-91422459D01*
X193525556Y-91414114D02*
X193559271Y-91417526D01*
X193470748Y-91408137D02*
X193503378Y-91411762D01*
X193417403Y-91402097D02*
X193449216Y-91405709D01*
X193365213Y-91396257D02*
X193396368Y-91399719D01*
X193314017Y-91390749D02*
X193344592Y-91393998D01*
X193263751Y-91385626D02*
X193293773Y-91388641D01*
X191310923Y-93976457D02*
X191309608Y-93956799D01*
X191312931Y-94010820D02*
X191311763Y-93989883D01*
X191314689Y-94047286D02*
X191313672Y-94025095D01*
X191316191Y-94085766D02*
X191315329Y-94062385D01*
X191317423Y-94126077D02*
X191316726Y-94101632D01*
X191318365Y-94167911D02*
X191317845Y-94142608D01*
X191318994Y-94210825D02*
X191318665Y-94184949D01*
X191319310Y-94254277D02*
X191319166Y-94228163D01*
X191319367Y-94297702D02*
X191319365Y-94271688D01*
X191319308Y-94340576D02*
X191319347Y-94314966D01*
X191319394Y-94382490D02*
X191319297Y-94357507D01*
X191320033Y-94423206D02*
X191319535Y-94398965D01*
X191321731Y-94462661D02*
X191320518Y-94439175D01*
X191325006Y-94500934D02*
X191322772Y-94478139D01*
X191330292Y-94538198D02*
X191326795Y-94515977D01*
X191337845Y-94574685D02*
X191332965Y-94552893D01*
X191347658Y-94610644D02*
X191341443Y-94589131D01*
X191359445Y-94646320D02*
X191352105Y-94624940D01*
X191372701Y-94681949D02*
X191364567Y-94660563D01*
X191386771Y-94717757D02*
X191383894Y-94710487D01*
X191378255Y-94696231D01*
X191400912Y-94753950D02*
X191392468Y-94732163D01*
X191414365Y-94790716D02*
X191406447Y-94768559D01*
X191426415Y-94828198D02*
X191419440Y-94805595D01*
X191436456Y-94866448D02*
X191430768Y-94843384D01*
X191444046Y-94905378D02*
X191439881Y-94881931D01*
X191448976Y-94944705D02*
X191446421Y-94921076D01*
X191451322Y-94983912D02*
X191450286Y-94960450D01*
X191451443Y-95022255D02*
X191451672Y-94999433D01*
X191449873Y-95058896D02*
X191451030Y-95037222D01*
X191447187Y-95093053D02*
X191448929Y-95072978D01*
X191443871Y-95124148D02*
X191445930Y-95105977D01*
X191440188Y-95151959D02*
X191442446Y-95135764D01*
X191436120Y-95176676D02*
X191438629Y-95162284D01*
X191431432Y-95198793D02*
X191434359Y-95185872D01*
X191425777Y-95218958D02*
X191429340Y-95207107D01*
X191418791Y-95237813D02*
X191423204Y-95226657D01*
X191410193Y-95255861D02*
X191415609Y-95245127D01*
X191399809Y-95273415D02*
X191406315Y-95262942D01*
X191387553Y-95290638D02*
X191395190Y-95280348D01*
X191373397Y-95307594D02*
X191382176Y-95297459D01*
X190934356Y-93793284D02*
X190904173Y-93776590D01*
X190986333Y-93820093D02*
X190954809Y-93804210D01*
X191040619Y-93845570D02*
X191007692Y-93830481D01*
X191097401Y-93869792D02*
X191062941Y-93855439D01*
X191156995Y-93892928D02*
X191120789Y-93879193D01*
X191219884Y-93915281D02*
X191181618Y-93901960D01*
X191286676Y-93937280D02*
X191245973Y-93924102D01*
X191357937Y-93959394D02*
X191314479Y-93946079D01*
X191433985Y-93982014D02*
X191387631Y-93968345D01*
X191514673Y-94005347D02*
X191465596Y-93991237D01*
X191599174Y-94029295D02*
X191547986Y-94014854D01*
X191685896Y-94053410D02*
X191633661Y-94038958D01*
X191772695Y-94076974D02*
X191720760Y-94062972D01*
X191857183Y-94099138D02*
X191806997Y-94086108D01*
X191937045Y-94119049D02*
X191889967Y-94107494D01*
X192010346Y-94135985D02*
X191967457Y-94126310D01*
X192075777Y-94149459D02*
X192037761Y-94141917D01*
X192132638Y-94159215D02*
X192099836Y-94153930D01*
X192180646Y-94165156D02*
X192153177Y-94162166D01*
X192219754Y-94167269D02*
X192197623Y-94166574D01*
X189922710Y-95322074D02*
X189907279Y-95327912D01*
X189951173Y-95311259D02*
X189933546Y-95317965D01*
X189983292Y-95299002D02*
X189963473Y-95306572D01*
X190019026Y-95285323D02*
X189997049Y-95293741D01*
X190058255Y-95270278D02*
X190034206Y-95279504D01*
X190100745Y-95253975D02*
X190074782Y-95263936D01*
X190146145Y-95236572D02*
X190118495Y-95247167D01*
X190194038Y-95218262D02*
X190164957Y-95229371D01*
X190243996Y-95199245D02*
X190213739Y-95210748D01*
X190295636Y-95179708D02*
X190264422Y-95191496D01*
X190348673Y-95159804D02*
X190316655Y-95171793D01*
X190402929Y-95139642D02*
X190370201Y-95151772D01*
X190458272Y-95119305D02*
X190424912Y-95131529D01*
X190514533Y-95098867D02*
X190480653Y-95111140D01*
X190571430Y-95078420D02*
X190537221Y-95090683D01*
X190628488Y-95058086D02*
X190594270Y-95070259D01*
X190685001Y-95038036D02*
X190651230Y-95050010D01*
X190740095Y-95018471D02*
X190707313Y-95030123D01*
X190792838Y-94999604D02*
X190761607Y-95010806D01*
X190842341Y-94981634D02*
X190813180Y-94992270D01*
X190887870Y-94964724D02*
X190861189Y-94974702D01*
X190928929Y-94948983D02*
X190904988Y-94958247D01*
X190965245Y-94934469D02*
X190944178Y-94942991D01*
X190996705Y-94921206D02*
X190978561Y-94928975D01*
X191023287Y-94909197D02*
X191008069Y-94916214D01*
X192133134Y-95343746D02*
X192149835Y-95330490D01*
X192102792Y-95365225D02*
X192121497Y-95352461D01*
X192069188Y-95385876D02*
X192089829Y-95373610D01*
X192032569Y-95405682D02*
X192054968Y-95393926D01*
X191993436Y-95424620D02*
X192017248Y-95413390D01*
X191952625Y-95442654D02*
X191977295Y-95431971D01*
X191911236Y-95459755D02*
X191936079Y-95449635D01*
X191870317Y-95475941D02*
X191894739Y-95466363D01*
X191830487Y-95491317D02*
X191854206Y-95482201D01*
X191791551Y-95506126D02*
X191814832Y-95497303D01*
X191752163Y-95520786D02*
X191775999Y-95511977D01*
X191709932Y-95535859D02*
X191735881Y-95526713D01*
X191662106Y-95551926D02*
X191691819Y-95542101D01*
X191606353Y-95569444D02*
X191641114Y-95558693D01*
X191541555Y-95588603D02*
X191581799Y-95576862D01*
X191468553Y-95609195D02*
X191513445Y-95596656D01*
X191390266Y-95630599D02*
X191437773Y-95617688D01*
X191310951Y-95651940D02*
X191358382Y-95639208D01*
X191235285Y-95672286D02*
X191279833Y-95660288D01*
X191167436Y-95690837D02*
X191206735Y-95680020D01*
X191110146Y-95707124D02*
X191142831Y-95697706D01*
X191063937Y-95721170D02*
X191090055Y-95713057D01*
X191027148Y-95733479D02*
X191047984Y-95726306D01*
X190996696Y-95744858D02*
X191014255Y-95738109D01*
X190968910Y-95756228D02*
X190985428Y-95749347D01*
X190940364Y-95768431D02*
X190957805Y-95760936D01*
X190908545Y-95782078D02*
X190928255Y-95773642D01*
X190871939Y-95797536D02*
X190894690Y-95787973D01*
X190829783Y-95814987D02*
X190855938Y-95804211D01*
X190781802Y-95834493D02*
X190811471Y-95822479D01*
X190593628Y-95359327D02*
X190574762Y-95360772D01*
X190638140Y-95355660D02*
X190609367Y-95358064D01*
X190687501Y-95351421D02*
X190658221Y-95353957D01*
X190727284Y-95347886D02*
X190705637Y-95349831D01*
X190751647Y-95345606D02*
X190739131Y-95346801D01*
X190769984Y-95343827D02*
X190758846Y-95344904D01*
X190796169Y-95341441D02*
X190778623Y-95343013D01*
X190835696Y-95338095D02*
X190809928Y-95340243D01*
X190887248Y-95334025D02*
X190854775Y-95336545D01*
X190945673Y-95329777D02*
X190910006Y-95332311D01*
X191004932Y-95325917D02*
X190969616Y-95328143D01*
X191060440Y-95322816D02*
X191027926Y-95324548D01*
X191109618Y-95320602D02*
X191081162Y-95321797D01*
X191151646Y-95319202D02*
X191127498Y-95319931D01*
X191187169Y-95318388D02*
X191166740Y-95318809D01*
X191218014Y-95317813D02*
X191200049Y-95318148D01*
X191246893Y-95317064D02*
X191229655Y-95317569D01*
X191276998Y-95315703D02*
X191258532Y-95316640D01*
X191311496Y-95313329D02*
X191289942Y-95314930D01*
X191352993Y-95309634D02*
X191326905Y-95312065D01*
X191403004Y-95304458D02*
X191371674Y-95307789D01*
X191461501Y-95297843D02*
X191425194Y-95302018D01*
X191526932Y-95290012D02*
X191486784Y-95294873D01*
X191596661Y-95281302D02*
X191554383Y-95286635D01*
X191667456Y-95272092D02*
X191625045Y-95277669D01*
X191735977Y-95262722D02*
X191695421Y-95268349D01*
X191799259Y-95253421D02*
X191762247Y-95258982D01*
X191855198Y-95244231D02*
X191822833Y-95249734D01*
X191902857Y-95234987D02*
X191875524Y-95240559D01*
X191942314Y-95225411D02*
X191919834Y-95231226D01*
X191974343Y-95215266D02*
X191956170Y-95221449D01*
X192000078Y-95204509D02*
X191985499Y-95211047D01*
X192020688Y-95193442D02*
X192009020Y-95200092D01*
X192037114Y-95182763D02*
X192027833Y-95189055D01*
X192050089Y-95173283D02*
X192042777Y-95178745D01*
X192060294Y-95165428D02*
X192054538Y-95169894D01*
X192068535Y-95158749D02*
X192063822Y-95162655D01*
X192075851Y-95151600D02*
X192071523Y-95156111D01*
X192083390Y-95141501D02*
X192078759Y-95148182D01*
X192092146Y-95125905D02*
X192086656Y-95136240D01*
X192102688Y-95102995D02*
X192096080Y-95117914D01*
X192114987Y-95072228D02*
X192107367Y-95091855D01*
X192128520Y-95034217D02*
X192120263Y-95058036D01*
X192142500Y-94990316D02*
X192134103Y-95017432D01*
X192156094Y-94942203D02*
X192148046Y-94971589D01*
X192168661Y-94891453D02*
X192161305Y-94922208D01*
X192179918Y-94839202D02*
X192173365Y-94870721D01*
X192189916Y-94786122D02*
X192184093Y-94818065D01*
X192198909Y-94732547D02*
X192193643Y-94764753D01*
X192207214Y-94678618D02*
X192202314Y-94711023D01*
X192215073Y-94624427D02*
X192210415Y-94656974D01*
X192222519Y-94570154D02*
X192218123Y-94602712D01*
X192229291Y-94516177D02*
X192225357Y-94548486D01*
X192234911Y-94463066D02*
X192231748Y-94494758D01*
X192238836Y-94411546D02*
X192236770Y-94442167D01*
X192240611Y-94362439D02*
X192239892Y-94391484D01*
X192240022Y-94316620D02*
X192240732Y-94343559D01*
X192237240Y-94274962D02*
X192239209Y-94299276D01*
X192232862Y-94238243D02*
X192235676Y-94259490D01*
X192227721Y-94206949D02*
X192230861Y-94224895D01*
X192222642Y-94181067D02*
X192225631Y-94195809D01*
X192218193Y-94159860D02*
X192220747Y-94171965D01*
X192214454Y-94141692D02*
X192216607Y-94152280D01*
X192210993Y-94124179D02*
X192213071Y-94134762D01*
X192207097Y-94104787D02*
X192209552Y-94116863D01*
X192202049Y-94081495D02*
X192205292Y-94096153D01*
X192195394Y-94053445D02*
X192199643Y-94070991D01*
X192187080Y-94021199D02*
X192192307Y-94041091D01*
X192177370Y-93986383D02*
X192183379Y-94007522D01*
X192166707Y-93951169D02*
X192173215Y-93972204D01*
X192155575Y-93917764D02*
X192162295Y-93937401D01*
X192144367Y-93887916D02*
X192151082Y-93905199D01*
X192133333Y-93862725D02*
X192139916Y-93877091D01*
X192122602Y-93842756D02*
X192128990Y-93853931D01*
X192112224Y-93828225D02*
X192118397Y-93836122D01*
X191831233Y-93558142D02*
X191818284Y-93540330D01*
X191851796Y-93585215D02*
X191839661Y-93569492D01*
X191871037Y-93608877D02*
X191859686Y-93595182D01*
X191889062Y-93629343D02*
X191878419Y-93617521D01*
X191906078Y-93647044D02*
X191896001Y-93636800D01*
X191922431Y-93662700D02*
X191912690Y-93653553D01*
X191938615Y-93677329D02*
X191928893Y-93668629D01*
X191955216Y-93692090D02*
X191945153Y-93683138D01*
X191972818Y-93708039D02*
X191962069Y-93698231D01*
X191991918Y-93725884D02*
X191980205Y-93714864D01*
X192012836Y-93745760D02*
X191999999Y-93733548D01*
X192035673Y-93767136D02*
X192021684Y-93754142D01*
X192060349Y-93789016D02*
X192045278Y-93775890D01*
X192086667Y-93810212D02*
X192070646Y-93797677D01*
X192114376Y-93829619D02*
X192097559Y-93818307D01*
X192143233Y-93846487D02*
X192125762Y-93836778D01*
X192173038Y-93860577D02*
X192155025Y-93852538D01*
X192203615Y-93872078D02*
X192185165Y-93865542D01*
X192234777Y-93881435D02*
X192216006Y-93876107D01*
X192266286Y-93889182D02*
X192247347Y-93884741D01*
X192297816Y-93895773D02*
X192278921Y-93891969D01*
X192328950Y-93901460D02*
X192310359Y-93898175D01*
X192359260Y-93906303D02*
X192341223Y-93903525D01*
X192388430Y-93910235D02*
X192371113Y-93908020D01*
X192416378Y-93913132D02*
X192399786Y-93911558D01*
X192443380Y-93914877D02*
X192427287Y-93914009D01*
X192470117Y-93915409D02*
X192454057Y-93915273D01*
X192497523Y-93914738D02*
X192480914Y-93915319D01*
X192526528Y-93912921D02*
X192508829Y-93914177D01*
X192557803Y-93910057D02*
X192538668Y-93911925D01*
X192591505Y-93906264D02*
X192570934Y-93908670D01*
X192627120Y-93901673D02*
X192605522Y-93904538D01*
X192663583Y-93896415D02*
X192641665Y-93899661D01*
X192699507Y-93890615D02*
X192678132Y-93894168D01*
X192733431Y-93884385D02*
X192713472Y-93888181D01*
X192764050Y-93877817D02*
X192746249Y-93881804D01*
X192790417Y-93870976D02*
X192775282Y-93875118D01*
X192811963Y-93863902D02*
X192799785Y-93868179D01*
X192828404Y-93856616D02*
X192819316Y-93861018D01*
X192839639Y-93849128D02*
X192833681Y-93853651D01*
X191094121Y-90189983D02*
X191082633Y-90175614D01*
X191114299Y-90213432D02*
X191101983Y-90199459D01*
X191135982Y-90236332D02*
X191122731Y-90222661D01*
X191159527Y-90258996D02*
X191145085Y-90245403D01*
X191185621Y-90282024D02*
X191169523Y-90268100D01*
X191215269Y-90306300D02*
X191196872Y-90291482D01*
X191249570Y-90332792D02*
X191228223Y-90316504D01*
X191289404Y-90362285D02*
X191264630Y-90344100D01*
X191335129Y-90395117D02*
X191306814Y-90374918D01*
X191386332Y-90430962D02*
X191354846Y-90409050D01*
X191441897Y-90468885D02*
X191407997Y-90445899D01*
X191500312Y-90507591D02*
X191464943Y-90484343D01*
X191559996Y-90545698D02*
X191524096Y-90523013D01*
X191619622Y-90582006D02*
X191583926Y-90560558D01*
X191678448Y-90615771D02*
X191643292Y-90595920D01*
X191736523Y-90646881D02*
X191701759Y-90628597D01*
X191794537Y-90675780D02*
X191759675Y-90658727D01*
X191853492Y-90703249D02*
X191817907Y-90686923D01*
X191914367Y-90730179D02*
X191877498Y-90714043D01*
X191977773Y-90757356D02*
X191939331Y-90740971D01*
X192043633Y-90785236D02*
X192016299Y-90773678D01*
X192003786Y-90768388D01*
X192111056Y-90813842D02*
X192070453Y-90796582D01*
X192178600Y-90842873D02*
X192138163Y-90825420D01*
X192244661Y-90871864D02*
X192205351Y-90854508D01*
X192307850Y-90900362D02*
X192270443Y-90883363D01*
X192367383Y-90928093D02*
X192332232Y-90911577D01*
X192423448Y-90955123D02*
X192390273Y-90938989D01*
X192477322Y-90981918D02*
X192445208Y-90965833D01*
X192530981Y-91009185D02*
X192498673Y-90992703D01*
X192586560Y-91037651D02*
X192552789Y-91020347D01*
X192645815Y-91067845D02*
X192609621Y-91049447D01*
X192709577Y-91099873D02*
X192670637Y-91080395D01*
X192777300Y-91133244D02*
X192736162Y-91113076D01*
X192847145Y-91166940D02*
X192805079Y-91146755D01*
X192916502Y-91199708D02*
X192875149Y-91180272D01*
X192982573Y-91230369D02*
X192943603Y-91212357D01*
X193042953Y-91258133D02*
X193007711Y-91241940D01*
X193096202Y-91282909D02*
X193065366Y-91268463D01*
X193142355Y-91305568D02*
X193115666Y-91292195D01*
X193182852Y-91327816D02*
X193159267Y-91314395D01*
X193219905Y-91351690D02*
X193198032Y-91336988D01*
X193255777Y-91378988D02*
X193234295Y-91361998D01*
X193292066Y-91410708D02*
X193270166Y-91390990D01*
X193329165Y-91446635D02*
X193306805Y-91424507D01*
X193366382Y-91485520D02*
X193344108Y-91461855D01*
X193402473Y-91525610D02*
X193381077Y-91501497D01*
X193436197Y-91565205D02*
X193416387Y-91541620D01*
X193466870Y-91603211D02*
X193448935Y-91580682D01*
X193494762Y-91639541D02*
X193478391Y-91617963D01*
X193520923Y-91674962D02*
X193505398Y-91653773D01*
X193546710Y-91710648D02*
X193531204Y-91689115D01*
X193573287Y-91747711D02*
X193557164Y-91725207D01*
X193601147Y-91786752D02*
X193584239Y-91763018D01*
X193629917Y-91827676D02*
X193612572Y-91802867D01*
X193658619Y-91869939D02*
X193641487Y-91844424D01*
X193686047Y-91912909D02*
X193669861Y-91887058D01*
X193711152Y-91956225D02*
X193696491Y-91930188D01*
X193733396Y-92000129D02*
X193720491Y-91973656D01*
X193752845Y-92045496D02*
X193741572Y-92017980D01*
X193769959Y-92093520D02*
X193760003Y-92064226D01*
X193785313Y-92145315D02*
X193776328Y-92113609D01*
X193799332Y-92201539D02*
X193791105Y-92167124D01*
X193812041Y-92262041D02*
X193804628Y-92225142D01*
X193823023Y-92325836D02*
X193816734Y-92287156D01*
X193831577Y-92391402D02*
X193826862Y-92351910D01*
X193836910Y-92457025D02*
X193834245Y-92417755D01*
X193838328Y-92521151D02*
X193838102Y-92482990D01*
X193835429Y-92582723D02*
X193837827Y-92546206D01*
X193828227Y-92641423D02*
X193833177Y-92606627D01*
X193817089Y-92697588D02*
X193824329Y-92664229D01*
X193802568Y-92751948D02*
X193811748Y-92719545D01*
X193785236Y-92805368D02*
X193796022Y-92773400D01*
X193765513Y-92858588D02*
X193777687Y-92826648D01*
X193743529Y-92911991D02*
X193757062Y-92879912D01*
X193719127Y-92965565D02*
X193734149Y-92933408D01*
X193691982Y-93019008D02*
X193708705Y-92986990D01*
X193661736Y-93071843D02*
X193680370Y-93040268D01*
X193628131Y-93123541D02*
X193648808Y-93092727D01*
X193591130Y-93173637D02*
X193613831Y-93143846D01*
X193550984Y-93221793D02*
X193575518Y-93193208D01*
X193508178Y-93267791D02*
X193534221Y-93240527D01*
X193463370Y-93311510D02*
X193490507Y-93285626D01*
X193417321Y-93352899D02*
X193445084Y-93328417D01*
X193370826Y-93391955D02*
X193398737Y-93368871D01*
X193324655Y-93428706D02*
X193352261Y-93406998D01*
X193279481Y-93463234D02*
X193306395Y-93442842D01*
X193235828Y-93495719D02*
X193261764Y-93476518D01*
X193194012Y-93526483D02*
X193216412Y-93510020D01*
X193218815Y-93508255D01*
X193154077Y-93556034D02*
X193177764Y-93538443D01*
X193115763Y-93585094D02*
X193138536Y-93567677D01*
X193078584Y-93614504D02*
X193100758Y-93596749D01*
X193042006Y-93645052D02*
X193063896Y-93626507D01*
X193005629Y-93677278D02*
X193027442Y-93657668D01*
X192969377Y-93711291D02*
X192991099Y-93690629D01*
X192933609Y-93746660D02*
X192954957Y-93725282D01*
X192899029Y-93782572D02*
X192919544Y-93761005D01*
X192866487Y-93818113D02*
X192885650Y-93796902D01*
X192836767Y-93852565D02*
X192854131Y-93832091D01*
X192810390Y-93885684D02*
X192825694Y-93866006D01*
X192787494Y-93917820D02*
X192800714Y-93898645D01*
X192767892Y-93949682D02*
X192779181Y-93930553D01*
X192751187Y-93981996D02*
X192760807Y-93962499D01*
X192736884Y-94015157D02*
X192745139Y-93995128D01*
X192724494Y-94048979D02*
X192731672Y-94028621D01*
X192713579Y-94082778D02*
X192719933Y-94062560D01*
X192703772Y-94115632D02*
X192709512Y-94096125D01*
X192694792Y-94146658D02*
X192699356Y-94130847D01*
X192700071Y-94128368D01*
X192686459Y-94175233D02*
X192691370Y-94158485D01*
X192678676Y-94201031D02*
X192683267Y-94185982D01*
X192671408Y-94223925D02*
X192675693Y-94210627D01*
X188277465Y-81014497D02*
X188300451Y-81007028D01*
X188301302Y-81006751D01*
X188243135Y-81025340D02*
X188262848Y-81019215D01*
X188212106Y-81034305D02*
X188230522Y-81029122D01*
X188181009Y-81042838D02*
X188199798Y-81037673D01*
X188149399Y-81052635D02*
X188168364Y-81046452D01*
X188119031Y-81065288D02*
X188136916Y-81057177D01*
X188091641Y-81081832D02*
X188107572Y-81071285D01*
X188067155Y-81102375D02*
X188081487Y-81089480D01*
X188044215Y-81126074D02*
X188057840Y-81111467D01*
X188022203Y-81151351D02*
X188035230Y-81136075D01*
X188002659Y-81176298D02*
X188013847Y-81161497D01*
X187987892Y-81199771D02*
X187995923Y-81185921D01*
X187978001Y-81222847D02*
X187983351Y-81208873D01*
X187969092Y-81249411D02*
X187974674Y-81232617D01*
X187955174Y-81284224D02*
X187964669Y-81261823D01*
X187931556Y-81329984D02*
X187947376Y-81300843D01*
X187896879Y-81385716D02*
X187919312Y-81350974D01*
X187852649Y-81447568D02*
X187880440Y-81409869D01*
X187802091Y-81510246D02*
X187833124Y-81472887D01*
X187748996Y-81568471D02*
X187780987Y-81534522D01*
X187696567Y-81618427D02*
X187727763Y-81589856D01*
X187646393Y-81659021D02*
X187676125Y-81636028D01*
X187598280Y-81691927D02*
X187626906Y-81673144D01*
X187550850Y-81720528D02*
X187579325Y-81703754D01*
X187502228Y-81748713D02*
X187531706Y-81731614D01*
X187450744Y-81779679D02*
X187482150Y-81760525D01*
X187395537Y-81814903D02*
X187429240Y-81793107D01*
X187336691Y-81853992D02*
X187372507Y-81830043D01*
X187275014Y-81895235D02*
X187312370Y-81870315D01*
X187211772Y-81936225D02*
X187249857Y-81911841D01*
X187148422Y-81974477D02*
X187186350Y-81952090D01*
X187086356Y-82008052D02*
X187123320Y-81988703D01*
X187026668Y-82036015D02*
X187062065Y-82020101D01*
X186970054Y-82058433D02*
X187003531Y-82045778D01*
X186916764Y-82076140D02*
X186948241Y-82066144D01*
X186866552Y-82090490D02*
X186896253Y-82082280D01*
X186818639Y-82103116D02*
X186834196Y-82099056D01*
X186847115Y-82095686D01*
X186771815Y-82115694D02*
X186799833Y-82108047D01*
X186724965Y-82129744D02*
X186753132Y-82121003D01*
X186677802Y-82146442D02*
X186706119Y-82135964D01*
X186631586Y-82166444D02*
X186659012Y-82153928D01*
X186589512Y-82189757D02*
X186613865Y-82175294D01*
X186555687Y-82215869D02*
X186574481Y-82199829D01*
X186533266Y-82244016D02*
X186544881Y-82226875D01*
X186522589Y-82273461D02*
X186527353Y-82255642D01*
X186520628Y-82303594D02*
X186520781Y-82285452D01*
X186523512Y-82333631D02*
X186521253Y-82315694D01*
X186529960Y-82362206D02*
X186525487Y-82345398D01*
X186542274Y-82387451D02*
X186533774Y-82372930D01*
X186563295Y-82407871D02*
X186549270Y-82396400D01*
X186592918Y-82423277D02*
X186574005Y-82414741D01*
X186627901Y-82434786D02*
X186606382Y-82428360D01*
X186664680Y-82443991D02*
X186642511Y-82438714D01*
X186702259Y-82452099D02*
X186679523Y-82447346D01*
X186742851Y-82459606D02*
X186717813Y-82455181D01*
X186790131Y-82466555D02*
X186760511Y-82462476D01*
X186847133Y-82472866D02*
X186811345Y-82469177D01*
X186914591Y-82478614D02*
X186872597Y-82475237D01*
X186990876Y-82484058D02*
X186943959Y-82480815D01*
X187072845Y-82489544D02*
X187023056Y-82486223D01*
X187156749Y-82495388D02*
X187106366Y-82491810D01*
X187239145Y-82501769D02*
X187190131Y-82497856D01*
X187317801Y-82508617D02*
X187271249Y-82504455D01*
X187392408Y-82515532D02*
X187348204Y-82511412D01*
X187348197Y-82511411D01*
X187464360Y-82521876D02*
X187421451Y-82518202D01*
X187535846Y-82526967D02*
X187492872Y-82524142D01*
X187608887Y-82530302D02*
X187564725Y-82528587D01*
X187684360Y-82531760D02*
X187638717Y-82531155D01*
X187761045Y-82531826D02*
X187715038Y-82531935D01*
X187834985Y-82531725D02*
X187791388Y-82531703D01*
X187900462Y-82533230D02*
X187862844Y-82531957D01*
X187952109Y-82538233D02*
X187923485Y-82534588D01*
X187987138Y-82548278D02*
X187968651Y-82541415D01*
X188007526Y-82564114D02*
X187997127Y-82553734D01*
X188020897Y-82585393D02*
X188019409Y-82582727D01*
X188016307Y-82577187D01*
X188014782Y-82574500D01*
X188013264Y-82571871D01*
X188036947Y-82610897D02*
X188026336Y-82595063D01*
X188061875Y-82639023D02*
X188045404Y-82621865D01*
X188096030Y-82668176D02*
X188074308Y-82650629D01*
X188136208Y-82697022D02*
X188111466Y-82679835D01*
X188178912Y-82724698D02*
X188153073Y-82708302D01*
X188223206Y-82750987D02*
X188196326Y-82735411D01*
X188271204Y-82776244D02*
X188241626Y-82761206D01*
X188326581Y-82801108D02*
X188291987Y-82786203D01*
X188392852Y-82826201D02*
X188351267Y-82811078D01*
X188471658Y-82851817D02*
X188422499Y-82836369D01*
X188561393Y-82877687D02*
X188506147Y-82862166D01*
X188657406Y-82903069D02*
X188599253Y-82887974D01*
X188753233Y-82927036D02*
X188696230Y-82912929D01*
X188841938Y-82948803D02*
X188790231Y-82936113D01*
X188917442Y-82968035D02*
X188874460Y-82956873D01*
X188975857Y-82985169D02*
X188943518Y-82975138D01*
X189016804Y-83001724D02*
X188994718Y-82991728D01*
X189044074Y-83020391D02*
X189029380Y-83008662D01*
X189064024Y-83044362D02*
X189052698Y-83028978D01*
X189082752Y-83076243D02*
X189071373Y-83055803D01*
X189103709Y-83117156D02*
X189090692Y-83091241D01*
X189127400Y-83166711D02*
X189112828Y-83135753D01*
X189152441Y-83223523D02*
X189137350Y-83188463D01*
X189176705Y-83285784D02*
X189162404Y-83247732D01*
X189198437Y-83351805D02*
X189185860Y-83311725D01*
X189216857Y-83420334D02*
X189206317Y-83378907D01*
X189232035Y-83490517D02*
X189223385Y-83448203D01*
X189244594Y-83561799D02*
X189237396Y-83518894D01*
X189255418Y-83633806D02*
X189249123Y-83590513D01*
X189265353Y-83706244D02*
X189259478Y-83662736D01*
X189274940Y-83778800D02*
X189269219Y-83735271D01*
X189284327Y-83851125D02*
X189278728Y-83807788D01*
X189293358Y-83922903D02*
X189288012Y-83879937D01*
X189301680Y-83993923D02*
X189296821Y-83951433D01*
X189308865Y-84064158D02*
X189304754Y-84022128D01*
X189314510Y-84133838D02*
X189311376Y-84092086D01*
X189318346Y-84203507D02*
X189316329Y-84161660D01*
X189320249Y-84273969D02*
X189319401Y-84231512D01*
X189320212Y-84346158D02*
X189320523Y-84302521D01*
X189318303Y-84421007D02*
X189319723Y-84375640D01*
X189314628Y-84499307D02*
X189317090Y-84451766D01*
X189309290Y-84581574D02*
X189312736Y-84531598D01*
X189302359Y-84667941D02*
X189306754Y-84615511D01*
X189293860Y-84758178D02*
X189299195Y-84703483D01*
X189283777Y-84851772D02*
X189290067Y-84795154D01*
X189272057Y-84948025D02*
X189279339Y-84889926D01*
X189258621Y-85046146D02*
X189266947Y-84987048D01*
X189243362Y-85145339D02*
X189252799Y-85085713D01*
X189226156Y-85244900D02*
X189236781Y-85185149D01*
X189206863Y-85344306D02*
X189218761Y-85284713D01*
X189185340Y-85443249D02*
X189198597Y-85383966D01*
X189161455Y-85541602D02*
X189176148Y-85482682D01*
X189135108Y-85639362D02*
X189151291Y-85580792D01*
X189106242Y-85736595D02*
X189123941Y-85678329D01*
X189074867Y-85833378D02*
X189094065Y-85775371D01*
X189041073Y-85929749D02*
X189061702Y-85871989D01*
X189005050Y-86025645D02*
X189026981Y-85968188D01*
X188967103Y-86120853D02*
X188990135Y-86063852D01*
X188927647Y-86214998D02*
X188951517Y-86158700D01*
X188887166Y-86307604D02*
X188911575Y-86252305D01*
X188846160Y-86398171D02*
X188870809Y-86344169D01*
X188805098Y-86486255D02*
X188829714Y-86433803D01*
X188764367Y-86571545D02*
X188788735Y-86520804D01*
X188724218Y-86653944D02*
X188748209Y-86604935D01*
X188684717Y-86733648D02*
X188708324Y-86686204D01*
X188645703Y-86811210D02*
X188669058Y-86764943D01*
X188606794Y-86887529D02*
X188630156Y-86841854D01*
X188567460Y-86963730D02*
X188591163Y-86917947D01*
X188527106Y-87041035D02*
X188551512Y-86994405D01*
X188485151Y-87120629D02*
X188510600Y-87072455D01*
X188441109Y-87203528D02*
X188467874Y-87153234D01*
X188394675Y-87290451D02*
X188422906Y-87237661D01*
X188345799Y-87381691D02*
X188375484Y-87326298D01*
X188294713Y-87477073D02*
X188325671Y-87419250D01*
X188241888Y-87576034D02*
X188273805Y-87516170D01*
X188187972Y-87677723D02*
X188220437Y-87616365D01*
X188133730Y-87781105D02*
X188166270Y-87718895D01*
X188079986Y-87885064D02*
X188112102Y-87822677D01*
X188027556Y-87988505D02*
X188058764Y-87926587D01*
X187977195Y-88090459D02*
X188007055Y-88029567D01*
X187929530Y-88190185D02*
X187957689Y-88130722D01*
X187885009Y-88287264D02*
X187911228Y-88229428D01*
X187843880Y-88381622D02*
X187868039Y-88325409D01*
X187806218Y-88473466D02*
X187828295Y-88418715D01*
X187771966Y-88563204D02*
X187792014Y-88509645D01*
X187740968Y-88651365D02*
X187759092Y-88598667D01*
X187713004Y-88738521D02*
X187729343Y-88686341D01*
X187687832Y-88825204D02*
X187702533Y-88773233D01*
X187665217Y-88911832D02*
X187678417Y-88859842D01*
X187644969Y-88998638D02*
X187656774Y-88946520D01*
X187626953Y-89085677D02*
X187637435Y-89033421D01*
X187611091Y-89172880D02*
X187620289Y-89120541D01*
X187597357Y-89260116D02*
X187605278Y-89207779D01*
X187585778Y-89347256D02*
X187592399Y-89294994D01*
X187576426Y-89434231D02*
X187581696Y-89382072D01*
X187569422Y-89521093D02*
X187573262Y-89468983D01*
X187564931Y-89608071D02*
X187567237Y-89555845D01*
X187563153Y-89695557D02*
X187563798Y-89642958D01*
X187564315Y-89784049D02*
X187563161Y-89730767D01*
X187568664Y-89874087D02*
X187565560Y-89819796D01*
X187576453Y-89966189D02*
X187571247Y-89910586D01*
X187587933Y-90060782D02*
X187580475Y-90003629D01*
X187603344Y-90158142D02*
X187593493Y-90099300D01*
X187622904Y-90258328D02*
X187610532Y-90197797D01*
X187646798Y-90361168D02*
X187631800Y-90299085D01*
X187675170Y-90466286D02*
X187657467Y-90402905D01*
X187708110Y-90573147D02*
X187687657Y-90508809D01*
X187745644Y-90681096D02*
X187722436Y-90616210D01*
X187787724Y-90789402D02*
X187761801Y-90724416D01*
X187834216Y-90897301D02*
X187805672Y-90832674D01*
X187884888Y-91004031D02*
X187853877Y-90940217D01*
X187939404Y-91108882D02*
X187906145Y-91046298D01*
X187997313Y-91211232D02*
X187962093Y-91150235D01*
X188058068Y-91310566D02*
X188021227Y-91251448D01*
X188121069Y-91406491D02*
X188082972Y-91349470D01*
X188185706Y-91498735D02*
X188146718Y-91443954D01*
X188251402Y-91587157D02*
X188211862Y-91534682D01*
X188317659Y-91671750D02*
X188277850Y-91621564D01*
X188384100Y-91752651D02*
X188344228Y-91704650D01*
X188450512Y-91830143D02*
X188410676Y-91784135D01*
X188516894Y-91904662D02*
X188477061Y-91860361D01*
X188583480Y-91976794D02*
X188543474Y-91933829D01*
X188650701Y-92047236D02*
X188610238Y-92005175D01*
X188719111Y-92116736D02*
X188677847Y-92075127D01*
X188789307Y-92186032D02*
X188746882Y-92144438D01*
X188861852Y-92255790D02*
X188817939Y-92213826D01*
X188937192Y-92326542D02*
X188891545Y-92283913D01*
X189015582Y-92398628D02*
X188968083Y-92355162D01*
X189097004Y-92472130D02*
X189047709Y-92427822D01*
X189181115Y-92546837D02*
X189130279Y-92501857D01*
X189267284Y-92622272D02*
X189215324Y-92576942D01*
X189354684Y-92697770D02*
X189302120Y-92652511D01*
X189442383Y-92772555D02*
X189389783Y-92727845D01*
X189529439Y-92845820D02*
X189477363Y-92802142D01*
X189614994Y-92916801D02*
X189563938Y-92874602D01*
X189698367Y-92984860D02*
X189648707Y-92944499D01*
X189779150Y-93049557D02*
X189731084Y-93011263D01*
X189857296Y-93110733D02*
X189810791Y-93074555D01*
X189933162Y-93168543D02*
X189887947Y-93134341D01*
X190007409Y-93223387D02*
X189963052Y-93190892D01*
X190080841Y-93275799D02*
X190036849Y-93244678D01*
X190154243Y-93326329D02*
X190110158Y-93296258D01*
X190228219Y-93375429D02*
X190183717Y-93346160D01*
X190303032Y-93423336D02*
X190258018Y-93394766D01*
X190378440Y-93469956D02*
X190333145Y-93442199D01*
X190453575Y-93514786D02*
X190408616Y-93488205D01*
X190527026Y-93557012D02*
X190483316Y-93532127D01*
X190597089Y-93595751D02*
X190555678Y-93573086D01*
X190662024Y-93630303D02*
X190623943Y-93610233D01*
X190720317Y-93660409D02*
X190686424Y-93643007D01*
X190770941Y-93686502D02*
X190741760Y-93671386D01*
X190813593Y-93709923D02*
X190789188Y-93696148D01*
X190848693Y-93732738D02*
X190828717Y-93718989D01*
X190877103Y-93757104D02*
X190860994Y-93742121D01*
X190899800Y-93784549D02*
X190886977Y-93767560D01*
X190917598Y-93815453D02*
X190907608Y-93796406D01*
X190931113Y-93849463D02*
X190923610Y-93828619D01*
X190940894Y-93886559D02*
X190935547Y-93863798D01*
X190947562Y-93928029D02*
X190943983Y-93902349D01*
X190951842Y-93976330D02*
X190949581Y-93946145D01*
X190954501Y-94033833D02*
X190953098Y-93997830D01*
X190956278Y-94101409D02*
X190955298Y-94059387D01*
X190957800Y-94177076D02*
X190956988Y-94135824D01*
X190956889Y-94130724D01*
X190959517Y-94255708D02*
X190958436Y-94208513D01*
X190961641Y-94330580D02*
X190960302Y-94286681D01*
X190964086Y-94395397D02*
X190962589Y-94358367D01*
X190966415Y-94446350D02*
X190965552Y-94427988D01*
X190965078Y-94417973D01*
X190967781Y-94484140D02*
X190967180Y-94463170D01*
X190966954Y-94515180D02*
X190967868Y-94496965D01*
X190962743Y-94548871D02*
X190965840Y-94527643D01*
X190954679Y-94592155D02*
X190960080Y-94564520D01*
X190943571Y-94644753D02*
X190950591Y-94612122D01*
X190931160Y-94699465D02*
X190938677Y-94666959D01*
X190919038Y-94746604D02*
X190926194Y-94720081D01*
X190907499Y-94778862D02*
X190914394Y-94762011D01*
X190894569Y-94795633D02*
X190902755Y-94787639D01*
X190876580Y-94802683D02*
X190888387Y-94799412D01*
X190850431Y-94806707D02*
X190867479Y-94804396D01*
X190815018Y-94811451D02*
X190837658Y-94808366D01*
X190770777Y-94818000D02*
X190798582Y-94813793D01*
X190718749Y-94826134D02*
X190751063Y-94821049D01*
X190659925Y-94835329D02*
X190696177Y-94829689D01*
X190595210Y-94845028D02*
X190634863Y-94839171D01*
X190525544Y-94854678D02*
X190568018Y-94848930D01*
X190452046Y-94863777D02*
X190496635Y-94858431D01*
X190376143Y-94871908D02*
X190421935Y-94867198D01*
X190299626Y-94878782D02*
X190345499Y-94874861D01*
X190224440Y-94884266D02*
X190269225Y-94881186D01*
X190152347Y-94888418D02*
X190195037Y-94886115D01*
X190084586Y-94891519D02*
X190124538Y-94889788D01*
X190021530Y-94894103D02*
X190058674Y-94892584D01*
X189962358Y-94896988D02*
X189997383Y-94895147D01*
X189905093Y-94901215D02*
X189939324Y-94898405D01*
X189847463Y-94907793D02*
X189882230Y-94903435D01*
X189788055Y-94917380D02*
X189824002Y-94911153D01*
X189727471Y-94929958D02*
X189763852Y-94921998D01*
X189669411Y-94944533D02*
X189703490Y-94935595D01*
X189620468Y-94959266D02*
X189647971Y-94950537D01*
X189587613Y-94972382D02*
X189604507Y-94964846D01*
X189575053Y-94983280D02*
X189579450Y-94977041D01*
X189581434Y-94993451D02*
X189575089Y-94987280D01*
X189600522Y-95005473D02*
X189587651Y-94997847D01*
X189625630Y-95020259D02*
X189610042Y-95011002D01*
X189652181Y-95036820D02*
X189636239Y-95026715D01*
X189678423Y-95054016D02*
X189662726Y-95043641D01*
X189705307Y-95071843D02*
X189688951Y-95061011D01*
X189734671Y-95091090D02*
X189728006Y-95086735D01*
X189716584Y-95079270D01*
X189766817Y-95112389D02*
X189747203Y-95099288D01*
X189799240Y-95135524D02*
X189779991Y-95121417D01*
X189828247Y-95159452D02*
X189811583Y-95145069D01*
X189851686Y-95182600D02*
X189838472Y-95168947D01*
X189870896Y-95203348D02*
X189859802Y-95191343D01*
X189888607Y-95221419D02*
X189882733Y-95215535D01*
X189878092Y-95210896D01*
X189903942Y-95239873D02*
X189895397Y-95228377D01*
X189910757Y-95265035D02*
X189908427Y-95248487D01*
X189905317Y-95300927D02*
X189910278Y-95277803D01*
X189895932Y-95342611D02*
X189901102Y-95317441D01*
X189899679Y-95377566D02*
X189894353Y-95358516D01*
X189925769Y-95395351D02*
X189906911Y-95387596D01*
X189959815Y-95397315D02*
X189940156Y-95397865D01*
X189975903Y-95394939D02*
X189969866Y-95396262D01*
X189980962Y-95394340D02*
X189978606Y-95394433D01*
X189977439Y-95394485D01*
X190007558Y-95392806D02*
X189986730Y-95394079D01*
X190066587Y-95388894D02*
X190026516Y-95391586D01*
X190149816Y-95383156D02*
X190102008Y-95386466D01*
X190097230Y-95386797D01*
X190240252Y-95377092D02*
X190186138Y-95380658D01*
X190319692Y-95372308D02*
X190274894Y-95374903D01*
X190374038Y-95369820D02*
X190345636Y-95370917D01*
X190398378Y-95369387D02*
X190388648Y-95369466D01*
X190405879Y-95369267D02*
X190400692Y-95369326D01*
X190448479Y-95369261D02*
X190415334Y-95369317D01*
X190519798Y-95366492D02*
X190476251Y-95368870D01*
X190565167Y-95361293D02*
X190562674Y-95361566D01*
X190559219Y-95362024D01*
X190553871Y-95362807D01*
X190551647Y-95363141D01*
X190544717Y-95364175D01*
X190574723Y-95369415D02*
X190572172Y-95361099D01*
X190585130Y-95402566D02*
X190576974Y-95379319D01*
X190604117Y-95442825D02*
X190592070Y-95419455D01*
X190623374Y-95468751D02*
X190612157Y-95456070D01*
X190641499Y-95479911D02*
X190630514Y-95474638D01*
X190664225Y-95491297D02*
X190649492Y-95483332D01*
X190694760Y-95514991D02*
X190675316Y-95498548D01*
X190729818Y-95551978D02*
X190708513Y-95528079D01*
X190762493Y-95595940D02*
X190743747Y-95569076D01*
X190786235Y-95638930D02*
X190773652Y-95613729D01*
X190798330Y-95676454D02*
X190792820Y-95654867D01*
X190800296Y-95708616D02*
X190800426Y-95689993D01*
X190795466Y-95737700D02*
X190799165Y-95720549D01*
X190786442Y-95765434D02*
X190792372Y-95748952D01*
X190774707Y-95791509D02*
X190782052Y-95776211D01*
X190763003Y-95813717D02*
X190769716Y-95801180D01*
X190757178Y-95828762D02*
X190759320Y-95821025D01*
X190762779Y-95834869D02*
X190757526Y-95832508D01*
X190779389Y-95834684D02*
X190768035Y-95835407D01*
X190802865Y-95833100D02*
X190787977Y-95833986D01*
X190831619Y-95832668D02*
X190813538Y-95832710D01*
X190866898Y-95833193D02*
X190844633Y-95832807D01*
X190909902Y-95833537D02*
X190882926Y-95833428D01*
X190959931Y-95832949D02*
X190928978Y-95833468D01*
X191014774Y-95831272D02*
X190981325Y-95832432D01*
X191071759Y-95828833D02*
X191037417Y-95830373D01*
X191128799Y-95826323D02*
X191094658Y-95827783D01*
X191185157Y-95824655D02*
X191151442Y-95825464D01*
X191241264Y-95824776D02*
X191207579Y-95824376D01*
X191298094Y-95827443D02*
X191263818Y-95825423D01*
X191356511Y-95833005D02*
X191321186Y-95829232D01*
X191416640Y-95841191D02*
X191380338Y-95835930D01*
X191477586Y-95851129D02*
X191440988Y-95844976D01*
X191537786Y-95861747D02*
X191501894Y-95855341D01*
X191595527Y-95872285D02*
X191561358Y-95866002D01*
X191649472Y-95882811D02*
X191617736Y-95876449D01*
X191699146Y-95894678D02*
X191669974Y-95887214D01*
X191744987Y-95910306D02*
X191718007Y-95900191D01*
X191787720Y-95931917D02*
X191762506Y-95917948D01*
X191827575Y-95960036D02*
X191804116Y-95942255D01*
X191863554Y-95992056D02*
X191842671Y-95972573D01*
X191893549Y-96022156D02*
X191886285Y-96014735D01*
X191876595Y-96004842D01*
X191916073Y-96043771D02*
X191903705Y-96032466D01*
X191932451Y-96052793D02*
X191923295Y-96049369D01*
X191948100Y-96049887D02*
X191938343Y-96053208D01*
X191969578Y-96038687D02*
X191955475Y-96046407D01*
X191999903Y-96021969D02*
X191994861Y-96024739D01*
X191980355Y-96032718D01*
X192038038Y-96000703D02*
X192014161Y-96014130D01*
X192080960Y-95974913D02*
X192054708Y-95991075D01*
X192125747Y-95944589D02*
X192098751Y-95963451D01*
X192170553Y-95910086D02*
X192143749Y-95931379D01*
X192214467Y-95871994D02*
X192188286Y-95895344D01*
X192257215Y-95830946D02*
X192231743Y-95855979D01*
X192298859Y-95787414D02*
X192274029Y-95813885D01*
X192339533Y-95741578D02*
X192315268Y-95769423D01*
X192379272Y-95693406D02*
X192355573Y-95722665D01*
X192417904Y-95642845D02*
X192394912Y-95673539D01*
X192454946Y-95590031D02*
X192433006Y-95622037D01*
X192489493Y-95535484D02*
X192469218Y-95568417D01*
X192520177Y-95480246D02*
X192502451Y-95513406D01*
X192545397Y-95425684D02*
X192531190Y-95458226D01*
X192563737Y-95373080D02*
X192553842Y-95404277D01*
X192574403Y-95323199D02*
X192569174Y-95352698D01*
X192577651Y-95275868D02*
X192576749Y-95303941D01*
X192575007Y-95229766D02*
X192577333Y-95257366D01*
X192568882Y-95182874D02*
X192572901Y-95211271D01*
X192561905Y-95133206D02*
X192566051Y-95163537D01*
X192556249Y-95079554D02*
X192559332Y-95112376D01*
X192553131Y-95022010D02*
X192554578Y-95057065D01*
X192552850Y-94961780D02*
X192552600Y-94998211D01*
X192555097Y-94900646D02*
X192553406Y-94937334D01*
X192559272Y-94840420D02*
X192556521Y-94876311D01*
X192564799Y-94782398D02*
X192561310Y-94816825D01*
X192571338Y-94727018D02*
X192567277Y-94759852D01*
X192578732Y-94673974D02*
X192574174Y-94705491D01*
X192586874Y-94622499D02*
X192581885Y-94653210D01*
X192595567Y-94571654D02*
X192590289Y-94602129D01*
X192604410Y-94520606D02*
X192599115Y-94551310D01*
X192612897Y-94468898D02*
X192607889Y-94500032D01*
X192620707Y-94416687D02*
X192616129Y-94448049D01*
X192628027Y-94364991D02*
X192623669Y-94395825D01*
X192635856Y-94315907D02*
X192630979Y-94344784D01*
X192646085Y-94272444D02*
X192639436Y-94297462D01*
X192661114Y-94237634D02*
X192651209Y-94257045D01*
X192683350Y-94213422D02*
X192668780Y-94226300D01*
X192714718Y-94199678D02*
X192694426Y-94206450D01*
X192756383Y-94194199D02*
X192729793Y-94196450D01*
X192808674Y-94193690D02*
X192775716Y-94193482D01*
X192871044Y-94194892D02*
X192832181Y-94194104D01*
X192942095Y-94195419D02*
X192898283Y-94195325D01*
X193019799Y-94193856D02*
X192972331Y-94195170D01*
X193101784Y-94189555D02*
X193052115Y-94192566D01*
X193185633Y-94182419D02*
X193135200Y-94187117D01*
X193269174Y-94172681D02*
X193219224Y-94178891D01*
X193350780Y-94160692D02*
X193302188Y-94168200D01*
X193429589Y-94146733D02*
X193382750Y-94155389D01*
X193505467Y-94130970D02*
X193460366Y-94140691D01*
X193578800Y-94113481D02*
X193535142Y-94124230D01*
X193650274Y-94094299D02*
X193607617Y-94106061D01*
X193720657Y-94073452D02*
X193678542Y-94086208D01*
X193790576Y-94050996D02*
X193748663Y-94064705D01*
X193860332Y-94027053D02*
X193818497Y-94041631D01*
X193929873Y-94001800D02*
X193888194Y-94017136D01*
X193998922Y-93975420D02*
X193957591Y-93991405D01*
X194067109Y-93948061D02*
X194026351Y-93964616D01*
X194134110Y-93919781D02*
X194094103Y-93936888D01*
X194199791Y-93890504D02*
X194160579Y-93908231D01*
X194264308Y-93859982D02*
X194225750Y-93878504D01*
X194328083Y-93827831D02*
X194289894Y-93847394D01*
X194391662Y-93793617D02*
X194353507Y-93814483D01*
X194455564Y-93756950D02*
X194417145Y-93779341D01*
X194520128Y-93717572D02*
X194481277Y-93741615D01*
X194585367Y-93675450D02*
X194546137Y-93701126D01*
X194650862Y-93630844D02*
X194611571Y-93657952D01*
X194715818Y-93584263D02*
X194676988Y-93612467D01*
X194779250Y-93536354D02*
X194741489Y-93565252D01*
X194840154Y-93487791D02*
X194804053Y-93516983D01*
X194897694Y-93439162D02*
X194863719Y-93468316D01*
X194951384Y-93390849D02*
X194919762Y-93419774D01*
X195001244Y-93342936D02*
X194971880Y-93371631D01*
X195047790Y-93295205D02*
X195020310Y-93323840D01*
X195091848Y-93247247D02*
X195065725Y-93276087D01*
X195134345Y-93198586D02*
X195109021Y-93227920D01*
X195176095Y-93148800D02*
X195151112Y-93178864D01*
X195217599Y-93097642D02*
X195192717Y-93128550D01*
X195258919Y-93045110D02*
X195234166Y-93076826D01*
X195299755Y-92991405D02*
X195275356Y-93023785D01*
X195339592Y-92936848D02*
X195315879Y-92969687D01*
X195377837Y-92881791D02*
X195355167Y-92914877D01*
X195413970Y-92826540D02*
X195392635Y-92859703D01*
X195447669Y-92771276D02*
X195427827Y-92804429D01*
X195478857Y-92716043D02*
X195460517Y-92749180D01*
X195507681Y-92660774D02*
X195490724Y-92693949D01*
X195534483Y-92605325D02*
X195518676Y-92638633D01*
X195559773Y-92549516D02*
X195544787Y-92583069D01*
X195584196Y-92493155D02*
X195569625Y-92527067D01*
X195608486Y-92436063D02*
X195593881Y-92470439D01*
X195633403Y-92378079D02*
X195618309Y-92413013D01*
X195659662Y-92319063D02*
X195643661Y-92354636D01*
X195687867Y-92258897D02*
X195670617Y-92295175D01*
X195718445Y-92197493D02*
X195699722Y-92234526D01*
X195751605Y-92134813D02*
X195731317Y-92172613D01*
X195787326Y-92070911D02*
X195765519Y-92109427D01*
X195825357Y-92005982D02*
X195802217Y-92045073D01*
X195865220Y-91940416D02*
X195841068Y-91979817D01*
X195906204Y-91874842D02*
X195881501Y-91914135D01*
X195947377Y-91810172D02*
X195922715Y-91848768D01*
X195987661Y-91747534D02*
X195963697Y-91784733D01*
X196026008Y-91688088D02*
X196003354Y-91723204D01*
X196061588Y-91632812D02*
X196040697Y-91665299D01*
X196093980Y-91582293D02*
X196075032Y-91611871D01*
X196123358Y-91536514D02*
X196106145Y-91563299D01*
X196150619Y-91494716D02*
X196134495Y-91519274D01*
X196177238Y-91455561D02*
X196161250Y-91478760D01*
X196204952Y-91417491D02*
X196188041Y-91440273D01*
X196235433Y-91379103D02*
X196216629Y-91402261D01*
X196269984Y-91339479D02*
X196248574Y-91363479D01*
X196309427Y-91298241D02*
X196284990Y-91323235D01*
X196354143Y-91255384D02*
X196326513Y-91281332D01*
X196404125Y-91211087D02*
X196373360Y-91237867D01*
X196459034Y-91165517D02*
X196425384Y-91193043D01*
X196518254Y-91118680D02*
X196482125Y-91146980D01*
X196580955Y-91070392D02*
X196542874Y-91099600D01*
X196646160Y-91020358D02*
X196606731Y-91050663D01*
X196712805Y-90968240D02*
X196672674Y-90999846D01*
X196779807Y-90913734D02*
X196739623Y-90946813D01*
X196846130Y-90856648D02*
X196806504Y-90891294D01*
X196910844Y-90796970D02*
X196872314Y-90833157D01*
X196973134Y-90734942D02*
X196936175Y-90772485D01*
X197032228Y-90671106D02*
X196997303Y-90709630D01*
X197087299Y-90606355D02*
X197054919Y-90645269D01*
X197137373Y-90541984D02*
X197108152Y-90580447D01*
X197181229Y-90479736D02*
X197155941Y-90516633D01*
X197217307Y-90421853D02*
X197196947Y-90455758D01*
X197243672Y-90371048D02*
X197229449Y-90400278D01*
X197258336Y-90330025D02*
X197251411Y-90353012D01*
X197259913Y-90300585D02*
X197260983Y-90316447D01*
X197248307Y-90282693D02*
X197257190Y-90291791D01*
X197225103Y-90273928D02*
X197240606Y-90278055D01*
X197192785Y-90270565D02*
X197213382Y-90272019D01*
X197153265Y-90269561D02*
X197177978Y-90269948D01*
X197107149Y-90269577D02*
X197135812Y-90269445D01*
X197054053Y-90270557D02*
X197087007Y-90269797D01*
X196993143Y-90273022D02*
X197030921Y-90271282D01*
X196923659Y-90277384D02*
X196966673Y-90274473D01*
X196845282Y-90283567D02*
X196893643Y-90279607D01*
X196758277Y-90291079D02*
X196778446Y-90289319D01*
X196811733Y-90286417D01*
X196663577Y-90299175D02*
X196721461Y-90294285D01*
X196562877Y-90307029D02*
X196624053Y-90302408D01*
X196458720Y-90313895D02*
X196521529Y-90309966D01*
X196354587Y-90319280D02*
X196416793Y-90316291D01*
X196254970Y-90323099D02*
X196313726Y-90321030D01*
X196165096Y-90325691D02*
X196217204Y-90324288D01*
X196089929Y-90327504D02*
X196132532Y-90326508D01*
X196032926Y-90328689D02*
X196064261Y-90328084D01*
X195994789Y-90328683D02*
X196014926Y-90328939D01*
X195972217Y-90325793D02*
X195983830Y-90328126D01*
X195957115Y-90316960D02*
X195965752Y-90323397D01*
X195938862Y-90298685D02*
X195943915Y-90303943D01*
X195950965Y-90311266D01*
X195909199Y-90268960D02*
X195929080Y-90288556D01*
X195864688Y-90228138D02*
X195893681Y-90254191D01*
X195805902Y-90178433D02*
X195843159Y-90209389D01*
X195736070Y-90123177D02*
X195779344Y-90156917D01*
X195659712Y-90066080D02*
X195706188Y-90100370D01*
X195581281Y-90010491D02*
X195628390Y-90043427D01*
X195503976Y-89958756D02*
X195550038Y-89989108D01*
X195429422Y-89912060D02*
X195473686Y-89939282D01*
X195357974Y-89870626D02*
X195400391Y-89894713D01*
X195289088Y-89833941D02*
X195330097Y-89855296D01*
X195221679Y-89800990D02*
X195261986Y-89820282D01*
X195154494Y-89770482D02*
X195194853Y-89788511D01*
X195086470Y-89741076D02*
X195127466Y-89758640D01*
X195016997Y-89711572D02*
X195058920Y-89729362D01*
X194945938Y-89680980D02*
X194988805Y-89699556D01*
X194873548Y-89648557D02*
X194917152Y-89668325D01*
X194800394Y-89613839D02*
X194844354Y-89635034D01*
X194727272Y-89576671D02*
X194771081Y-89599337D01*
X194655128Y-89537245D02*
X194698201Y-89561213D01*
X194584966Y-89496101D02*
X194626699Y-89520997D01*
X194517745Y-89454041D02*
X194557578Y-89479355D01*
X194454245Y-89411962D02*
X194491744Y-89437153D01*
X194394944Y-89370684D02*
X194429878Y-89395283D01*
X194339888Y-89330782D02*
X194372301Y-89354491D01*
X194288561Y-89292412D02*
X194318856Y-89315213D01*
X194239795Y-89255181D02*
X194268772Y-89277396D01*
X194191862Y-89218196D02*
X194220627Y-89240423D01*
X194142721Y-89180288D02*
X194172527Y-89203254D01*
X194090291Y-89140241D02*
X194122377Y-89164667D01*
X194032711Y-89097027D02*
X194068141Y-89123486D01*
X193968594Y-89050028D02*
X194008115Y-89078818D01*
X193897133Y-88999115D02*
X193941144Y-89030241D01*
X193818048Y-88944588D02*
X193866644Y-88977813D01*
X193731494Y-88887073D02*
X193784522Y-88921978D01*
X193637979Y-88827428D02*
X193695087Y-88863470D01*
X193538275Y-88766652D02*
X193598966Y-88803218D01*
X193433333Y-88705782D02*
X193497016Y-88742250D01*
X193324196Y-88645801D02*
X193390237Y-88681595D01*
X193211916Y-88587545D02*
X193279687Y-88622191D01*
X193097499Y-88531652D02*
X193166405Y-88564799D01*
X192981899Y-88478569D02*
X193051374Y-88509973D01*
X192866027Y-88428589D02*
X192935532Y-88458097D01*
X192750759Y-88381877D02*
X192819772Y-88409407D01*
X192636940Y-88338496D02*
X192704959Y-88364023D01*
X192525395Y-88298442D02*
X192591927Y-88321977D01*
X192416932Y-88261671D02*
X192481493Y-88283245D01*
X192312355Y-88228126D02*
X192374465Y-88247772D01*
X192212465Y-88197772D02*
X192271642Y-88215507D01*
X192118059Y-88170612D02*
X192173828Y-88186427D01*
X192029863Y-88146677D02*
X192081806Y-88160552D01*
X191948418Y-88125987D02*
X191996246Y-88137915D01*
X191873964Y-88108506D02*
X191917586Y-88118518D01*
X191806328Y-88094102D02*
X191845917Y-88102296D01*
X191744800Y-88082507D02*
X191780871Y-88089067D01*
X191688028Y-88073269D02*
X191721494Y-88078495D01*
X191634034Y-88065770D02*
X191666163Y-88070055D01*
X191580538Y-88059336D02*
X191612714Y-88063080D01*
X191525402Y-88053405D02*
X191558857Y-88056918D01*
X191467075Y-88047688D02*
X191502620Y-88051091D01*
X191405004Y-88042316D02*
X191442802Y-88045462D01*
X191339745Y-88037813D02*
X191379305Y-88040340D01*
X191272723Y-88034873D02*
X191313081Y-88036356D01*
X191205924Y-88034105D02*
X191245823Y-88034209D01*
X191141595Y-88035772D02*
X191179670Y-88034408D01*
X191081941Y-88039541D02*
X191116895Y-88037013D01*
X191028814Y-88044368D02*
X191059609Y-88041408D01*
X190983401Y-88048631D02*
X191009445Y-88046281D01*
X190945903Y-88050367D02*
X190967245Y-88049843D01*
X190915236Y-88047492D02*
X190932739Y-88050046D01*
X190889061Y-88038090D02*
X190904276Y-88044822D01*
X190864767Y-88020846D02*
X190879212Y-88032421D01*
X190840767Y-87995510D02*
X190855166Y-88011895D01*
X190817061Y-87962971D02*
X190831193Y-87983484D01*
X190794600Y-87924704D02*
X190807813Y-87948419D01*
X190774382Y-87882085D02*
X190786130Y-87908238D01*
X190756732Y-87835857D02*
X190766945Y-87864113D01*
X190741275Y-87786149D02*
X190750263Y-87816503D01*
X190727288Y-87732807D02*
X190735512Y-87765369D01*
X190714079Y-87675751D02*
X190721923Y-87710536D01*
X190701327Y-87615281D02*
X190708913Y-87652037D01*
X190689176Y-87552133D02*
X190696353Y-87590363D01*
X190678079Y-87487257D02*
X190684543Y-87526376D01*
X190668598Y-87421563D02*
X190674007Y-87461049D01*
X190661213Y-87355663D02*
X190665306Y-87395211D01*
X190656129Y-87289626D02*
X190658834Y-87329288D01*
X190653198Y-87222905D02*
X190654656Y-87263096D01*
X190652007Y-87154540D02*
X190652495Y-87195878D01*
X190652010Y-87083435D02*
X190651867Y-87126581D01*
X190652665Y-87008633D02*
X190652207Y-87054122D01*
X190653563Y-86929588D02*
X190653006Y-86977665D01*
X190654551Y-86846407D02*
X190653944Y-86896902D01*
X190655742Y-86759852D02*
X190654980Y-86812220D01*
X190657443Y-86671137D02*
X190656320Y-86724598D01*
X190660070Y-86581694D02*
X190658326Y-86635371D01*
X190664052Y-86492943D02*
X190661432Y-86546001D01*
X190669756Y-86406060D02*
X190666056Y-86457846D01*
X190677391Y-86321745D02*
X190672515Y-86371926D01*
X190686936Y-86240032D02*
X190680932Y-86288694D01*
X190698147Y-86160305D02*
X190691194Y-86207904D01*
X190710615Y-86081491D02*
X190702977Y-86128726D01*
X190723839Y-86002266D02*
X190721487Y-86016260D01*
X190715827Y-86049955D01*
X190737289Y-85921265D02*
X190729219Y-85970220D01*
X190750482Y-85837285D02*
X190742634Y-85888189D01*
X190763046Y-85749493D02*
X190755621Y-85802777D01*
X190774763Y-85657553D02*
X190767868Y-85713343D01*
X190785555Y-85561584D02*
X190779219Y-85619748D01*
X190795451Y-85462049D02*
X190789643Y-85522264D01*
X190804545Y-85359645D02*
X190799201Y-85421465D01*
X190812967Y-85255196D02*
X190808006Y-85318115D01*
X190820840Y-85149542D02*
X190816191Y-85213061D01*
X190828248Y-85043429D02*
X190823870Y-85107122D01*
X190835202Y-84937401D02*
X190831101Y-85000978D01*
X190841616Y-84831738D02*
X190837858Y-84895072D01*
X190847327Y-84726479D02*
X190844019Y-84789579D01*
X190852115Y-84621470D02*
X190849397Y-84684454D01*
X190855730Y-84516418D02*
X190853754Y-84579479D01*
X190857915Y-84410938D02*
X190856835Y-84474318D01*
X190858432Y-84304606D02*
X190858387Y-84368562D01*
X190857087Y-84197008D02*
X190858184Y-84261783D01*
X190853749Y-84087791D02*
X190856056Y-84153584D01*
X190848378Y-83976705D02*
X190851905Y-84043649D01*
X190841009Y-83863617D02*
X190845725Y-83931775D01*
X190831737Y-83748499D02*
X190837578Y-83817873D01*
X190820687Y-83631415D02*
X190827575Y-83701953D01*
X190807992Y-83512509D02*
X190815847Y-83584113D01*
X190793767Y-83391995D02*
X190802525Y-83464528D01*
X190778087Y-83270143D02*
X190787710Y-83343435D01*
X190760959Y-83147268D02*
X190771455Y-83221124D01*
X190742301Y-83023718D02*
X190753735Y-83097925D01*
X190721917Y-82899860D02*
X190734423Y-82974196D01*
X190699500Y-82776075D02*
X190713279Y-82850309D01*
X190674659Y-82652754D02*
X190689955Y-82726651D01*
X190646955Y-82530293D02*
X190664037Y-82603614D01*
X190615931Y-82409095D02*
X190635073Y-82481598D01*
X190581148Y-82289563D02*
X190602609Y-82361006D01*
X190542220Y-82172099D02*
X190566222Y-82242241D01*
X190498842Y-82057102D02*
X190525552Y-82125704D01*
X190450830Y-81944966D02*
X190480339Y-82011793D01*
X190398152Y-81836075D02*
X190430455Y-81900898D01*
X190340951Y-81730804D02*
X190375934Y-81793399D01*
X190279531Y-81629518D02*
X190316991Y-81689667D01*
X190214299Y-81532586D02*
X190253981Y-81590068D01*
X190145704Y-81440381D02*
X190187335Y-81494970D01*
X190074181Y-81353290D02*
X190117507Y-81404751D01*
X190000089Y-81271724D02*
X190044910Y-81319807D01*
X189923652Y-81196121D02*
X189969857Y-81240558D01*
X189844899Y-81126957D02*
X189892505Y-81167456D01*
X189763606Y-81064750D02*
X189812789Y-81100994D01*
X189679260Y-81010063D02*
X189730369Y-81041709D01*
X189591144Y-80963463D02*
X189644631Y-80990174D01*
X189498500Y-80925456D02*
X189554813Y-80946941D01*
X189400704Y-80896423D02*
X189460187Y-80912477D01*
X189297438Y-80876551D02*
X189360224Y-80887096D01*
X189188859Y-80865769D02*
X189254770Y-80870891D01*
X189075776Y-80863678D02*
X189144219Y-80863669D01*
X188959819Y-80869485D02*
X189029680Y-80864885D01*
X188843560Y-80881959D02*
X188913155Y-80873573D01*
X188730330Y-80899487D02*
X188797574Y-80888330D01*
X188623758Y-80920239D02*
X188686461Y-80907430D01*
X188527287Y-80942337D02*
X188583444Y-80928999D01*
X188443686Y-80964024D02*
X188491769Y-80951181D01*
X188374563Y-80983839D02*
X188413814Y-80972313D01*
X188319875Y-81000784D02*
X188350599Y-80991092D01*
D10*
X158588752Y-93838710D02*
X159350657Y-93838710D01*
X158969704Y-94219663D02*
X158969704Y-93457758D01*
X151032717Y-71512561D02*
X151080336Y-71417323D01*
X151080336Y-71417323D02*
X151080336Y-71274466D01*
X151080336Y-71274466D02*
X151032717Y-71131609D01*
X151032717Y-71131609D02*
X150937479Y-71036371D01*
X150937479Y-71036371D02*
X150842241Y-70988752D01*
X150842241Y-70988752D02*
X150651765Y-70941133D01*
X150651765Y-70941133D02*
X150508908Y-70941133D01*
X150508908Y-70941133D02*
X150318432Y-70988752D01*
X150318432Y-70988752D02*
X150223194Y-71036371D01*
X150223194Y-71036371D02*
X150127956Y-71131609D01*
X150127956Y-71131609D02*
X150080336Y-71274466D01*
X150080336Y-71274466D02*
X150080336Y-71369704D01*
X150080336Y-71369704D02*
X150127956Y-71512561D01*
X150127956Y-71512561D02*
X150175575Y-71560180D01*
X150175575Y-71560180D02*
X150508908Y-71560180D01*
X150508908Y-71560180D02*
X150508908Y-71369704D01*
X150080336Y-71988752D02*
X151080336Y-71988752D01*
X151080336Y-71988752D02*
X150080336Y-72560180D01*
X150080336Y-72560180D02*
X151080336Y-72560180D01*
X150080336Y-73036371D02*
X151080336Y-73036371D01*
X151080336Y-73036371D02*
X151080336Y-73274466D01*
X151080336Y-73274466D02*
X151032717Y-73417323D01*
X151032717Y-73417323D02*
X150937479Y-73512561D01*
X150937479Y-73512561D02*
X150842241Y-73560180D01*
X150842241Y-73560180D02*
X150651765Y-73607799D01*
X150651765Y-73607799D02*
X150508908Y-73607799D01*
X150508908Y-73607799D02*
X150318432Y-73560180D01*
X150318432Y-73560180D02*
X150223194Y-73512561D01*
X150223194Y-73512561D02*
X150127956Y-73417323D01*
X150127956Y-73417323D02*
X150080336Y-73274466D01*
X150080336Y-73274466D02*
X150080336Y-73036371D01*
X151080336Y-69193514D02*
X151080336Y-69860180D01*
X151080336Y-69860180D02*
X150080336Y-69431609D01*
X151080336Y-67217323D02*
X151080336Y-67026847D01*
X151080336Y-67026847D02*
X151032717Y-66931609D01*
X151032717Y-66931609D02*
X150985098Y-66883990D01*
X150985098Y-66883990D02*
X150842241Y-66788752D01*
X150842241Y-66788752D02*
X150651765Y-66741133D01*
X150651765Y-66741133D02*
X150270813Y-66741133D01*
X150270813Y-66741133D02*
X150175575Y-66788752D01*
X150175575Y-66788752D02*
X150127956Y-66836371D01*
X150127956Y-66836371D02*
X150080336Y-66931609D01*
X150080336Y-66931609D02*
X150080336Y-67122085D01*
X150080336Y-67122085D02*
X150127956Y-67217323D01*
X150127956Y-67217323D02*
X150175575Y-67264942D01*
X150175575Y-67264942D02*
X150270813Y-67312561D01*
X150270813Y-67312561D02*
X150508908Y-67312561D01*
X150508908Y-67312561D02*
X150604146Y-67264942D01*
X150604146Y-67264942D02*
X150651765Y-67217323D01*
X150651765Y-67217323D02*
X150699384Y-67122085D01*
X150699384Y-67122085D02*
X150699384Y-66931609D01*
X150699384Y-66931609D02*
X150651765Y-66836371D01*
X150651765Y-66836371D02*
X150604146Y-66788752D01*
X150604146Y-66788752D02*
X150508908Y-66741133D01*
X151080336Y-64664942D02*
X151080336Y-64188752D01*
X151080336Y-64188752D02*
X150604146Y-64141133D01*
X150604146Y-64141133D02*
X150651765Y-64188752D01*
X150651765Y-64188752D02*
X150699384Y-64283990D01*
X150699384Y-64283990D02*
X150699384Y-64522085D01*
X150699384Y-64522085D02*
X150651765Y-64617323D01*
X150651765Y-64617323D02*
X150604146Y-64664942D01*
X150604146Y-64664942D02*
X150508908Y-64712561D01*
X150508908Y-64712561D02*
X150270813Y-64712561D01*
X150270813Y-64712561D02*
X150175575Y-64664942D01*
X150175575Y-64664942D02*
X150127956Y-64617323D01*
X150127956Y-64617323D02*
X150080336Y-64522085D01*
X150080336Y-64522085D02*
X150080336Y-64283990D01*
X150080336Y-64283990D02*
X150127956Y-64188752D01*
X150127956Y-64188752D02*
X150175575Y-64141133D01*
X150985098Y-61541133D02*
X151032717Y-61588752D01*
X151032717Y-61588752D02*
X151080336Y-61683990D01*
X151080336Y-61683990D02*
X151080336Y-61922085D01*
X151080336Y-61922085D02*
X151032717Y-62017323D01*
X151032717Y-62017323D02*
X150985098Y-62064942D01*
X150985098Y-62064942D02*
X150889860Y-62112561D01*
X150889860Y-62112561D02*
X150794622Y-62112561D01*
X150794622Y-62112561D02*
X150651765Y-62064942D01*
X150651765Y-62064942D02*
X150080336Y-61493514D01*
X150080336Y-61493514D02*
X150080336Y-62112561D01*
X150080336Y-63064942D02*
X150080336Y-62493514D01*
X150080336Y-62779228D02*
X151080336Y-62779228D01*
X151080336Y-62779228D02*
X150937479Y-62683990D01*
X150937479Y-62683990D02*
X150842241Y-62588752D01*
X150842241Y-62588752D02*
X150794622Y-62493514D01*
X150885098Y-58841133D02*
X150932717Y-58888752D01*
X150932717Y-58888752D02*
X150980336Y-58983990D01*
X150980336Y-58983990D02*
X150980336Y-59222085D01*
X150980336Y-59222085D02*
X150932717Y-59317323D01*
X150932717Y-59317323D02*
X150885098Y-59364942D01*
X150885098Y-59364942D02*
X150789860Y-59412561D01*
X150789860Y-59412561D02*
X150694622Y-59412561D01*
X150694622Y-59412561D02*
X150551765Y-59364942D01*
X150551765Y-59364942D02*
X149980336Y-58793514D01*
X149980336Y-58793514D02*
X149980336Y-59412561D01*
X150980336Y-60031609D02*
X150980336Y-60126847D01*
X150980336Y-60126847D02*
X150932717Y-60222085D01*
X150932717Y-60222085D02*
X150885098Y-60269704D01*
X150885098Y-60269704D02*
X150789860Y-60317323D01*
X150789860Y-60317323D02*
X150599384Y-60364942D01*
X150599384Y-60364942D02*
X150361289Y-60364942D01*
X150361289Y-60364942D02*
X150170813Y-60317323D01*
X150170813Y-60317323D02*
X150075575Y-60269704D01*
X150075575Y-60269704D02*
X150027956Y-60222085D01*
X150027956Y-60222085D02*
X149980336Y-60126847D01*
X149980336Y-60126847D02*
X149980336Y-60031609D01*
X149980336Y-60031609D02*
X150027956Y-59936371D01*
X150027956Y-59936371D02*
X150075575Y-59888752D01*
X150075575Y-59888752D02*
X150170813Y-59841133D01*
X150170813Y-59841133D02*
X150361289Y-59793514D01*
X150361289Y-59793514D02*
X150599384Y-59793514D01*
X150599384Y-59793514D02*
X150789860Y-59841133D01*
X150789860Y-59841133D02*
X150885098Y-59888752D01*
X150885098Y-59888752D02*
X150932717Y-59936371D01*
X150932717Y-59936371D02*
X150980336Y-60031609D01*
X149980336Y-56712561D02*
X149980336Y-56141133D01*
X149980336Y-56426847D02*
X150980336Y-56426847D01*
X150980336Y-56426847D02*
X150837479Y-56331609D01*
X150837479Y-56331609D02*
X150742241Y-56236371D01*
X150742241Y-56236371D02*
X150694622Y-56141133D01*
X150980336Y-57331609D02*
X150980336Y-57426847D01*
X150980336Y-57426847D02*
X150932717Y-57522085D01*
X150932717Y-57522085D02*
X150885098Y-57569704D01*
X150885098Y-57569704D02*
X150789860Y-57617323D01*
X150789860Y-57617323D02*
X150599384Y-57664942D01*
X150599384Y-57664942D02*
X150361289Y-57664942D01*
X150361289Y-57664942D02*
X150170813Y-57617323D01*
X150170813Y-57617323D02*
X150075575Y-57569704D01*
X150075575Y-57569704D02*
X150027956Y-57522085D01*
X150027956Y-57522085D02*
X149980336Y-57426847D01*
X149980336Y-57426847D02*
X149980336Y-57331609D01*
X149980336Y-57331609D02*
X150027956Y-57236371D01*
X150027956Y-57236371D02*
X150075575Y-57188752D01*
X150075575Y-57188752D02*
X150170813Y-57141133D01*
X150170813Y-57141133D02*
X150361289Y-57093514D01*
X150361289Y-57093514D02*
X150599384Y-57093514D01*
X150599384Y-57093514D02*
X150789860Y-57141133D01*
X150789860Y-57141133D02*
X150885098Y-57188752D01*
X150885098Y-57188752D02*
X150932717Y-57236371D01*
X150932717Y-57236371D02*
X150980336Y-57331609D01*
X150647003Y-54517323D02*
X149980336Y-54517323D01*
X151027956Y-54279228D02*
X150313670Y-54041133D01*
X150313670Y-54041133D02*
X150313670Y-54660180D01*
X150980336Y-51493514D02*
X150980336Y-52112561D01*
X150980336Y-52112561D02*
X150599384Y-51779228D01*
X150599384Y-51779228D02*
X150599384Y-51922085D01*
X150599384Y-51922085D02*
X150551765Y-52017323D01*
X150551765Y-52017323D02*
X150504146Y-52064942D01*
X150504146Y-52064942D02*
X150408908Y-52112561D01*
X150408908Y-52112561D02*
X150170813Y-52112561D01*
X150170813Y-52112561D02*
X150075575Y-52064942D01*
X150075575Y-52064942D02*
X150027956Y-52017323D01*
X150027956Y-52017323D02*
X149980336Y-51922085D01*
X149980336Y-51922085D02*
X149980336Y-51636371D01*
X149980336Y-51636371D02*
X150027956Y-51541133D01*
X150027956Y-51541133D02*
X150075575Y-51493514D01*
X150980336Y-48293514D02*
X150980336Y-48912561D01*
X150980336Y-48912561D02*
X150599384Y-48579228D01*
X150599384Y-48579228D02*
X150599384Y-48722085D01*
X150599384Y-48722085D02*
X150551765Y-48817323D01*
X150551765Y-48817323D02*
X150504146Y-48864942D01*
X150504146Y-48864942D02*
X150408908Y-48912561D01*
X150408908Y-48912561D02*
X150170813Y-48912561D01*
X150170813Y-48912561D02*
X150075575Y-48864942D01*
X150075575Y-48864942D02*
X150027956Y-48817323D01*
X150027956Y-48817323D02*
X149980336Y-48722085D01*
X149980336Y-48722085D02*
X149980336Y-48436371D01*
X149980336Y-48436371D02*
X150027956Y-48341133D01*
X150027956Y-48341133D02*
X150075575Y-48293514D01*
X150980336Y-49198276D02*
X149980336Y-49531609D01*
X149980336Y-49531609D02*
X150980336Y-49864942D01*
X150980336Y-50103038D02*
X150980336Y-50722085D01*
X150980336Y-50722085D02*
X150599384Y-50388752D01*
X150599384Y-50388752D02*
X150599384Y-50531609D01*
X150599384Y-50531609D02*
X150551765Y-50626847D01*
X150551765Y-50626847D02*
X150504146Y-50674466D01*
X150504146Y-50674466D02*
X150408908Y-50722085D01*
X150408908Y-50722085D02*
X150170813Y-50722085D01*
X150170813Y-50722085D02*
X150075575Y-50674466D01*
X150075575Y-50674466D02*
X150027956Y-50626847D01*
X150027956Y-50626847D02*
X149980336Y-50531609D01*
X149980336Y-50531609D02*
X149980336Y-50245895D01*
X149980336Y-50245895D02*
X150027956Y-50150657D01*
X150027956Y-50150657D02*
X150075575Y-50103038D01*
X151080336Y-46464942D02*
X151080336Y-45988752D01*
X151080336Y-45988752D02*
X150604146Y-45941133D01*
X150604146Y-45941133D02*
X150651765Y-45988752D01*
X150651765Y-45988752D02*
X150699384Y-46083990D01*
X150699384Y-46083990D02*
X150699384Y-46322085D01*
X150699384Y-46322085D02*
X150651765Y-46417323D01*
X150651765Y-46417323D02*
X150604146Y-46464942D01*
X150604146Y-46464942D02*
X150508908Y-46512561D01*
X150508908Y-46512561D02*
X150270813Y-46512561D01*
X150270813Y-46512561D02*
X150175575Y-46464942D01*
X150175575Y-46464942D02*
X150127956Y-46417323D01*
X150127956Y-46417323D02*
X150080336Y-46322085D01*
X150080336Y-46322085D02*
X150080336Y-46083990D01*
X150080336Y-46083990D02*
X150127956Y-45988752D01*
X150127956Y-45988752D02*
X150175575Y-45941133D01*
X151080336Y-46798276D02*
X150080336Y-47131609D01*
X150080336Y-47131609D02*
X151080336Y-47464942D01*
X171132717Y-75212561D02*
X171180336Y-75117323D01*
X171180336Y-75117323D02*
X171180336Y-74974466D01*
X171180336Y-74974466D02*
X171132717Y-74831609D01*
X171132717Y-74831609D02*
X171037479Y-74736371D01*
X171037479Y-74736371D02*
X170942241Y-74688752D01*
X170942241Y-74688752D02*
X170751765Y-74641133D01*
X170751765Y-74641133D02*
X170608908Y-74641133D01*
X170608908Y-74641133D02*
X170418432Y-74688752D01*
X170418432Y-74688752D02*
X170323194Y-74736371D01*
X170323194Y-74736371D02*
X170227956Y-74831609D01*
X170227956Y-74831609D02*
X170180336Y-74974466D01*
X170180336Y-74974466D02*
X170180336Y-75069704D01*
X170180336Y-75069704D02*
X170227956Y-75212561D01*
X170227956Y-75212561D02*
X170275575Y-75260180D01*
X170275575Y-75260180D02*
X170608908Y-75260180D01*
X170608908Y-75260180D02*
X170608908Y-75069704D01*
X170180336Y-75688752D02*
X171180336Y-75688752D01*
X171180336Y-75688752D02*
X170180336Y-76260180D01*
X170180336Y-76260180D02*
X171180336Y-76260180D01*
X170180336Y-76736371D02*
X171180336Y-76736371D01*
X171180336Y-76736371D02*
X171180336Y-76974466D01*
X171180336Y-76974466D02*
X171132717Y-77117323D01*
X171132717Y-77117323D02*
X171037479Y-77212561D01*
X171037479Y-77212561D02*
X170942241Y-77260180D01*
X170942241Y-77260180D02*
X170751765Y-77307799D01*
X170751765Y-77307799D02*
X170608908Y-77307799D01*
X170608908Y-77307799D02*
X170418432Y-77260180D01*
X170418432Y-77260180D02*
X170323194Y-77212561D01*
X170323194Y-77212561D02*
X170227956Y-77117323D01*
X170227956Y-77117323D02*
X170180336Y-76974466D01*
X170180336Y-76974466D02*
X170180336Y-76736371D01*
X167480336Y-75264942D02*
X167480336Y-74788752D01*
X167480336Y-74788752D02*
X168480336Y-74788752D01*
X168004146Y-75598276D02*
X168004146Y-75931609D01*
X167480336Y-76074466D02*
X167480336Y-75598276D01*
X167480336Y-75598276D02*
X168480336Y-75598276D01*
X168480336Y-75598276D02*
X168480336Y-76074466D01*
X167480336Y-76503038D02*
X168480336Y-76503038D01*
X168480336Y-76503038D02*
X168480336Y-76741133D01*
X168480336Y-76741133D02*
X168432717Y-76883990D01*
X168432717Y-76883990D02*
X168337479Y-76979228D01*
X168337479Y-76979228D02*
X168242241Y-77026847D01*
X168242241Y-77026847D02*
X168051765Y-77074466D01*
X168051765Y-77074466D02*
X167908908Y-77074466D01*
X167908908Y-77074466D02*
X167718432Y-77026847D01*
X167718432Y-77026847D02*
X167623194Y-76979228D01*
X167623194Y-76979228D02*
X167527956Y-76883990D01*
X167527956Y-76883990D02*
X167480336Y-76741133D01*
X167480336Y-76741133D02*
X167480336Y-76503038D01*
X164927956Y-74641133D02*
X164880336Y-74783990D01*
X164880336Y-74783990D02*
X164880336Y-75022085D01*
X164880336Y-75022085D02*
X164927956Y-75117323D01*
X164927956Y-75117323D02*
X164975575Y-75164942D01*
X164975575Y-75164942D02*
X165070813Y-75212561D01*
X165070813Y-75212561D02*
X165166051Y-75212561D01*
X165166051Y-75212561D02*
X165261289Y-75164942D01*
X165261289Y-75164942D02*
X165308908Y-75117323D01*
X165308908Y-75117323D02*
X165356527Y-75022085D01*
X165356527Y-75022085D02*
X165404146Y-74831609D01*
X165404146Y-74831609D02*
X165451765Y-74736371D01*
X165451765Y-74736371D02*
X165499384Y-74688752D01*
X165499384Y-74688752D02*
X165594622Y-74641133D01*
X165594622Y-74641133D02*
X165689860Y-74641133D01*
X165689860Y-74641133D02*
X165785098Y-74688752D01*
X165785098Y-74688752D02*
X165832717Y-74736371D01*
X165832717Y-74736371D02*
X165880336Y-74831609D01*
X165880336Y-74831609D02*
X165880336Y-75069704D01*
X165880336Y-75069704D02*
X165832717Y-75212561D01*
X164880336Y-75641133D02*
X165880336Y-75641133D01*
X165880336Y-75641133D02*
X165880336Y-75879228D01*
X165880336Y-75879228D02*
X165832717Y-76022085D01*
X165832717Y-76022085D02*
X165737479Y-76117323D01*
X165737479Y-76117323D02*
X165642241Y-76164942D01*
X165642241Y-76164942D02*
X165451765Y-76212561D01*
X165451765Y-76212561D02*
X165308908Y-76212561D01*
X165308908Y-76212561D02*
X165118432Y-76164942D01*
X165118432Y-76164942D02*
X165023194Y-76117323D01*
X165023194Y-76117323D02*
X164927956Y-76022085D01*
X164927956Y-76022085D02*
X164880336Y-75879228D01*
X164880336Y-75879228D02*
X164880336Y-75641133D01*
X165166051Y-76593514D02*
X165166051Y-77069704D01*
X164880336Y-76498276D02*
X165880336Y-76831609D01*
X165880336Y-76831609D02*
X164880336Y-77164942D01*
X162427956Y-74541133D02*
X162380336Y-74683990D01*
X162380336Y-74683990D02*
X162380336Y-74922085D01*
X162380336Y-74922085D02*
X162427956Y-75017323D01*
X162427956Y-75017323D02*
X162475575Y-75064942D01*
X162475575Y-75064942D02*
X162570813Y-75112561D01*
X162570813Y-75112561D02*
X162666051Y-75112561D01*
X162666051Y-75112561D02*
X162761289Y-75064942D01*
X162761289Y-75064942D02*
X162808908Y-75017323D01*
X162808908Y-75017323D02*
X162856527Y-74922085D01*
X162856527Y-74922085D02*
X162904146Y-74731609D01*
X162904146Y-74731609D02*
X162951765Y-74636371D01*
X162951765Y-74636371D02*
X162999384Y-74588752D01*
X162999384Y-74588752D02*
X163094622Y-74541133D01*
X163094622Y-74541133D02*
X163189860Y-74541133D01*
X163189860Y-74541133D02*
X163285098Y-74588752D01*
X163285098Y-74588752D02*
X163332717Y-74636371D01*
X163332717Y-74636371D02*
X163380336Y-74731609D01*
X163380336Y-74731609D02*
X163380336Y-74969704D01*
X163380336Y-74969704D02*
X163332717Y-75112561D01*
X162475575Y-76112561D02*
X162427956Y-76064942D01*
X162427956Y-76064942D02*
X162380336Y-75922085D01*
X162380336Y-75922085D02*
X162380336Y-75826847D01*
X162380336Y-75826847D02*
X162427956Y-75683990D01*
X162427956Y-75683990D02*
X162523194Y-75588752D01*
X162523194Y-75588752D02*
X162618432Y-75541133D01*
X162618432Y-75541133D02*
X162808908Y-75493514D01*
X162808908Y-75493514D02*
X162951765Y-75493514D01*
X162951765Y-75493514D02*
X163142241Y-75541133D01*
X163142241Y-75541133D02*
X163237479Y-75588752D01*
X163237479Y-75588752D02*
X163332717Y-75683990D01*
X163332717Y-75683990D02*
X163380336Y-75826847D01*
X163380336Y-75826847D02*
X163380336Y-75922085D01*
X163380336Y-75922085D02*
X163332717Y-76064942D01*
X163332717Y-76064942D02*
X163285098Y-76112561D01*
X162380336Y-77017323D02*
X162380336Y-76541133D01*
X162380336Y-76541133D02*
X163380336Y-76541133D01*
X160780336Y-74593514D02*
X160780336Y-75212561D01*
X160780336Y-75212561D02*
X160399384Y-74879228D01*
X160399384Y-74879228D02*
X160399384Y-75022085D01*
X160399384Y-75022085D02*
X160351765Y-75117323D01*
X160351765Y-75117323D02*
X160304146Y-75164942D01*
X160304146Y-75164942D02*
X160208908Y-75212561D01*
X160208908Y-75212561D02*
X159970813Y-75212561D01*
X159970813Y-75212561D02*
X159875575Y-75164942D01*
X159875575Y-75164942D02*
X159827956Y-75117323D01*
X159827956Y-75117323D02*
X159780336Y-75022085D01*
X159780336Y-75022085D02*
X159780336Y-74736371D01*
X159780336Y-74736371D02*
X159827956Y-74641133D01*
X159827956Y-74641133D02*
X159875575Y-74593514D01*
X160780336Y-75498276D02*
X159780336Y-75831609D01*
X159780336Y-75831609D02*
X160780336Y-76164942D01*
X160780336Y-76403038D02*
X160780336Y-77022085D01*
X160780336Y-77022085D02*
X160399384Y-76688752D01*
X160399384Y-76688752D02*
X160399384Y-76831609D01*
X160399384Y-76831609D02*
X160351765Y-76926847D01*
X160351765Y-76926847D02*
X160304146Y-76974466D01*
X160304146Y-76974466D02*
X160208908Y-77022085D01*
X160208908Y-77022085D02*
X159970813Y-77022085D01*
X159970813Y-77022085D02*
X159875575Y-76974466D01*
X159875575Y-76974466D02*
X159827956Y-76926847D01*
X159827956Y-76926847D02*
X159780336Y-76831609D01*
X159780336Y-76831609D02*
X159780336Y-76545895D01*
X159780336Y-76545895D02*
X159827956Y-76450657D01*
X159827956Y-76450657D02*
X159875575Y-76403038D01*
X157216666Y-71904663D02*
X157216666Y-72618948D01*
X157216666Y-72618948D02*
X157169047Y-72761805D01*
X157169047Y-72761805D02*
X157073809Y-72857044D01*
X157073809Y-72857044D02*
X156930952Y-72904663D01*
X156930952Y-72904663D02*
X156835714Y-72904663D01*
X157597619Y-71904663D02*
X158216666Y-71904663D01*
X158216666Y-71904663D02*
X157883333Y-72285615D01*
X157883333Y-72285615D02*
X158026190Y-72285615D01*
X158026190Y-72285615D02*
X158121428Y-72333234D01*
X158121428Y-72333234D02*
X158169047Y-72380853D01*
X158169047Y-72380853D02*
X158216666Y-72476091D01*
X158216666Y-72476091D02*
X158216666Y-72714186D01*
X158216666Y-72714186D02*
X158169047Y-72809424D01*
X158169047Y-72809424D02*
X158121428Y-72857044D01*
X158121428Y-72857044D02*
X158026190Y-72904663D01*
X158026190Y-72904663D02*
X157740476Y-72904663D01*
X157740476Y-72904663D02*
X157645238Y-72857044D01*
X157645238Y-72857044D02*
X157597619Y-72809424D01*
X177988095Y-68804663D02*
X177988095Y-69614186D01*
X177988095Y-69614186D02*
X178035714Y-69709424D01*
X178035714Y-69709424D02*
X178083333Y-69757044D01*
X178083333Y-69757044D02*
X178178571Y-69804663D01*
X178178571Y-69804663D02*
X178369047Y-69804663D01*
X178369047Y-69804663D02*
X178464285Y-69757044D01*
X178464285Y-69757044D02*
X178511904Y-69709424D01*
X178511904Y-69709424D02*
X178559523Y-69614186D01*
X178559523Y-69614186D02*
X178559523Y-68804663D01*
X179464285Y-68804663D02*
X179273809Y-68804663D01*
X179273809Y-68804663D02*
X179178571Y-68852282D01*
X179178571Y-68852282D02*
X179130952Y-68899901D01*
X179130952Y-68899901D02*
X179035714Y-69042758D01*
X179035714Y-69042758D02*
X178988095Y-69233234D01*
X178988095Y-69233234D02*
X178988095Y-69614186D01*
X178988095Y-69614186D02*
X179035714Y-69709424D01*
X179035714Y-69709424D02*
X179083333Y-69757044D01*
X179083333Y-69757044D02*
X179178571Y-69804663D01*
X179178571Y-69804663D02*
X179369047Y-69804663D01*
X179369047Y-69804663D02*
X179464285Y-69757044D01*
X179464285Y-69757044D02*
X179511904Y-69709424D01*
X179511904Y-69709424D02*
X179559523Y-69614186D01*
X179559523Y-69614186D02*
X179559523Y-69376091D01*
X179559523Y-69376091D02*
X179511904Y-69280853D01*
X179511904Y-69280853D02*
X179464285Y-69233234D01*
X179464285Y-69233234D02*
X179369047Y-69185615D01*
X179369047Y-69185615D02*
X179178571Y-69185615D01*
X179178571Y-69185615D02*
X179083333Y-69233234D01*
X179083333Y-69233234D02*
X179035714Y-69280853D01*
X179035714Y-69280853D02*
X178988095Y-69376091D01*
X175895336Y-77088095D02*
X175085813Y-77088095D01*
X175085813Y-77088095D02*
X174990575Y-77135714D01*
X174990575Y-77135714D02*
X174942956Y-77183333D01*
X174942956Y-77183333D02*
X174895336Y-77278571D01*
X174895336Y-77278571D02*
X174895336Y-77469047D01*
X174895336Y-77469047D02*
X174942956Y-77564285D01*
X174942956Y-77564285D02*
X174990575Y-77611904D01*
X174990575Y-77611904D02*
X175085813Y-77659523D01*
X175085813Y-77659523D02*
X175895336Y-77659523D01*
X175895336Y-78611904D02*
X175895336Y-78135714D01*
X175895336Y-78135714D02*
X175419146Y-78088095D01*
X175419146Y-78088095D02*
X175466765Y-78135714D01*
X175466765Y-78135714D02*
X175514384Y-78230952D01*
X175514384Y-78230952D02*
X175514384Y-78469047D01*
X175514384Y-78469047D02*
X175466765Y-78564285D01*
X175466765Y-78564285D02*
X175419146Y-78611904D01*
X175419146Y-78611904D02*
X175323908Y-78659523D01*
X175323908Y-78659523D02*
X175085813Y-78659523D01*
X175085813Y-78659523D02*
X174990575Y-78611904D01*
X174990575Y-78611904D02*
X174942956Y-78564285D01*
X174942956Y-78564285D02*
X174895336Y-78469047D01*
X174895336Y-78469047D02*
X174895336Y-78230952D01*
X174895336Y-78230952D02*
X174942956Y-78135714D01*
X174942956Y-78135714D02*
X174990575Y-78088095D01*
X166883333Y-69304663D02*
X166550000Y-68828472D01*
X166311905Y-69304663D02*
X166311905Y-68304663D01*
X166311905Y-68304663D02*
X166692857Y-68304663D01*
X166692857Y-68304663D02*
X166788095Y-68352282D01*
X166788095Y-68352282D02*
X166835714Y-68399901D01*
X166835714Y-68399901D02*
X166883333Y-68495139D01*
X166883333Y-68495139D02*
X166883333Y-68637996D01*
X166883333Y-68637996D02*
X166835714Y-68733234D01*
X166835714Y-68733234D02*
X166788095Y-68780853D01*
X166788095Y-68780853D02*
X166692857Y-68828472D01*
X166692857Y-68828472D02*
X166311905Y-68828472D01*
X167216667Y-68304663D02*
X167835714Y-68304663D01*
X167835714Y-68304663D02*
X167502381Y-68685615D01*
X167502381Y-68685615D02*
X167645238Y-68685615D01*
X167645238Y-68685615D02*
X167740476Y-68733234D01*
X167740476Y-68733234D02*
X167788095Y-68780853D01*
X167788095Y-68780853D02*
X167835714Y-68876091D01*
X167835714Y-68876091D02*
X167835714Y-69114186D01*
X167835714Y-69114186D02*
X167788095Y-69209424D01*
X167788095Y-69209424D02*
X167740476Y-69257044D01*
X167740476Y-69257044D02*
X167645238Y-69304663D01*
X167645238Y-69304663D02*
X167359524Y-69304663D01*
X167359524Y-69304663D02*
X167264286Y-69257044D01*
X167264286Y-69257044D02*
X167216667Y-69209424D01*
X158404663Y-91883333D02*
X159118948Y-91883333D01*
X159118948Y-91883333D02*
X159261805Y-91930952D01*
X159261805Y-91930952D02*
X159357044Y-92026190D01*
X159357044Y-92026190D02*
X159404663Y-92169047D01*
X159404663Y-92169047D02*
X159404663Y-92264285D01*
X159404663Y-90883333D02*
X159404663Y-91454761D01*
X159404663Y-91169047D02*
X158404663Y-91169047D01*
X158404663Y-91169047D02*
X158547520Y-91264285D01*
X158547520Y-91264285D02*
X158642758Y-91359523D01*
X158642758Y-91359523D02*
X158690377Y-91454761D01*
X155911905Y-82204663D02*
X155911905Y-81204663D01*
X155911905Y-81204663D02*
X156150000Y-81204663D01*
X156150000Y-81204663D02*
X156292857Y-81252282D01*
X156292857Y-81252282D02*
X156388095Y-81347520D01*
X156388095Y-81347520D02*
X156435714Y-81442758D01*
X156435714Y-81442758D02*
X156483333Y-81633234D01*
X156483333Y-81633234D02*
X156483333Y-81776091D01*
X156483333Y-81776091D02*
X156435714Y-81966567D01*
X156435714Y-81966567D02*
X156388095Y-82061805D01*
X156388095Y-82061805D02*
X156292857Y-82157044D01*
X156292857Y-82157044D02*
X156150000Y-82204663D01*
X156150000Y-82204663D02*
X155911905Y-82204663D01*
X157435714Y-82204663D02*
X156864286Y-82204663D01*
X157150000Y-82204663D02*
X157150000Y-81204663D01*
X157150000Y-81204663D02*
X157054762Y-81347520D01*
X157054762Y-81347520D02*
X156959524Y-81442758D01*
X156959524Y-81442758D02*
X156864286Y-81490377D01*
X154183333Y-82809424D02*
X154135714Y-82857044D01*
X154135714Y-82857044D02*
X153992857Y-82904663D01*
X153992857Y-82904663D02*
X153897619Y-82904663D01*
X153897619Y-82904663D02*
X153754762Y-82857044D01*
X153754762Y-82857044D02*
X153659524Y-82761805D01*
X153659524Y-82761805D02*
X153611905Y-82666567D01*
X153611905Y-82666567D02*
X153564286Y-82476091D01*
X153564286Y-82476091D02*
X153564286Y-82333234D01*
X153564286Y-82333234D02*
X153611905Y-82142758D01*
X153611905Y-82142758D02*
X153659524Y-82047520D01*
X153659524Y-82047520D02*
X153754762Y-81952282D01*
X153754762Y-81952282D02*
X153897619Y-81904663D01*
X153897619Y-81904663D02*
X153992857Y-81904663D01*
X153992857Y-81904663D02*
X154135714Y-81952282D01*
X154135714Y-81952282D02*
X154183333Y-81999901D01*
X155135714Y-82904663D02*
X154564286Y-82904663D01*
X154850000Y-82904663D02*
X154850000Y-81904663D01*
X154850000Y-81904663D02*
X154754762Y-82047520D01*
X154754762Y-82047520D02*
X154659524Y-82142758D01*
X154659524Y-82142758D02*
X154564286Y-82190377D01*
X152716666Y-43784663D02*
X152716666Y-44498948D01*
X152716666Y-44498948D02*
X152669047Y-44641805D01*
X152669047Y-44641805D02*
X152573809Y-44737044D01*
X152573809Y-44737044D02*
X152430952Y-44784663D01*
X152430952Y-44784663D02*
X152335714Y-44784663D01*
X153145238Y-43879901D02*
X153192857Y-43832282D01*
X153192857Y-43832282D02*
X153288095Y-43784663D01*
X153288095Y-43784663D02*
X153526190Y-43784663D01*
X153526190Y-43784663D02*
X153621428Y-43832282D01*
X153621428Y-43832282D02*
X153669047Y-43879901D01*
X153669047Y-43879901D02*
X153716666Y-43975139D01*
X153716666Y-43975139D02*
X153716666Y-44070377D01*
X153716666Y-44070377D02*
X153669047Y-44213234D01*
X153669047Y-44213234D02*
X153097619Y-44784663D01*
X153097619Y-44784663D02*
X153716666Y-44784663D01*
X151083333Y-87109424D02*
X151035714Y-87157044D01*
X151035714Y-87157044D02*
X150892857Y-87204663D01*
X150892857Y-87204663D02*
X150797619Y-87204663D01*
X150797619Y-87204663D02*
X150654762Y-87157044D01*
X150654762Y-87157044D02*
X150559524Y-87061805D01*
X150559524Y-87061805D02*
X150511905Y-86966567D01*
X150511905Y-86966567D02*
X150464286Y-86776091D01*
X150464286Y-86776091D02*
X150464286Y-86633234D01*
X150464286Y-86633234D02*
X150511905Y-86442758D01*
X150511905Y-86442758D02*
X150559524Y-86347520D01*
X150559524Y-86347520D02*
X150654762Y-86252282D01*
X150654762Y-86252282D02*
X150797619Y-86204663D01*
X150797619Y-86204663D02*
X150892857Y-86204663D01*
X150892857Y-86204663D02*
X151035714Y-86252282D01*
X151035714Y-86252282D02*
X151083333Y-86299901D01*
X151940476Y-86537996D02*
X151940476Y-87204663D01*
X151702381Y-86157044D02*
X151464286Y-86871329D01*
X151464286Y-86871329D02*
X152083333Y-86871329D01*
X175989424Y-69416666D02*
X176037044Y-69464285D01*
X176037044Y-69464285D02*
X176084663Y-69607142D01*
X176084663Y-69607142D02*
X176084663Y-69702380D01*
X176084663Y-69702380D02*
X176037044Y-69845237D01*
X176037044Y-69845237D02*
X175941805Y-69940475D01*
X175941805Y-69940475D02*
X175846567Y-69988094D01*
X175846567Y-69988094D02*
X175656091Y-70035713D01*
X175656091Y-70035713D02*
X175513234Y-70035713D01*
X175513234Y-70035713D02*
X175322758Y-69988094D01*
X175322758Y-69988094D02*
X175227520Y-69940475D01*
X175227520Y-69940475D02*
X175132282Y-69845237D01*
X175132282Y-69845237D02*
X175084663Y-69702380D01*
X175084663Y-69702380D02*
X175084663Y-69607142D01*
X175084663Y-69607142D02*
X175132282Y-69464285D01*
X175132282Y-69464285D02*
X175179901Y-69416666D01*
X175179901Y-69035713D02*
X175132282Y-68988094D01*
X175132282Y-68988094D02*
X175084663Y-68892856D01*
X175084663Y-68892856D02*
X175084663Y-68654761D01*
X175084663Y-68654761D02*
X175132282Y-68559523D01*
X175132282Y-68559523D02*
X175179901Y-68511904D01*
X175179901Y-68511904D02*
X175275139Y-68464285D01*
X175275139Y-68464285D02*
X175370377Y-68464285D01*
X175370377Y-68464285D02*
X175513234Y-68511904D01*
X175513234Y-68511904D02*
X176084663Y-69083332D01*
X176084663Y-69083332D02*
X176084663Y-68464285D01*
X160083333Y-90104663D02*
X159607143Y-90104663D01*
X159607143Y-90104663D02*
X159607143Y-89104663D01*
X160940476Y-90104663D02*
X160369048Y-90104663D01*
X160654762Y-90104663D02*
X160654762Y-89104663D01*
X160654762Y-89104663D02*
X160559524Y-89247520D01*
X160559524Y-89247520D02*
X160464286Y-89342758D01*
X160464286Y-89342758D02*
X160369048Y-89390377D01*
X167804663Y-80116666D02*
X167328472Y-80449999D01*
X167804663Y-80688094D02*
X166804663Y-80688094D01*
X166804663Y-80688094D02*
X166804663Y-80307142D01*
X166804663Y-80307142D02*
X166852282Y-80211904D01*
X166852282Y-80211904D02*
X166899901Y-80164285D01*
X166899901Y-80164285D02*
X166995139Y-80116666D01*
X166995139Y-80116666D02*
X167137996Y-80116666D01*
X167137996Y-80116666D02*
X167233234Y-80164285D01*
X167233234Y-80164285D02*
X167280853Y-80211904D01*
X167280853Y-80211904D02*
X167328472Y-80307142D01*
X167328472Y-80307142D02*
X167328472Y-80688094D01*
X166899901Y-79735713D02*
X166852282Y-79688094D01*
X166852282Y-79688094D02*
X166804663Y-79592856D01*
X166804663Y-79592856D02*
X166804663Y-79354761D01*
X166804663Y-79354761D02*
X166852282Y-79259523D01*
X166852282Y-79259523D02*
X166899901Y-79211904D01*
X166899901Y-79211904D02*
X166995139Y-79164285D01*
X166995139Y-79164285D02*
X167090377Y-79164285D01*
X167090377Y-79164285D02*
X167233234Y-79211904D01*
X167233234Y-79211904D02*
X167804663Y-79783332D01*
X167804663Y-79783332D02*
X167804663Y-79164285D01*
X162883333Y-87009424D02*
X162835714Y-87057044D01*
X162835714Y-87057044D02*
X162692857Y-87104663D01*
X162692857Y-87104663D02*
X162597619Y-87104663D01*
X162597619Y-87104663D02*
X162454762Y-87057044D01*
X162454762Y-87057044D02*
X162359524Y-86961805D01*
X162359524Y-86961805D02*
X162311905Y-86866567D01*
X162311905Y-86866567D02*
X162264286Y-86676091D01*
X162264286Y-86676091D02*
X162264286Y-86533234D01*
X162264286Y-86533234D02*
X162311905Y-86342758D01*
X162311905Y-86342758D02*
X162359524Y-86247520D01*
X162359524Y-86247520D02*
X162454762Y-86152282D01*
X162454762Y-86152282D02*
X162597619Y-86104663D01*
X162597619Y-86104663D02*
X162692857Y-86104663D01*
X162692857Y-86104663D02*
X162835714Y-86152282D01*
X162835714Y-86152282D02*
X162883333Y-86199901D01*
X163216667Y-86104663D02*
X163835714Y-86104663D01*
X163835714Y-86104663D02*
X163502381Y-86485615D01*
X163502381Y-86485615D02*
X163645238Y-86485615D01*
X163645238Y-86485615D02*
X163740476Y-86533234D01*
X163740476Y-86533234D02*
X163788095Y-86580853D01*
X163788095Y-86580853D02*
X163835714Y-86676091D01*
X163835714Y-86676091D02*
X163835714Y-86914186D01*
X163835714Y-86914186D02*
X163788095Y-87009424D01*
X163788095Y-87009424D02*
X163740476Y-87057044D01*
X163740476Y-87057044D02*
X163645238Y-87104663D01*
X163645238Y-87104663D02*
X163359524Y-87104663D01*
X163359524Y-87104663D02*
X163264286Y-87057044D01*
X163264286Y-87057044D02*
X163216667Y-87009424D01*
X157588095Y-67604663D02*
X157588095Y-68414186D01*
X157588095Y-68414186D02*
X157635714Y-68509424D01*
X157635714Y-68509424D02*
X157683333Y-68557044D01*
X157683333Y-68557044D02*
X157778571Y-68604663D01*
X157778571Y-68604663D02*
X157969047Y-68604663D01*
X157969047Y-68604663D02*
X158064285Y-68557044D01*
X158064285Y-68557044D02*
X158111904Y-68509424D01*
X158111904Y-68509424D02*
X158159523Y-68414186D01*
X158159523Y-68414186D02*
X158159523Y-67604663D01*
X158588095Y-67699901D02*
X158635714Y-67652282D01*
X158635714Y-67652282D02*
X158730952Y-67604663D01*
X158730952Y-67604663D02*
X158969047Y-67604663D01*
X158969047Y-67604663D02*
X159064285Y-67652282D01*
X159064285Y-67652282D02*
X159111904Y-67699901D01*
X159111904Y-67699901D02*
X159159523Y-67795139D01*
X159159523Y-67795139D02*
X159159523Y-67890377D01*
X159159523Y-67890377D02*
X159111904Y-68033234D01*
X159111904Y-68033234D02*
X158540476Y-68604663D01*
X158540476Y-68604663D02*
X159159523Y-68604663D01*
X167904663Y-83116666D02*
X167428472Y-83449999D01*
X167904663Y-83688094D02*
X166904663Y-83688094D01*
X166904663Y-83688094D02*
X166904663Y-83307142D01*
X166904663Y-83307142D02*
X166952282Y-83211904D01*
X166952282Y-83211904D02*
X166999901Y-83164285D01*
X166999901Y-83164285D02*
X167095139Y-83116666D01*
X167095139Y-83116666D02*
X167237996Y-83116666D01*
X167237996Y-83116666D02*
X167333234Y-83164285D01*
X167333234Y-83164285D02*
X167380853Y-83211904D01*
X167380853Y-83211904D02*
X167428472Y-83307142D01*
X167428472Y-83307142D02*
X167428472Y-83688094D01*
X167904663Y-82164285D02*
X167904663Y-82735713D01*
X167904663Y-82449999D02*
X166904663Y-82449999D01*
X166904663Y-82449999D02*
X167047520Y-82545237D01*
X167047520Y-82545237D02*
X167142758Y-82640475D01*
X167142758Y-82640475D02*
X167190377Y-82735713D01*
X161888095Y-79204663D02*
X161888095Y-80014186D01*
X161888095Y-80014186D02*
X161935714Y-80109424D01*
X161935714Y-80109424D02*
X161983333Y-80157044D01*
X161983333Y-80157044D02*
X162078571Y-80204663D01*
X162078571Y-80204663D02*
X162269047Y-80204663D01*
X162269047Y-80204663D02*
X162364285Y-80157044D01*
X162364285Y-80157044D02*
X162411904Y-80109424D01*
X162411904Y-80109424D02*
X162459523Y-80014186D01*
X162459523Y-80014186D02*
X162459523Y-79204663D01*
X163459523Y-80204663D02*
X162888095Y-80204663D01*
X163173809Y-80204663D02*
X163173809Y-79204663D01*
X163173809Y-79204663D02*
X163078571Y-79347520D01*
X163078571Y-79347520D02*
X162983333Y-79442758D01*
X162983333Y-79442758D02*
X162888095Y-79490377D01*
D12*
%TO.C,J3*%
X159050000Y-73730000D02*
X159050000Y-72350000D01*
X160430000Y-73730000D02*
X159050000Y-73730000D01*
X161700000Y-73730000D02*
X171970000Y-73730000D01*
X161700000Y-73730000D02*
X161700000Y-70970000D01*
X171970000Y-73730000D02*
X171970000Y-70970000D01*
X161700000Y-70970000D02*
X171970000Y-70970000D01*
D13*
%TO.C,U6*%
X176450000Y-43200000D02*
X198050000Y-43200000D01*
X176450000Y-68500000D02*
X176450000Y-43200000D01*
X198050000Y-43200000D02*
X198050000Y-68500000D01*
X198050000Y-68500000D02*
X176450000Y-68500000D01*
%TO.C,U5*%
X176370000Y-70950000D02*
X197970000Y-70950000D01*
X176370000Y-96250000D02*
X176370000Y-70950000D01*
X197970000Y-70950000D02*
X197970000Y-96250000D01*
X197970000Y-96250000D02*
X176370000Y-96250000D01*
D12*
%TO.C,R3*%
X168427500Y-69087258D02*
X168427500Y-68612742D01*
X169472500Y-69087258D02*
X169472500Y-68612742D01*
%TO.C,J1*%
X153950000Y-90925000D02*
X155940000Y-90925000D01*
X150900000Y-90925000D02*
X153950000Y-90925000D01*
X157750000Y-93875000D02*
X157000000Y-93875000D01*
X157000000Y-93875000D02*
X157000000Y-92535000D01*
X150900000Y-93875000D02*
X150900000Y-90925000D01*
X150150000Y-93875000D02*
X150900000Y-93875000D01*
X158050000Y-96425000D02*
X158050000Y-95175000D01*
X156800000Y-96425000D02*
X158050000Y-96425000D01*
X157750000Y-96125000D02*
X155950000Y-96125000D01*
X155950000Y-95375000D01*
X157750000Y-95375000D01*
X157750000Y-96125000D01*
X154450000Y-96125000D02*
X153450000Y-96125000D01*
X153450000Y-95375000D01*
X154450000Y-95375000D01*
X154450000Y-96125000D01*
X151950000Y-96125000D02*
X150150000Y-96125000D01*
X150150000Y-95375000D01*
X151950000Y-95375000D01*
X151950000Y-96125000D01*
X157760000Y-96135000D02*
X150140000Y-96135000D01*
X150140000Y-90165000D01*
X157760000Y-90165000D01*
X157760000Y-96135000D01*
%TO.C,D1*%
X159850000Y-84010000D02*
X159850000Y-80000000D01*
X157850000Y-84010000D02*
X159850000Y-84010000D01*
X157850000Y-84010000D02*
X157850000Y-80000000D01*
%TO.C,C1*%
X154511252Y-84885000D02*
X153988748Y-84885000D01*
X154511252Y-83415000D02*
X153988748Y-83415000D01*
%TO.C,J2*%
X151670000Y-45330000D02*
X153050000Y-45330000D01*
X151670000Y-46710000D02*
X151670000Y-45330000D01*
X151670000Y-47980000D02*
X151670000Y-73490000D01*
X151670000Y-47980000D02*
X154430000Y-47980000D01*
X151670000Y-73490000D02*
X154430000Y-73490000D01*
X154430000Y-47980000D02*
X154430000Y-73490000D01*
%TO.C,C4*%
X155561252Y-87560000D02*
X154138748Y-87560000D01*
X155561252Y-85740000D02*
X154138748Y-85740000D01*
%TO.C,C2*%
X173215000Y-68988748D02*
X173215000Y-69511252D01*
X174685000Y-68988748D02*
X174685000Y-69511252D01*
D13*
%TO.C,L1*%
X157650000Y-86550000D02*
X161250000Y-86550000D01*
D12*
%TO.C,R2*%
X165027500Y-80287258D02*
X165027500Y-79812742D01*
X166072500Y-80287258D02*
X166072500Y-79812742D01*
%TO.C,C3*%
X163390580Y-84540000D02*
X163109420Y-84540000D01*
X163390580Y-85560000D02*
X163109420Y-85560000D01*
D13*
%TO.C,U2*%
X157250000Y-45150000D02*
X157250000Y-67250000D01*
X161850000Y-43050000D02*
X170850000Y-43050000D01*
X161850000Y-45150000D02*
X157250000Y-45150000D01*
X161850000Y-45150000D02*
X161850000Y-43050000D01*
X170850000Y-45150000D02*
X170850000Y-43050000D01*
X173950000Y-45150000D02*
X170850000Y-45150000D01*
X173950000Y-45150000D02*
X175450000Y-45150000D01*
X175450000Y-45150000D02*
X175450000Y-67250000D01*
X175450000Y-67250000D02*
X157250000Y-67250000D01*
D14*
X161825000Y-46150000D02*
G75*
G02*
X161275000Y-46150000I-275000J0D01*
G01*
X161275000Y-46150000D02*
G75*
G02*
X161825000Y-46150000I275000J0D01*
G01*
D12*
%TO.C,R1*%
X165027500Y-83387258D02*
X165027500Y-82912742D01*
X166072500Y-83387258D02*
X166072500Y-82912742D01*
%TO.C,U1*%
X161540000Y-80790000D02*
X163360000Y-80790000D01*
X161540000Y-80840000D02*
X161540000Y-80790000D01*
X161540000Y-83910000D02*
X161540000Y-83860000D01*
X163360000Y-80790000D02*
X163360000Y-80840000D01*
X163360000Y-83860000D02*
X163360000Y-83910000D01*
X163360000Y-83910000D02*
X161540000Y-83910000D01*
X164140000Y-84190000D02*
X163660000Y-84190000D01*
X163900000Y-83860000D01*
X164140000Y-84190000D01*
G36*
X164140000Y-84190000D02*
G01*
X163660000Y-84190000D01*
X163900000Y-83860000D01*
X164140000Y-84190000D01*
G37*
%TD*%
%LPC*%
D15*
%TO.C,J3*%
X160430000Y-72350000D03*
D16*
X162970000Y-72350000D03*
X165510000Y-72350000D03*
X168050000Y-72350000D03*
X170590000Y-72350000D03*
%TD*%
D17*
%TO.C,U6*%
X183430000Y-65500000D03*
X185970000Y-65500000D03*
X188510000Y-65500000D03*
X191050000Y-65500000D03*
%TD*%
%TO.C,U5*%
X190990000Y-73950000D03*
X188450000Y-73950000D03*
X185910000Y-73950000D03*
X183370000Y-73950000D03*
%TD*%
D18*
%TO.C,R3*%
X168950000Y-69675000D03*
X168950000Y-68025000D03*
%TD*%
D19*
%TO.C,J1*%
X155200000Y-93675000D03*
D20*
X152700000Y-93675000D03*
%TD*%
D21*
%TO.C,D1*%
X158850000Y-83300000D03*
X158850000Y-80000000D03*
%TD*%
D22*
%TO.C,C1*%
X155200000Y-84150000D03*
X153300000Y-84150000D03*
%TD*%
D15*
%TO.C,J2*%
X153050000Y-46710000D03*
D16*
X153050000Y-49250000D03*
X153050000Y-51790000D03*
X153050000Y-54330000D03*
X153050000Y-56870000D03*
X153050000Y-59410000D03*
X153050000Y-61950000D03*
X153050000Y-64490000D03*
X153050000Y-67030000D03*
X153050000Y-69570000D03*
X153050000Y-72110000D03*
%TD*%
D23*
%TO.C,C4*%
X156325000Y-86650000D03*
X153375000Y-86650000D03*
%TD*%
D24*
%TO.C,C2*%
X173950000Y-68300000D03*
X173950000Y-70200000D03*
%TD*%
D25*
%TO.C,L1*%
X159450000Y-85050000D03*
X159450000Y-88050000D03*
%TD*%
D18*
%TO.C,R2*%
X165550000Y-80875000D03*
X165550000Y-79225000D03*
%TD*%
D26*
%TO.C,C3*%
X164025000Y-85050000D03*
X162475000Y-85050000D03*
%TD*%
D27*
%TO.C,U2*%
X158750000Y-46660000D03*
X158750000Y-49200000D03*
X158750000Y-51740000D03*
X158750000Y-54280000D03*
X158750000Y-56820000D03*
X158750000Y-59360000D03*
X158750000Y-61900000D03*
X158750000Y-64440000D03*
X173950000Y-64440000D03*
X173950000Y-61900000D03*
X173950000Y-59360000D03*
X173950000Y-56820000D03*
X173950000Y-54280000D03*
X173950000Y-51740000D03*
X173950000Y-49200000D03*
X173950000Y-46660000D03*
%TD*%
D18*
%TO.C,R1*%
X165550000Y-83975000D03*
X165550000Y-82325000D03*
%TD*%
D28*
%TO.C,U1*%
X163587500Y-83300000D03*
X163587500Y-82350000D03*
X163587500Y-81400000D03*
X161312500Y-81400000D03*
X161312500Y-82350000D03*
X161312500Y-83300000D03*
%TD*%
%LPD*%
M02*
