M48
; DRILL file {KiCad 9.0.7} date 2026-02-24T20:16:30+0000
; FORMAT={-:-/ absolute / metric / decimal}
; #@! TF.CreationDate,2026-02-24T20:16:30+00:00
; #@! TF.GenerationSoftware,Kicad,Pcbnew,9.0.7
; #@! TF.FileFunction,Plated,1,2,PTH
FMAT,2
METRIC
; #@! TA.AperFunction,Plated,PTH,ViaDrill
T1C0.300
; #@! TA.AperFunction,Plated,PTH,ViaDrill
T2C0.400
; #@! TA.AperFunction,Plated,PTH,ViaDrill
T3C0.500
; #@! TA.AperFunction,Plated,PTH,ComponentDrill
T4C0.800
; #@! TA.AperFunction,Plated,PTH,ComponentDrill
T5C1.000
%
G90
G05
T1
X154.85Y-51.75
X155.85Y-51.85
X157.25Y-51.74
X160.45Y-69.65
X169.85Y-54.65
X170.85Y-53.65
X170.95Y-55.85
X172.45Y-54.25
T2
X154.55Y-49.25
X170.45Y-57.65
X171.55Y-59.35
T3
X150.75Y-76.35
X150.75Y-80.35
X150.75Y-84.15
X150.75Y-88.05
X150.75Y-90.45
X152.65Y-85.45
X152.85Y-90.45
X153.95Y-76.35
X157.85Y-66.75
X158.05Y-76.35
X158.85Y-90.15
X161.25Y-62.65
X161.25Y-66.85
X161.55Y-90.15
X161.85Y-70.25
X162.25Y-76.35
X164.45Y-90.15
X165.35Y-44.05
X165.35Y-46.65
X165.35Y-49.25
X166.55Y-76.35
X167.45Y-90.15
X169.25Y-88.55
X169.35Y-81.55
X169.35Y-86.25
X169.45Y-76.35
X169.45Y-78.85
X169.75Y-49.25
X171.15Y-65.35
X171.15Y-66.95
X171.15Y-68.75
X172.25Y-60.65
X173.95Y-72.85
X176.05Y-54.55
X176.05Y-58.55
X176.05Y-63.15
X176.35Y-49.15
X179.35Y-52.15
X183.15Y-55.85
X184.55Y-69.05
X184.55Y-70.45
X185.55Y-60.45
X186.95Y-60.45
X188.35Y-71.65
X191.35Y-69.15
X191.35Y-70.45
T4
X158.75Y-46.66
X158.75Y-49.2
X158.75Y-51.74
X158.75Y-54.28
X158.75Y-56.82
X158.75Y-59.36
X158.75Y-61.9
X158.75Y-64.44
X173.95Y-46.66
X173.95Y-49.2
X173.95Y-51.74
X173.95Y-54.28
X173.95Y-56.82
X173.95Y-59.36
X173.95Y-61.9
X173.95Y-64.44
X183.37Y-73.95
X183.43Y-65.5
X185.91Y-73.95
X185.97Y-65.5
X188.45Y-73.95
X188.51Y-65.5
X190.99Y-73.95
X191.05Y-65.5
T5
X152.7Y-93.675
X153.05Y-46.71
X153.05Y-49.25
X153.05Y-51.79
X153.05Y-54.33
X153.05Y-56.87
X153.05Y-59.41
X153.05Y-61.95
X153.05Y-64.49
X153.05Y-67.03
X153.05Y-69.57
X153.05Y-72.11
X155.2Y-93.675
X160.43Y-72.35
X162.97Y-72.35
X165.51Y-72.35
X168.05Y-72.35
X170.59Y-72.35
M30
