%TF.GenerationSoftware,KiCad,Pcbnew,9.0.7*%
%TF.CreationDate,2026-02-24T20:15:18+00:00*%
%TF.ProjectId,AD5M,4144354d-2e6b-4696-9361-645f70636258,rev?*%
%TF.SameCoordinates,Original*%
%TF.FileFunction,Copper,L2,Bot*%
%TF.FilePolarity,Positive*%
%FSLAX46Y46*%
G04 Gerber Fmt 4.6, Leading zero omitted, Abs format (unit mm)*
G04 Created by KiCad (PCBNEW 9.0.7) date 2026-02-24 20:15:18*
%MOMM*%
%LPD*%
G01*
G04 APERTURE LIST*
G04 Aperture macros list*
%AMRoundRect*
0 Rectangle with rounded corners*
0 $1 Rounding radius*
0 $2 $3 $4 $5 $6 $7 $8 $9 X,Y pos of 4 corners*
0 Add a 4 corners polygon primitive as box body*
4,1,4,$2,$3,$4,$5,$6,$7,$8,$9,$2,$3,0*
0 Add four circle primitives for the rounded corners*
1,1,$1+$1,$2,$3*
1,1,$1+$1,$4,$5*
1,1,$1+$1,$6,$7*
1,1,$1+$1,$8,$9*
0 Add four rect primitives between the rounded corners*
20,1,$1+$1,$2,$3,$4,$5,0*
20,1,$1+$1,$4,$5,$6,$7,0*
20,1,$1+$1,$6,$7,$8,$9,0*
20,1,$1+$1,$8,$9,$2,$3,0*%
G04 Aperture macros list end*
%TA.AperFunction,ComponentPad*%
%ADD10R,1.700000X1.700000*%
%TD*%
%TA.AperFunction,ComponentPad*%
%ADD11C,1.700000*%
%TD*%
%TA.AperFunction,ComponentPad*%
%ADD12C,1.500000*%
%TD*%
%TA.AperFunction,ComponentPad*%
%ADD13RoundRect,0.250000X0.600000X0.750000X-0.600000X0.750000X-0.600000X-0.750000X0.600000X-0.750000X0*%
%TD*%
%TA.AperFunction,ComponentPad*%
%ADD14O,1.700000X2.000000*%
%TD*%
%TA.AperFunction,ComponentPad*%
%ADD15O,2.000000X1.300000*%
%TD*%
%TA.AperFunction,ViaPad*%
%ADD16C,0.650000*%
%TD*%
%TA.AperFunction,ViaPad*%
%ADD17C,0.700000*%
%TD*%
%TA.AperFunction,ViaPad*%
%ADD18C,0.450000*%
%TD*%
%TA.AperFunction,Conductor*%
%ADD19C,0.300000*%
%TD*%
%TA.AperFunction,Conductor*%
%ADD20C,0.600000*%
%TD*%
%TA.AperFunction,Conductor*%
%ADD21C,1.000000*%
%TD*%
G04 APERTURE END LIST*
D10*
%TO.P,J3,1,Pin_1*%
%TO.N,3.3V*%
X160430000Y-72350000D03*
D11*
%TO.P,J3,2,Pin_2*%
%TO.N,SCL*%
X162970000Y-72350000D03*
%TO.P,J3,3,Pin_3*%
%TO.N,SDA*%
X165510000Y-72350000D03*
%TO.P,J3,4,Pin_4*%
%TO.N,Net-(J3-Pin_4)*%
X168050000Y-72350000D03*
%TO.P,J3,5,Pin_5*%
%TO.N,GND*%
X170590000Y-72350000D03*
%TD*%
D12*
%TO.P,U6,1,In_2*%
%TO.N,FAN_EXHAUST*%
X183430000Y-65500000D03*
%TO.P,U6,2,In_1*%
%TO.N,GND*%
X185970000Y-65500000D03*
%TO.P,U6,3,Vm*%
%TO.N,24V*%
X188510000Y-65500000D03*
%TO.P,U6,4,GND*%
%TO.N,GND*%
X191050000Y-65500000D03*
%TD*%
%TO.P,U5,1,In_2*%
%TO.N,FAN_RECIRC*%
X190990000Y-73950000D03*
%TO.P,U5,2,In_1*%
%TO.N,GND*%
X188450000Y-73950000D03*
%TO.P,U5,3,Vm*%
%TO.N,24V*%
X185910000Y-73950000D03*
%TO.P,U5,4,GND*%
%TO.N,GND*%
X183370000Y-73950000D03*
%TD*%
D13*
%TO.P,J1,1,Pin_1*%
%TO.N,24V*%
X155200000Y-93675000D03*
D14*
%TO.P,J1,2,Pin_2*%
%TO.N,GND*%
X152700000Y-93675000D03*
%TD*%
D10*
%TO.P,J2,1,Pin_1*%
%TO.N,5V*%
X153050000Y-46710000D03*
D11*
%TO.P,J2,2,Pin_2*%
%TO.N,3.3V*%
X153050000Y-49250000D03*
%TO.P,J2,3,Pin_3*%
%TO.N,3*%
X153050000Y-51790000D03*
%TO.P,J2,4,Pin_4*%
%TO.N,4*%
X153050000Y-54330000D03*
%TO.P,J2,5,Pin_5*%
%TO.N,10*%
X153050000Y-56870000D03*
%TO.P,J2,6,Pin_6*%
%TO.N,20*%
X153050000Y-59410000D03*
%TO.P,J2,7,Pin_7*%
%TO.N,21*%
X153050000Y-61950000D03*
%TO.P,J2,8,Pin_8*%
%TO.N,5*%
X153050000Y-64490000D03*
%TO.P,J2,9,Pin_9*%
%TO.N,6*%
X153050000Y-67030000D03*
%TO.P,J2,10,Pin_10*%
%TO.N,7*%
X153050000Y-69570000D03*
%TO.P,J2,11,Pin_11*%
%TO.N,GND*%
X153050000Y-72110000D03*
%TD*%
D15*
%TO.P,U2,1,5_A5_MISO*%
%TO.N,5*%
X158750000Y-46660000D03*
%TO.P,U2,2,6_MOSI*%
%TO.N,6*%
X158750000Y-49200000D03*
%TO.P,U2,3,7_SS*%
%TO.N,7*%
X158750000Y-51740000D03*
%TO.P,U2,4,8_SDA*%
%TO.N,SDA*%
X158750000Y-54280000D03*
%TO.P,U2,5,9_SCL*%
%TO.N,SCL*%
X158750000Y-56820000D03*
%TO.P,U2,6,10*%
%TO.N,10*%
X158750000Y-59360000D03*
%TO.P,U2,7,20_RX*%
%TO.N,20*%
X158750000Y-61900000D03*
%TO.P,U2,8,21_TX*%
%TO.N,21*%
X158750000Y-64440000D03*
%TO.P,U2,9,5V*%
%TO.N,5V*%
X173950000Y-64440000D03*
%TO.P,U2,10,GND*%
%TO.N,GND*%
X173950000Y-61900000D03*
%TO.P,U2,11,3.3V*%
%TO.N,3.3V*%
X173950000Y-59360000D03*
%TO.P,U2,12,4_A4_SCK*%
%TO.N,4*%
X173950000Y-56820000D03*
%TO.P,U2,13,3_A3*%
%TO.N,3*%
X173950000Y-54280000D03*
%TO.P,U2,14,2_A2*%
%TO.N,TVOC_LED*%
X173950000Y-51740000D03*
%TO.P,U2,15,1_A1*%
%TO.N,FAN_EXHAUST*%
X173950000Y-49200000D03*
%TO.P,U2,16,0_A0*%
%TO.N,FAN_RECIRC*%
X173950000Y-46660000D03*
%TD*%
D16*
%TO.N,GND*%
X176050000Y-58550000D03*
X176050000Y-54550000D03*
X176050000Y-63150000D03*
X176350000Y-49150000D03*
X179350000Y-52150000D03*
X183150000Y-55850000D03*
X173950000Y-72850000D03*
X172250000Y-60650000D03*
X184550000Y-70450000D03*
X184550000Y-69050000D03*
X191350000Y-69150000D03*
X191350000Y-70450000D03*
X188350000Y-71650000D03*
X165350000Y-44050000D03*
X165350000Y-46650000D03*
X157850000Y-66750000D03*
X161850000Y-70250000D03*
X171150000Y-68750000D03*
X150750000Y-90450000D03*
X152850000Y-90450000D03*
X150750000Y-88050000D03*
X169450000Y-76350000D03*
X150750000Y-76350000D03*
X169450000Y-78850000D03*
X169350000Y-81550000D03*
X169350000Y-86250000D03*
X169250000Y-88550000D03*
X167450000Y-90150000D03*
X164450000Y-90150000D03*
X161550000Y-90150000D03*
X158850000Y-90150000D03*
X166550000Y-76350000D03*
X162250000Y-76350000D03*
X158050000Y-76350000D03*
X153950000Y-76350000D03*
X150750000Y-80350000D03*
D17*
X150750000Y-84150000D03*
D16*
X169750000Y-49250000D03*
X165350000Y-49250000D03*
X186950000Y-60450000D03*
X185550000Y-60450000D03*
X171150000Y-66950000D03*
X161250000Y-66850000D03*
X161250000Y-62650000D03*
X171150000Y-65350000D03*
D18*
%TO.N,7*%
X157250000Y-51740000D03*
%TO.N,6*%
X155850000Y-51850000D03*
%TO.N,5*%
X154850000Y-51750000D03*
%TO.N,3*%
X170850000Y-53650000D03*
X172450000Y-54250000D03*
%TO.N,4*%
X170950000Y-55850000D03*
X169850000Y-54650000D03*
D16*
%TO.N,3.3V*%
X154550000Y-49250000D03*
%TO.N,5V*%
X170450000Y-57650000D03*
%TO.N,3.3V*%
X171550000Y-59350000D03*
D18*
X160450000Y-69650000D03*
D16*
%TO.N,GND*%
X152650000Y-85450000D03*
%TD*%
D19*
%TO.N,6*%
X155575003Y-52124997D02*
X155575003Y-64504997D01*
X155850000Y-51850000D02*
X155575003Y-52124997D01*
X155575003Y-64504997D02*
X153050000Y-67030000D01*
%TO.N,7*%
X156850000Y-51740000D02*
X156450000Y-52140000D01*
X156450000Y-52140000D02*
X156450000Y-66170000D01*
X156450000Y-66170000D02*
X153050000Y-69570000D01*
X157250000Y-51740000D02*
X156850000Y-51740000D01*
%TO.N,5*%
X154850000Y-62690000D02*
X153050000Y-64490000D01*
X154850000Y-51750000D02*
X154850000Y-62690000D01*
%TO.N,3*%
X171450000Y-54250000D02*
X170850000Y-53650000D01*
X172450000Y-54250000D02*
X171450000Y-54250000D01*
%TO.N,4*%
X170950000Y-55750000D02*
X169850000Y-54650000D01*
X170950000Y-55850000D02*
X170950000Y-55750000D01*
D20*
%TO.N,3.3V*%
X161289000Y-50689000D02*
X170350000Y-59750000D01*
X155989000Y-50689000D02*
X161289000Y-50689000D01*
X170350000Y-59750000D02*
X160450000Y-69650000D01*
X154550000Y-49250000D02*
X155989000Y-50689000D01*
D21*
%TO.N,5V*%
X162650000Y-44450000D02*
X155310000Y-44450000D01*
X170450000Y-57650000D02*
X162650000Y-49850000D01*
X155310000Y-44450000D02*
X153050000Y-46710000D01*
X162650000Y-49850000D02*
X162650000Y-44450000D01*
D20*
%TO.N,3.3V*%
X170750000Y-59350000D02*
X170350000Y-59750000D01*
X171550000Y-59350000D02*
X170750000Y-59350000D01*
%TD*%
%TA.AperFunction,Conductor*%
%TO.N,GND*%
G36*
X198292539Y-42870185D02*
G01*
X198338294Y-42922989D01*
X198349500Y-42974500D01*
X198349500Y-96575500D01*
X198329815Y-96642539D01*
X198277011Y-96688294D01*
X198225500Y-96699500D01*
X149624500Y-96699500D01*
X149557461Y-96679815D01*
X149511706Y-96627011D01*
X149500500Y-96575500D01*
X149500500Y-93418753D01*
X151350000Y-93418753D01*
X151350000Y-93425000D01*
X152266988Y-93425000D01*
X152234075Y-93482007D01*
X152200000Y-93609174D01*
X152200000Y-93740826D01*
X152234075Y-93867993D01*
X152266988Y-93925000D01*
X151350000Y-93925000D01*
X151350000Y-93931246D01*
X151383242Y-94141127D01*
X151383242Y-94141130D01*
X151448904Y-94343217D01*
X151545379Y-94532557D01*
X151670272Y-94704459D01*
X151670276Y-94704464D01*
X151820535Y-94854723D01*
X151820540Y-94854727D01*
X151992442Y-94979620D01*
X152181782Y-95076095D01*
X152383871Y-95141757D01*
X152450000Y-95152231D01*
X152450000Y-94108012D01*
X152507007Y-94140925D01*
X152634174Y-94175000D01*
X152765826Y-94175000D01*
X152892993Y-94140925D01*
X152950000Y-94108012D01*
X152950000Y-95152230D01*
X153016126Y-95141757D01*
X153016129Y-95141757D01*
X153218217Y-95076095D01*
X153407557Y-94979620D01*
X153579458Y-94854728D01*
X153718330Y-94715856D01*
X153779653Y-94682371D01*
X153849345Y-94687355D01*
X153905279Y-94729226D01*
X153911551Y-94738440D01*
X153915185Y-94744331D01*
X153915186Y-94744334D01*
X154007288Y-94893656D01*
X154131344Y-95017712D01*
X154280666Y-95109814D01*
X154447203Y-95164999D01*
X154549991Y-95175500D01*
X155850008Y-95175499D01*
X155952797Y-95164999D01*
X156119334Y-95109814D01*
X156268656Y-95017712D01*
X156392712Y-94893656D01*
X156484814Y-94744334D01*
X156539999Y-94577797D01*
X156550500Y-94475009D01*
X156550499Y-92874992D01*
X156539999Y-92772203D01*
X156484814Y-92605666D01*
X156392712Y-92456344D01*
X156268656Y-92332288D01*
X156119334Y-92240186D01*
X155952797Y-92185001D01*
X155952795Y-92185000D01*
X155850010Y-92174500D01*
X154549998Y-92174500D01*
X154549981Y-92174501D01*
X154447203Y-92185000D01*
X154447200Y-92185001D01*
X154280668Y-92240185D01*
X154280663Y-92240187D01*
X154131342Y-92332289D01*
X154007289Y-92456342D01*
X153911551Y-92611559D01*
X153859603Y-92658283D01*
X153790640Y-92669506D01*
X153726558Y-92641662D01*
X153718331Y-92634143D01*
X153579464Y-92495276D01*
X153579459Y-92495272D01*
X153407557Y-92370379D01*
X153218215Y-92273903D01*
X153016124Y-92208241D01*
X152950000Y-92197768D01*
X152950000Y-93241988D01*
X152892993Y-93209075D01*
X152765826Y-93175000D01*
X152634174Y-93175000D01*
X152507007Y-93209075D01*
X152450000Y-93241988D01*
X152450000Y-92197768D01*
X152449999Y-92197768D01*
X152383875Y-92208241D01*
X152181784Y-92273903D01*
X151992442Y-92370379D01*
X151820540Y-92495272D01*
X151820535Y-92495276D01*
X151670276Y-92645535D01*
X151670272Y-92645540D01*
X151545379Y-92817442D01*
X151448904Y-93006782D01*
X151383242Y-93208869D01*
X151383242Y-93208872D01*
X151350000Y-93418753D01*
X149500500Y-93418753D01*
X149500500Y-73851617D01*
X182120000Y-73851617D01*
X182120000Y-74048382D01*
X182150778Y-74242705D01*
X182211581Y-74429835D01*
X182300905Y-74605145D01*
X182326319Y-74640125D01*
X182326320Y-74640125D01*
X182970000Y-73996445D01*
X182970000Y-74002661D01*
X182997259Y-74104394D01*
X183049920Y-74195606D01*
X183124394Y-74270080D01*
X183215606Y-74322741D01*
X183317339Y-74350000D01*
X183323553Y-74350000D01*
X182679873Y-74993677D01*
X182679873Y-74993678D01*
X182714858Y-75019096D01*
X182890164Y-75108418D01*
X183077294Y-75169221D01*
X183271618Y-75200000D01*
X183468382Y-75200000D01*
X183662705Y-75169221D01*
X183849835Y-75108418D01*
X184025143Y-75019095D01*
X184060125Y-74993678D01*
X184060126Y-74993678D01*
X183416448Y-74350000D01*
X183422661Y-74350000D01*
X183524394Y-74322741D01*
X183615606Y-74270080D01*
X183690080Y-74195606D01*
X183742741Y-74104394D01*
X183770000Y-74002661D01*
X183770000Y-73996448D01*
X184413678Y-74640126D01*
X184413678Y-74640125D01*
X184439097Y-74605141D01*
X184529234Y-74428236D01*
X184577208Y-74377439D01*
X184645029Y-74360644D01*
X184711164Y-74383181D01*
X184750204Y-74428235D01*
X184751115Y-74430024D01*
X184751116Y-74430025D01*
X184840476Y-74605405D01*
X184956172Y-74764646D01*
X185095354Y-74903828D01*
X185254595Y-75019524D01*
X185337455Y-75061743D01*
X185429970Y-75108882D01*
X185429972Y-75108882D01*
X185429975Y-75108884D01*
X185530317Y-75141487D01*
X185617173Y-75169709D01*
X185811578Y-75200500D01*
X185811583Y-75200500D01*
X186008422Y-75200500D01*
X186202826Y-75169709D01*
X186204328Y-75169221D01*
X186390025Y-75108884D01*
X186565405Y-75019524D01*
X186724646Y-74903828D01*
X186863828Y-74764646D01*
X186979524Y-74605405D01*
X187068884Y-74430025D01*
X187068884Y-74430022D01*
X187069795Y-74428236D01*
X187117769Y-74377440D01*
X187185590Y-74360644D01*
X187251725Y-74383181D01*
X187290765Y-74428235D01*
X187380905Y-74605145D01*
X187406319Y-74640125D01*
X187406320Y-74640125D01*
X188050000Y-73996445D01*
X188050000Y-74002661D01*
X188077259Y-74104394D01*
X188129920Y-74195606D01*
X188204394Y-74270080D01*
X188295606Y-74322741D01*
X188397339Y-74350000D01*
X188403553Y-74350000D01*
X187759873Y-74993677D01*
X187759873Y-74993678D01*
X187794858Y-75019096D01*
X187970164Y-75108418D01*
X188157294Y-75169221D01*
X188351618Y-75200000D01*
X188548382Y-75200000D01*
X188742705Y-75169221D01*
X188929835Y-75108418D01*
X189105143Y-75019095D01*
X189140125Y-74993678D01*
X189140126Y-74993678D01*
X188496448Y-74350000D01*
X188502661Y-74350000D01*
X188604394Y-74322741D01*
X188695606Y-74270080D01*
X188770080Y-74195606D01*
X188822741Y-74104394D01*
X188850000Y-74002661D01*
X188850000Y-73996448D01*
X189493678Y-74640126D01*
X189493678Y-74640125D01*
X189519097Y-74605141D01*
X189609234Y-74428236D01*
X189657208Y-74377439D01*
X189725029Y-74360644D01*
X189791164Y-74383181D01*
X189830204Y-74428235D01*
X189831115Y-74430024D01*
X189831116Y-74430025D01*
X189920476Y-74605405D01*
X190036172Y-74764646D01*
X190175354Y-74903828D01*
X190334595Y-75019524D01*
X190417455Y-75061743D01*
X190509970Y-75108882D01*
X190509972Y-75108882D01*
X190509975Y-75108884D01*
X190610317Y-75141487D01*
X190697173Y-75169709D01*
X190891578Y-75200500D01*
X190891583Y-75200500D01*
X191088422Y-75200500D01*
X191282826Y-75169709D01*
X191284328Y-75169221D01*
X191470025Y-75108884D01*
X191645405Y-75019524D01*
X191804646Y-74903828D01*
X191943828Y-74764646D01*
X192059524Y-74605405D01*
X192148884Y-74430025D01*
X192209709Y-74242826D01*
X192217188Y-74195606D01*
X192240500Y-74048422D01*
X192240500Y-73851577D01*
X192209709Y-73657173D01*
X192160142Y-73504624D01*
X192148884Y-73469975D01*
X192148882Y-73469972D01*
X192148882Y-73469970D01*
X192093407Y-73361095D01*
X192059524Y-73294595D01*
X191943828Y-73135354D01*
X191804646Y-72996172D01*
X191645405Y-72880476D01*
X191470029Y-72791117D01*
X191282826Y-72730290D01*
X191088422Y-72699500D01*
X191088417Y-72699500D01*
X190891583Y-72699500D01*
X190891578Y-72699500D01*
X190697173Y-72730290D01*
X190509970Y-72791117D01*
X190334594Y-72880476D01*
X190243741Y-72946485D01*
X190175354Y-72996172D01*
X190175352Y-72996174D01*
X190175351Y-72996174D01*
X190036174Y-73135351D01*
X190036174Y-73135352D01*
X190036172Y-73135354D01*
X189986485Y-73203741D01*
X189920476Y-73294594D01*
X189830204Y-73471764D01*
X189782229Y-73522560D01*
X189714408Y-73539355D01*
X189648274Y-73516818D01*
X189609234Y-73471764D01*
X189519096Y-73294858D01*
X189493678Y-73259873D01*
X189493677Y-73259873D01*
X188850000Y-73903551D01*
X188850000Y-73897339D01*
X188822741Y-73795606D01*
X188770080Y-73704394D01*
X188695606Y-73629920D01*
X188604394Y-73577259D01*
X188502661Y-73550000D01*
X188496447Y-73550000D01*
X189140125Y-72906320D01*
X189140125Y-72906319D01*
X189105145Y-72880905D01*
X188929835Y-72791581D01*
X188742705Y-72730778D01*
X188548382Y-72700000D01*
X188351618Y-72700000D01*
X188157294Y-72730778D01*
X187970161Y-72791582D01*
X187794863Y-72880899D01*
X187794859Y-72880902D01*
X187759873Y-72906320D01*
X187759872Y-72906320D01*
X188403554Y-73550000D01*
X188397339Y-73550000D01*
X188295606Y-73577259D01*
X188204394Y-73629920D01*
X188129920Y-73704394D01*
X188077259Y-73795606D01*
X188050000Y-73897339D01*
X188050000Y-73903552D01*
X187406320Y-73259872D01*
X187406320Y-73259873D01*
X187380902Y-73294859D01*
X187290765Y-73471764D01*
X187242790Y-73522560D01*
X187174969Y-73539355D01*
X187108835Y-73516818D01*
X187069795Y-73471763D01*
X186979525Y-73294596D01*
X186945578Y-73247873D01*
X186863828Y-73135354D01*
X186724646Y-72996172D01*
X186565405Y-72880476D01*
X186390029Y-72791117D01*
X186202826Y-72730290D01*
X186008422Y-72699500D01*
X186008417Y-72699500D01*
X185811583Y-72699500D01*
X185811578Y-72699500D01*
X185617173Y-72730290D01*
X185429970Y-72791117D01*
X185254594Y-72880476D01*
X185163741Y-72946485D01*
X185095354Y-72996172D01*
X185095352Y-72996174D01*
X185095351Y-72996174D01*
X184956174Y-73135351D01*
X184956174Y-73135352D01*
X184956172Y-73135354D01*
X184906485Y-73203741D01*
X184840476Y-73294594D01*
X184750204Y-73471764D01*
X184702229Y-73522560D01*
X184634408Y-73539355D01*
X184568274Y-73516818D01*
X184529234Y-73471764D01*
X184439096Y-73294858D01*
X184413678Y-73259873D01*
X184413677Y-73259873D01*
X183770000Y-73903551D01*
X183770000Y-73897339D01*
X183742741Y-73795606D01*
X183690080Y-73704394D01*
X183615606Y-73629920D01*
X183524394Y-73577259D01*
X183422661Y-73550000D01*
X183416447Y-73550000D01*
X184060125Y-72906320D01*
X184060125Y-72906319D01*
X184025145Y-72880905D01*
X183849835Y-72791581D01*
X183662705Y-72730778D01*
X183468382Y-72700000D01*
X183271618Y-72700000D01*
X183077294Y-72730778D01*
X182890161Y-72791582D01*
X182714863Y-72880899D01*
X182714859Y-72880902D01*
X182679873Y-72906320D01*
X182679872Y-72906320D01*
X183323554Y-73550000D01*
X183317339Y-73550000D01*
X183215606Y-73577259D01*
X183124394Y-73629920D01*
X183049920Y-73704394D01*
X182997259Y-73795606D01*
X182970000Y-73897339D01*
X182970000Y-73903552D01*
X182326320Y-73259872D01*
X182326320Y-73259873D01*
X182300902Y-73294859D01*
X182300899Y-73294863D01*
X182211582Y-73470161D01*
X182150778Y-73657294D01*
X182120000Y-73851617D01*
X149500500Y-73851617D01*
X149500500Y-45812135D01*
X151699500Y-45812135D01*
X151699500Y-47607870D01*
X151699501Y-47607876D01*
X151705908Y-47667483D01*
X151756202Y-47802328D01*
X151756206Y-47802335D01*
X151842452Y-47917544D01*
X151842455Y-47917547D01*
X151957664Y-48003793D01*
X151957671Y-48003797D01*
X152089082Y-48052810D01*
X152145016Y-48094681D01*
X152169433Y-48160145D01*
X152154582Y-48228418D01*
X152133431Y-48256673D01*
X152019889Y-48370215D01*
X151894951Y-48542179D01*
X151798444Y-48731585D01*
X151732753Y-48933760D01*
X151704927Y-49109448D01*
X151699500Y-49143713D01*
X151699500Y-49356287D01*
X151732754Y-49566243D01*
X151778880Y-49708205D01*
X151798444Y-49768414D01*
X151894951Y-49957820D01*
X152019890Y-50129786D01*
X152170213Y-50280109D01*
X152342182Y-50405050D01*
X152350946Y-50409516D01*
X152401742Y-50457491D01*
X152418536Y-50525312D01*
X152395998Y-50591447D01*
X152350946Y-50630484D01*
X152342182Y-50634949D01*
X152170213Y-50759890D01*
X152019890Y-50910213D01*
X151894951Y-51082179D01*
X151798444Y-51271585D01*
X151732753Y-51473760D01*
X151699500Y-51683713D01*
X151699500Y-51896286D01*
X151732753Y-52106239D01*
X151798444Y-52308414D01*
X151894951Y-52497820D01*
X152019890Y-52669786D01*
X152170213Y-52820109D01*
X152342182Y-52945050D01*
X152350946Y-52949516D01*
X152401742Y-52997491D01*
X152418536Y-53065312D01*
X152395998Y-53131447D01*
X152350946Y-53170484D01*
X152342182Y-53174949D01*
X152170213Y-53299890D01*
X152019890Y-53450213D01*
X151894951Y-53622179D01*
X151798444Y-53811585D01*
X151732753Y-54013760D01*
X151699500Y-54223713D01*
X151699500Y-54436286D01*
X151722031Y-54578545D01*
X151732754Y-54646243D01*
X151772285Y-54767907D01*
X151798444Y-54848414D01*
X151894951Y-55037820D01*
X152019890Y-55209786D01*
X152170213Y-55360109D01*
X152342182Y-55485050D01*
X152350946Y-55489516D01*
X152401742Y-55537491D01*
X152418536Y-55605312D01*
X152395998Y-55671447D01*
X152350946Y-55710484D01*
X152342182Y-55714949D01*
X152170213Y-55839890D01*
X152019890Y-55990213D01*
X151894951Y-56162179D01*
X151798444Y-56351585D01*
X151732753Y-56553760D01*
X151730407Y-56568573D01*
X151699500Y-56763713D01*
X151699500Y-56976287D01*
X151705191Y-57012219D01*
X151731145Y-57176089D01*
X151732754Y-57186243D01*
X151788614Y-57358163D01*
X151798444Y-57388414D01*
X151894951Y-57577820D01*
X152019890Y-57749786D01*
X152170213Y-57900109D01*
X152342182Y-58025050D01*
X152350946Y-58029516D01*
X152401742Y-58077491D01*
X152418536Y-58145312D01*
X152395998Y-58211447D01*
X152350946Y-58250484D01*
X152342182Y-58254949D01*
X152170213Y-58379890D01*
X152019890Y-58530213D01*
X151894951Y-58702179D01*
X151798444Y-58891585D01*
X151732753Y-59093760D01*
X151730306Y-59109211D01*
X151699500Y-59303713D01*
X151699500Y-59516287D01*
X151732754Y-59726243D01*
X151781487Y-59876228D01*
X151798444Y-59928414D01*
X151894951Y-60117820D01*
X152019890Y-60289786D01*
X152170213Y-60440109D01*
X152342182Y-60565050D01*
X152350946Y-60569516D01*
X152401742Y-60617491D01*
X152418536Y-60685312D01*
X152395998Y-60751447D01*
X152350946Y-60790484D01*
X152342182Y-60794949D01*
X152170213Y-60919890D01*
X152019890Y-61070213D01*
X151894951Y-61242179D01*
X151798444Y-61431585D01*
X151732753Y-61633760D01*
X151699500Y-61843713D01*
X151699500Y-62056286D01*
X151717398Y-62169293D01*
X151732754Y-62266243D01*
X151772285Y-62387907D01*
X151798444Y-62468414D01*
X151894951Y-62657820D01*
X152019890Y-62829786D01*
X152170213Y-62980109D01*
X152342182Y-63105050D01*
X152350946Y-63109516D01*
X152401742Y-63157491D01*
X152418536Y-63225312D01*
X152395998Y-63291447D01*
X152350946Y-63330484D01*
X152342182Y-63334949D01*
X152170213Y-63459890D01*
X152019890Y-63610213D01*
X151894951Y-63782179D01*
X151798444Y-63971585D01*
X151732753Y-64173760D01*
X151699500Y-64383713D01*
X151699500Y-64596286D01*
X151730225Y-64790279D01*
X151732754Y-64806243D01*
X151758014Y-64883986D01*
X151798444Y-65008414D01*
X151894951Y-65197820D01*
X152019890Y-65369786D01*
X152170213Y-65520109D01*
X152342182Y-65645050D01*
X152350946Y-65649516D01*
X152401742Y-65697491D01*
X152418536Y-65765312D01*
X152395998Y-65831447D01*
X152350946Y-65870484D01*
X152342182Y-65874949D01*
X152170213Y-65999890D01*
X152019890Y-66150213D01*
X151894951Y-66322179D01*
X151798444Y-66511585D01*
X151732753Y-66713760D01*
X151699500Y-66923713D01*
X151699500Y-67136286D01*
X151732753Y-67346239D01*
X151798444Y-67548414D01*
X151894951Y-67737820D01*
X152019890Y-67909786D01*
X152170213Y-68060109D01*
X152342182Y-68185050D01*
X152350946Y-68189516D01*
X152401742Y-68237491D01*
X152418536Y-68305312D01*
X152395998Y-68371447D01*
X152350946Y-68410484D01*
X152342182Y-68414949D01*
X152170213Y-68539890D01*
X152019890Y-68690213D01*
X151894951Y-68862179D01*
X151798444Y-69051585D01*
X151732753Y-69253760D01*
X151699500Y-69463713D01*
X151699500Y-69676286D01*
X151732753Y-69886239D01*
X151798444Y-70088414D01*
X151894951Y-70277820D01*
X152019890Y-70449786D01*
X152170213Y-70600109D01*
X152342179Y-70725048D01*
X152342181Y-70725049D01*
X152342184Y-70725051D01*
X152351493Y-70729794D01*
X152402290Y-70777766D01*
X152419087Y-70845587D01*
X152396552Y-70911722D01*
X152351505Y-70950760D01*
X152342446Y-70955376D01*
X152342440Y-70955380D01*
X152288282Y-70994727D01*
X152288282Y-70994728D01*
X152920591Y-71627037D01*
X152857007Y-71644075D01*
X152742993Y-71709901D01*
X152649901Y-71802993D01*
X152584075Y-71917007D01*
X152567037Y-71980591D01*
X151934728Y-71348282D01*
X151934727Y-71348282D01*
X151895380Y-71402439D01*
X151798904Y-71591782D01*
X151733242Y-71793869D01*
X151733242Y-71793872D01*
X151700000Y-72003753D01*
X151700000Y-72216246D01*
X151733242Y-72426127D01*
X151733242Y-72426130D01*
X151798904Y-72628217D01*
X151895375Y-72817550D01*
X151934728Y-72871716D01*
X152567037Y-72239408D01*
X152584075Y-72302993D01*
X152649901Y-72417007D01*
X152742993Y-72510099D01*
X152857007Y-72575925D01*
X152920590Y-72592962D01*
X152288282Y-73225269D01*
X152288282Y-73225270D01*
X152342449Y-73264624D01*
X152531782Y-73361095D01*
X152733870Y-73426757D01*
X152943754Y-73460000D01*
X153156246Y-73460000D01*
X153366127Y-73426757D01*
X153366130Y-73426757D01*
X153568217Y-73361095D01*
X153757554Y-73264622D01*
X153811716Y-73225270D01*
X153811717Y-73225270D01*
X153179408Y-72592962D01*
X153242993Y-72575925D01*
X153357007Y-72510099D01*
X153450099Y-72417007D01*
X153515925Y-72302993D01*
X153532962Y-72239408D01*
X154165270Y-72871717D01*
X154165270Y-72871716D01*
X154204622Y-72817554D01*
X154301095Y-72628217D01*
X154366757Y-72426130D01*
X154366757Y-72426127D01*
X154400000Y-72216246D01*
X154400000Y-72003753D01*
X154366757Y-71793872D01*
X154366757Y-71793869D01*
X154301095Y-71591782D01*
X154256929Y-71505101D01*
X154256928Y-71505097D01*
X154229942Y-71452135D01*
X159079500Y-71452135D01*
X159079500Y-73247870D01*
X159079501Y-73247876D01*
X159085908Y-73307483D01*
X159136202Y-73442328D01*
X159136206Y-73442335D01*
X159222452Y-73557544D01*
X159222455Y-73557547D01*
X159337664Y-73643793D01*
X159337671Y-73643797D01*
X159472517Y-73694091D01*
X159472516Y-73694091D01*
X159479444Y-73694835D01*
X159532127Y-73700500D01*
X161327872Y-73700499D01*
X161387483Y-73694091D01*
X161522331Y-73643796D01*
X161637546Y-73557546D01*
X161723796Y-73442331D01*
X161772810Y-73310916D01*
X161814681Y-73254984D01*
X161880145Y-73230566D01*
X161948418Y-73245417D01*
X161976673Y-73266569D01*
X162090213Y-73380109D01*
X162262179Y-73505048D01*
X162262181Y-73505049D01*
X162262184Y-73505051D01*
X162451588Y-73601557D01*
X162653757Y-73667246D01*
X162863713Y-73700500D01*
X162863714Y-73700500D01*
X163076286Y-73700500D01*
X163076287Y-73700500D01*
X163286243Y-73667246D01*
X163488412Y-73601557D01*
X163677816Y-73505051D01*
X163764138Y-73442335D01*
X163849786Y-73380109D01*
X163849788Y-73380106D01*
X163849792Y-73380104D01*
X164000104Y-73229792D01*
X164000106Y-73229788D01*
X164000109Y-73229786D01*
X164125048Y-73057820D01*
X164125047Y-73057820D01*
X164125051Y-73057816D01*
X164129514Y-73049054D01*
X164177488Y-72998259D01*
X164245308Y-72981463D01*
X164311444Y-73003999D01*
X164350486Y-73049056D01*
X164354951Y-73057820D01*
X164479890Y-73229786D01*
X164630213Y-73380109D01*
X164802179Y-73505048D01*
X164802181Y-73505049D01*
X164802184Y-73505051D01*
X164991588Y-73601557D01*
X165193757Y-73667246D01*
X165403713Y-73700500D01*
X165403714Y-73700500D01*
X165616286Y-73700500D01*
X165616287Y-73700500D01*
X165826243Y-73667246D01*
X166028412Y-73601557D01*
X166217816Y-73505051D01*
X166304138Y-73442335D01*
X166389786Y-73380109D01*
X166389788Y-73380106D01*
X166389792Y-73380104D01*
X166540104Y-73229792D01*
X166540106Y-73229788D01*
X166540109Y-73229786D01*
X166665048Y-73057820D01*
X166665047Y-73057820D01*
X166665051Y-73057816D01*
X166669514Y-73049054D01*
X166717488Y-72998259D01*
X166785308Y-72981463D01*
X166851444Y-73003999D01*
X166890486Y-73049056D01*
X166894951Y-73057820D01*
X167019890Y-73229786D01*
X167170213Y-73380109D01*
X167342179Y-73505048D01*
X167342181Y-73505049D01*
X167342184Y-73505051D01*
X167531588Y-73601557D01*
X167733757Y-73667246D01*
X167943713Y-73700500D01*
X167943714Y-73700500D01*
X168156286Y-73700500D01*
X168156287Y-73700500D01*
X168366243Y-73667246D01*
X168568412Y-73601557D01*
X168757816Y-73505051D01*
X168844138Y-73442335D01*
X168929786Y-73380109D01*
X168929788Y-73380106D01*
X168929792Y-73380104D01*
X169080104Y-73229792D01*
X169080106Y-73229788D01*
X169080109Y-73229786D01*
X169165890Y-73111717D01*
X169205051Y-73057816D01*
X169209793Y-73048508D01*
X169257763Y-72997711D01*
X169325583Y-72980911D01*
X169391719Y-73003445D01*
X169430763Y-73048500D01*
X169435373Y-73057547D01*
X169474728Y-73111716D01*
X170107037Y-72479408D01*
X170124075Y-72542993D01*
X170189901Y-72657007D01*
X170282993Y-72750099D01*
X170397007Y-72815925D01*
X170460590Y-72832962D01*
X169828282Y-73465269D01*
X169828282Y-73465270D01*
X169882449Y-73504624D01*
X170071782Y-73601095D01*
X170273870Y-73666757D01*
X170483754Y-73700000D01*
X170696246Y-73700000D01*
X170906127Y-73666757D01*
X170906130Y-73666757D01*
X171108217Y-73601095D01*
X171297554Y-73504622D01*
X171351716Y-73465270D01*
X171351717Y-73465270D01*
X170719408Y-72832962D01*
X170782993Y-72815925D01*
X170897007Y-72750099D01*
X170990099Y-72657007D01*
X171055925Y-72542993D01*
X171072962Y-72479408D01*
X171705270Y-73111717D01*
X171705270Y-73111716D01*
X171744622Y-73057554D01*
X171826285Y-72897284D01*
X171826286Y-72897282D01*
X171841094Y-72868219D01*
X171906757Y-72666130D01*
X171906757Y-72666127D01*
X171940000Y-72456246D01*
X171940000Y-72243753D01*
X171906757Y-72033872D01*
X171906757Y-72033869D01*
X171841095Y-71831782D01*
X171744624Y-71642449D01*
X171705270Y-71588282D01*
X171705269Y-71588282D01*
X171072962Y-72220590D01*
X171055925Y-72157007D01*
X170990099Y-72042993D01*
X170897007Y-71949901D01*
X170782993Y-71884075D01*
X170719409Y-71867037D01*
X171351716Y-71234728D01*
X171297550Y-71195375D01*
X171108217Y-71098904D01*
X170906129Y-71033242D01*
X170696246Y-71000000D01*
X170483754Y-71000000D01*
X170273872Y-71033242D01*
X170273869Y-71033242D01*
X170071782Y-71098904D01*
X169882439Y-71195380D01*
X169828282Y-71234727D01*
X169828282Y-71234728D01*
X170460591Y-71867037D01*
X170397007Y-71884075D01*
X170282993Y-71949901D01*
X170189901Y-72042993D01*
X170124075Y-72157007D01*
X170107037Y-72220591D01*
X169474728Y-71588282D01*
X169474727Y-71588282D01*
X169435380Y-71642440D01*
X169435376Y-71642446D01*
X169430760Y-71651505D01*
X169382781Y-71702297D01*
X169314959Y-71719087D01*
X169248826Y-71696543D01*
X169209794Y-71651493D01*
X169205051Y-71642184D01*
X169205049Y-71642181D01*
X169205048Y-71642179D01*
X169080109Y-71470213D01*
X168929786Y-71319890D01*
X168757820Y-71194951D01*
X168568414Y-71098444D01*
X168568413Y-71098443D01*
X168568412Y-71098443D01*
X168366243Y-71032754D01*
X168366241Y-71032753D01*
X168366240Y-71032753D01*
X168204957Y-71007208D01*
X168156287Y-70999500D01*
X167943713Y-70999500D01*
X167895042Y-71007208D01*
X167733760Y-71032753D01*
X167531585Y-71098444D01*
X167342179Y-71194951D01*
X167170213Y-71319890D01*
X167019890Y-71470213D01*
X166894949Y-71642182D01*
X166890484Y-71650946D01*
X166842509Y-71701742D01*
X166774688Y-71718536D01*
X166708553Y-71695998D01*
X166669516Y-71650946D01*
X166665050Y-71642182D01*
X166540109Y-71470213D01*
X166389786Y-71319890D01*
X166217820Y-71194951D01*
X166028414Y-71098444D01*
X166028413Y-71098443D01*
X166028412Y-71098443D01*
X165826243Y-71032754D01*
X165826241Y-71032753D01*
X165826240Y-71032753D01*
X165664957Y-71007208D01*
X165616287Y-70999500D01*
X165403713Y-70999500D01*
X165355042Y-71007208D01*
X165193760Y-71032753D01*
X164991585Y-71098444D01*
X164802179Y-71194951D01*
X164630213Y-71319890D01*
X164479890Y-71470213D01*
X164354949Y-71642182D01*
X164350484Y-71650946D01*
X164302509Y-71701742D01*
X164234688Y-71718536D01*
X164168553Y-71695998D01*
X164129516Y-71650946D01*
X164125050Y-71642182D01*
X164000109Y-71470213D01*
X163849786Y-71319890D01*
X163677820Y-71194951D01*
X163488414Y-71098444D01*
X163488413Y-71098443D01*
X163488412Y-71098443D01*
X163286243Y-71032754D01*
X163286241Y-71032753D01*
X163286240Y-71032753D01*
X163124957Y-71007208D01*
X163076287Y-70999500D01*
X162863713Y-70999500D01*
X162815042Y-71007208D01*
X162653760Y-71032753D01*
X162451585Y-71098444D01*
X162262179Y-71194951D01*
X162090215Y-71319889D01*
X161976673Y-71433431D01*
X161915350Y-71466915D01*
X161845658Y-71461931D01*
X161789725Y-71420059D01*
X161772810Y-71389082D01*
X161723797Y-71257671D01*
X161723793Y-71257664D01*
X161637547Y-71142455D01*
X161637544Y-71142452D01*
X161522335Y-71056206D01*
X161522328Y-71056202D01*
X161387482Y-71005908D01*
X161387483Y-71005908D01*
X161327883Y-70999501D01*
X161327881Y-70999500D01*
X161327873Y-70999500D01*
X161327864Y-70999500D01*
X159532129Y-70999500D01*
X159532123Y-70999501D01*
X159472516Y-71005908D01*
X159337671Y-71056202D01*
X159337664Y-71056206D01*
X159222455Y-71142452D01*
X159222452Y-71142455D01*
X159136206Y-71257664D01*
X159136202Y-71257671D01*
X159085908Y-71392517D01*
X159079501Y-71452116D01*
X159079500Y-71452135D01*
X154229942Y-71452135D01*
X154204629Y-71402457D01*
X154204626Y-71402452D01*
X154165270Y-71348282D01*
X154165269Y-71348282D01*
X153532962Y-71980590D01*
X153515925Y-71917007D01*
X153450099Y-71802993D01*
X153357007Y-71709901D01*
X153242993Y-71644075D01*
X153179409Y-71627037D01*
X153811716Y-70994728D01*
X153757547Y-70955373D01*
X153757547Y-70955372D01*
X153748500Y-70950763D01*
X153697706Y-70902788D01*
X153680912Y-70834966D01*
X153703451Y-70768832D01*
X153748508Y-70729793D01*
X153757816Y-70725051D01*
X153837007Y-70667515D01*
X153929786Y-70600109D01*
X153929788Y-70600106D01*
X153929792Y-70600104D01*
X154080104Y-70449792D01*
X154080106Y-70449788D01*
X154080109Y-70449786D01*
X154205048Y-70277820D01*
X154205047Y-70277820D01*
X154205051Y-70277816D01*
X154301557Y-70088412D01*
X154367246Y-69886243D01*
X154400500Y-69676287D01*
X154400500Y-69463713D01*
X154369948Y-69270814D01*
X154366484Y-69248945D01*
X154368123Y-69248685D01*
X154371257Y-69186126D01*
X154400655Y-69139289D01*
X156955277Y-66584669D01*
X157026465Y-66478127D01*
X157075501Y-66359744D01*
X157082972Y-66322184D01*
X157100500Y-66234069D01*
X157100500Y-64940281D01*
X157120185Y-64873242D01*
X157172989Y-64827487D01*
X157242147Y-64817543D01*
X157305703Y-64846568D01*
X157334984Y-64883985D01*
X157405186Y-65021763D01*
X157416006Y-65042997D01*
X157522441Y-65189494D01*
X157522445Y-65189499D01*
X157650500Y-65317554D01*
X157650505Y-65317558D01*
X157722392Y-65369786D01*
X157797006Y-65423996D01*
X157902484Y-65477740D01*
X157958360Y-65506211D01*
X157958363Y-65506212D01*
X158001135Y-65520109D01*
X158130591Y-65562171D01*
X158213429Y-65575291D01*
X158309449Y-65590500D01*
X158309454Y-65590500D01*
X159190551Y-65590500D01*
X159277259Y-65576765D01*
X159369409Y-65562171D01*
X159541639Y-65506211D01*
X159702994Y-65423996D01*
X159849501Y-65317553D01*
X159977553Y-65189501D01*
X160083996Y-65042994D01*
X160166211Y-64881639D01*
X160222171Y-64709409D01*
X160240088Y-64596286D01*
X160250500Y-64530551D01*
X160250500Y-64349448D01*
X160232460Y-64235551D01*
X160222171Y-64170591D01*
X160186007Y-64059288D01*
X160166212Y-63998363D01*
X160166211Y-63998360D01*
X160136331Y-63939718D01*
X160083996Y-63837006D01*
X160018693Y-63747123D01*
X159977558Y-63690505D01*
X159977554Y-63690500D01*
X159849499Y-63562445D01*
X159849494Y-63562441D01*
X159702997Y-63456006D01*
X159702996Y-63456005D01*
X159702994Y-63456004D01*
X159651300Y-63429664D01*
X159541639Y-63373788D01*
X159541636Y-63373787D01*
X159369410Y-63317829D01*
X159209321Y-63292473D01*
X159146186Y-63262544D01*
X159109255Y-63203232D01*
X159110253Y-63133370D01*
X159148863Y-63075137D01*
X159209321Y-63047527D01*
X159279425Y-63036422D01*
X159369409Y-63022171D01*
X159541639Y-62966211D01*
X159702994Y-62883996D01*
X159849501Y-62777553D01*
X159977553Y-62649501D01*
X160083996Y-62502994D01*
X160166211Y-62341639D01*
X160222171Y-62169409D01*
X160240388Y-62054394D01*
X160250500Y-61990551D01*
X160250500Y-61809448D01*
X160225941Y-61654394D01*
X160222171Y-61630591D01*
X160187409Y-61523604D01*
X160166212Y-61458363D01*
X160166211Y-61458360D01*
X160136331Y-61399718D01*
X160083996Y-61297006D01*
X160038614Y-61234543D01*
X159977558Y-61150505D01*
X159977554Y-61150500D01*
X159849499Y-61022445D01*
X159849494Y-61022441D01*
X159702997Y-60916006D01*
X159702996Y-60916005D01*
X159702994Y-60916004D01*
X159651300Y-60889664D01*
X159541639Y-60833788D01*
X159541636Y-60833787D01*
X159369410Y-60777829D01*
X159209321Y-60752473D01*
X159146186Y-60722544D01*
X159109255Y-60663232D01*
X159110253Y-60593370D01*
X159148863Y-60535137D01*
X159209321Y-60507527D01*
X159279425Y-60496422D01*
X159369409Y-60482171D01*
X159541639Y-60426211D01*
X159702994Y-60343996D01*
X159849501Y-60237553D01*
X159977553Y-60109501D01*
X160083996Y-59962994D01*
X160166211Y-59801639D01*
X160222171Y-59629409D01*
X160240088Y-59516286D01*
X160250500Y-59450551D01*
X160250500Y-59269448D01*
X160225120Y-59109211D01*
X160222171Y-59090591D01*
X160183591Y-58971853D01*
X160166212Y-58918363D01*
X160166211Y-58918360D01*
X160136331Y-58859718D01*
X160083996Y-58757006D01*
X160038614Y-58694543D01*
X159977558Y-58610505D01*
X159977554Y-58610500D01*
X159849499Y-58482445D01*
X159849494Y-58482441D01*
X159702997Y-58376006D01*
X159702996Y-58376005D01*
X159702994Y-58376004D01*
X159640766Y-58344297D01*
X159541639Y-58293788D01*
X159541636Y-58293787D01*
X159369410Y-58237829D01*
X159209321Y-58212473D01*
X159146186Y-58182544D01*
X159109255Y-58123232D01*
X159110253Y-58053370D01*
X159148863Y-57995137D01*
X159209321Y-57967527D01*
X159279425Y-57956422D01*
X159369409Y-57942171D01*
X159541639Y-57886211D01*
X159702994Y-57803996D01*
X159849501Y-57697553D01*
X159977553Y-57569501D01*
X160083996Y-57422994D01*
X160166211Y-57261639D01*
X160222171Y-57089409D01*
X160240088Y-56976286D01*
X160250500Y-56910551D01*
X160250500Y-56729448D01*
X160225019Y-56568573D01*
X160222171Y-56550591D01*
X160187409Y-56443604D01*
X160166212Y-56378363D01*
X160166211Y-56378360D01*
X160132642Y-56312478D01*
X160083996Y-56217006D01*
X160038614Y-56154543D01*
X159977558Y-56070505D01*
X159977554Y-56070500D01*
X159849499Y-55942445D01*
X159849494Y-55942441D01*
X159702997Y-55836006D01*
X159702996Y-55836005D01*
X159702994Y-55836004D01*
X159651300Y-55809664D01*
X159541639Y-55753788D01*
X159541636Y-55753787D01*
X159369410Y-55697829D01*
X159209321Y-55672473D01*
X159146186Y-55642544D01*
X159109255Y-55583232D01*
X159110253Y-55513370D01*
X159148863Y-55455137D01*
X159209321Y-55427527D01*
X159279425Y-55416422D01*
X159369409Y-55402171D01*
X159541639Y-55346211D01*
X159702994Y-55263996D01*
X159849501Y-55157553D01*
X159977553Y-55029501D01*
X160083996Y-54882994D01*
X160166211Y-54721639D01*
X160222171Y-54549409D01*
X160236765Y-54457259D01*
X160250500Y-54370551D01*
X160250500Y-54189448D01*
X160234019Y-54085397D01*
X160222171Y-54010591D01*
X160187409Y-53903604D01*
X160166212Y-53838363D01*
X160166211Y-53838360D01*
X160106646Y-53721459D01*
X160083996Y-53677006D01*
X160013383Y-53579815D01*
X159977558Y-53530505D01*
X159977554Y-53530500D01*
X159849499Y-53402445D01*
X159849494Y-53402441D01*
X159702997Y-53296006D01*
X159702996Y-53296005D01*
X159702994Y-53296004D01*
X159651300Y-53269664D01*
X159541639Y-53213788D01*
X159541636Y-53213787D01*
X159369410Y-53157829D01*
X159209321Y-53132473D01*
X159146186Y-53102544D01*
X159109255Y-53043232D01*
X159110253Y-52973370D01*
X159148863Y-52915137D01*
X159209321Y-52887527D01*
X159279425Y-52876422D01*
X159369409Y-52862171D01*
X159541639Y-52806211D01*
X159702994Y-52723996D01*
X159849501Y-52617553D01*
X159977553Y-52489501D01*
X160083996Y-52342994D01*
X160166211Y-52181639D01*
X160222171Y-52009409D01*
X160240088Y-51896286D01*
X160250500Y-51830551D01*
X160250500Y-51649452D01*
X160247878Y-51632896D01*
X160256834Y-51563603D01*
X160301831Y-51510151D01*
X160368583Y-51489513D01*
X160370352Y-51489500D01*
X160906060Y-51489500D01*
X160973099Y-51509185D01*
X160993741Y-51525819D01*
X169130240Y-59662318D01*
X169163725Y-59723641D01*
X169158741Y-59793333D01*
X169130240Y-59837680D01*
X159828213Y-69139707D01*
X159828210Y-69139711D01*
X159740609Y-69270814D01*
X159740602Y-69270827D01*
X159680264Y-69416498D01*
X159680261Y-69416510D01*
X159649500Y-69571153D01*
X159649500Y-69728846D01*
X159680261Y-69883489D01*
X159680264Y-69883501D01*
X159740602Y-70029172D01*
X159740609Y-70029185D01*
X159828210Y-70160288D01*
X159828213Y-70160292D01*
X159939707Y-70271786D01*
X159939711Y-70271789D01*
X160070814Y-70359390D01*
X160070827Y-70359397D01*
X160216498Y-70419735D01*
X160216503Y-70419737D01*
X160367569Y-70449786D01*
X160371153Y-70450499D01*
X160371156Y-70450500D01*
X160371158Y-70450500D01*
X160528844Y-70450500D01*
X160528845Y-70450499D01*
X160683497Y-70419737D01*
X160829179Y-70359394D01*
X160960289Y-70271789D01*
X170971789Y-60260289D01*
X171045259Y-60186819D01*
X171072186Y-60172115D01*
X171098005Y-60155523D01*
X171104205Y-60154631D01*
X171106582Y-60153334D01*
X171132940Y-60150500D01*
X171330802Y-60150500D01*
X171354994Y-60152883D01*
X171468692Y-60175500D01*
X171468695Y-60175500D01*
X171631307Y-60175500D01*
X171756986Y-60150500D01*
X171790789Y-60143776D01*
X171941021Y-60081548D01*
X171941023Y-60081547D01*
X172008169Y-60036680D01*
X172076225Y-59991208D01*
X172191208Y-59876225D01*
X172281548Y-59741021D01*
X172283239Y-59736937D01*
X172327078Y-59682533D01*
X172393371Y-59660465D01*
X172461071Y-59677741D01*
X172508684Y-59728877D01*
X172515733Y-59746069D01*
X172533786Y-59801633D01*
X172533788Y-59801639D01*
X172571794Y-59876228D01*
X172598384Y-59928414D01*
X172616006Y-59962997D01*
X172722441Y-60109494D01*
X172722445Y-60109499D01*
X172850500Y-60237554D01*
X172850505Y-60237558D01*
X172922392Y-60289786D01*
X172997006Y-60343996D01*
X173071744Y-60382077D01*
X173158360Y-60426211D01*
X173158363Y-60426212D01*
X173201135Y-60440109D01*
X173330591Y-60482171D01*
X173450038Y-60501089D01*
X173492279Y-60507780D01*
X173555414Y-60537709D01*
X173592345Y-60597021D01*
X173591347Y-60666883D01*
X173552737Y-60725116D01*
X173492279Y-60752726D01*
X173330704Y-60778317D01*
X173218369Y-60814816D01*
X173218369Y-60814817D01*
X173903552Y-61500000D01*
X173897339Y-61500000D01*
X173795606Y-61527259D01*
X173704394Y-61579920D01*
X173629920Y-61654394D01*
X173577259Y-61745606D01*
X173550000Y-61847339D01*
X173550000Y-61853552D01*
X172785051Y-61088603D01*
X172722827Y-61150826D01*
X172722823Y-61150830D01*
X172616434Y-61297265D01*
X172534252Y-61458552D01*
X172534251Y-61458555D01*
X172478317Y-61630706D01*
X172450000Y-61809493D01*
X172450000Y-61990506D01*
X172478317Y-62169293D01*
X172534251Y-62341444D01*
X172534252Y-62341447D01*
X172616434Y-62502734D01*
X172722823Y-62649169D01*
X172785051Y-62711397D01*
X173550000Y-61946448D01*
X173550000Y-61952661D01*
X173577259Y-62054394D01*
X173629920Y-62145606D01*
X173704394Y-62220080D01*
X173795606Y-62272741D01*
X173897339Y-62300000D01*
X173903552Y-62300000D01*
X173218368Y-62985182D01*
X173330704Y-63021682D01*
X173492279Y-63047273D01*
X173555413Y-63077202D01*
X173592345Y-63136513D01*
X173591347Y-63206376D01*
X173552738Y-63264609D01*
X173492280Y-63292219D01*
X173330589Y-63317829D01*
X173158363Y-63373787D01*
X173158360Y-63373788D01*
X172997002Y-63456006D01*
X172850505Y-63562441D01*
X172850500Y-63562445D01*
X172722445Y-63690500D01*
X172722441Y-63690505D01*
X172616006Y-63837002D01*
X172533788Y-63998360D01*
X172533787Y-63998363D01*
X172477829Y-64170589D01*
X172449500Y-64349448D01*
X172449500Y-64530551D01*
X172477829Y-64709410D01*
X172533787Y-64881636D01*
X172533788Y-64881639D01*
X172589664Y-64991300D01*
X172604371Y-65020164D01*
X172616006Y-65042997D01*
X172722441Y-65189494D01*
X172722445Y-65189499D01*
X172850500Y-65317554D01*
X172850505Y-65317558D01*
X172922392Y-65369786D01*
X172997006Y-65423996D01*
X173102484Y-65477740D01*
X173158360Y-65506211D01*
X173158363Y-65506212D01*
X173201135Y-65520109D01*
X173330591Y-65562171D01*
X173413429Y-65575291D01*
X173509449Y-65590500D01*
X173509454Y-65590500D01*
X174390551Y-65590500D01*
X174477259Y-65576765D01*
X174569409Y-65562171D01*
X174741639Y-65506211D01*
X174902994Y-65423996D01*
X174933851Y-65401577D01*
X182179500Y-65401577D01*
X182179500Y-65598422D01*
X182210290Y-65792826D01*
X182271117Y-65980029D01*
X182357828Y-66150208D01*
X182360476Y-66155405D01*
X182476172Y-66314646D01*
X182615354Y-66453828D01*
X182774595Y-66569524D01*
X182804327Y-66584673D01*
X182949970Y-66658882D01*
X182949972Y-66658882D01*
X182949975Y-66658884D01*
X183050317Y-66691487D01*
X183137173Y-66719709D01*
X183331578Y-66750500D01*
X183331583Y-66750500D01*
X183528422Y-66750500D01*
X183722826Y-66719709D01*
X183756754Y-66708685D01*
X183910025Y-66658884D01*
X184085405Y-66569524D01*
X184244646Y-66453828D01*
X184383828Y-66314646D01*
X184499524Y-66155405D01*
X184588884Y-65980025D01*
X184588884Y-65980022D01*
X184589795Y-65978236D01*
X184637769Y-65927440D01*
X184705590Y-65910644D01*
X184771725Y-65933181D01*
X184810765Y-65978235D01*
X184900905Y-66155145D01*
X184926319Y-66190125D01*
X184926320Y-66190125D01*
X185570000Y-65546445D01*
X185570000Y-65552661D01*
X185597259Y-65654394D01*
X185649920Y-65745606D01*
X185724394Y-65820080D01*
X185815606Y-65872741D01*
X185917339Y-65900000D01*
X185923553Y-65900000D01*
X185279873Y-66543677D01*
X185279873Y-66543678D01*
X185314858Y-66569096D01*
X185490164Y-66658418D01*
X185677294Y-66719221D01*
X185871618Y-66750000D01*
X186068382Y-66750000D01*
X186262705Y-66719221D01*
X186449835Y-66658418D01*
X186625143Y-66569095D01*
X186660125Y-66543678D01*
X186660126Y-66543678D01*
X186016448Y-65900000D01*
X186022661Y-65900000D01*
X186124394Y-65872741D01*
X186215606Y-65820080D01*
X186290080Y-65745606D01*
X186342741Y-65654394D01*
X186370000Y-65552661D01*
X186370000Y-65546448D01*
X187013678Y-66190126D01*
X187013678Y-66190125D01*
X187039097Y-66155141D01*
X187129234Y-65978236D01*
X187177208Y-65927439D01*
X187245029Y-65910644D01*
X187311164Y-65933181D01*
X187350204Y-65978235D01*
X187351115Y-65980024D01*
X187351116Y-65980025D01*
X187440476Y-66155405D01*
X187556172Y-66314646D01*
X187695354Y-66453828D01*
X187854595Y-66569524D01*
X187884327Y-66584673D01*
X188029970Y-66658882D01*
X188029972Y-66658882D01*
X188029975Y-66658884D01*
X188130317Y-66691487D01*
X188217173Y-66719709D01*
X188411578Y-66750500D01*
X188411583Y-66750500D01*
X188608422Y-66750500D01*
X188802826Y-66719709D01*
X188836754Y-66708685D01*
X188990025Y-66658884D01*
X189165405Y-66569524D01*
X189324646Y-66453828D01*
X189463828Y-66314646D01*
X189579524Y-66155405D01*
X189668884Y-65980025D01*
X189668884Y-65980022D01*
X189669795Y-65978236D01*
X189717769Y-65927440D01*
X189785590Y-65910644D01*
X189851725Y-65933181D01*
X189890765Y-65978235D01*
X189980905Y-66155145D01*
X190006319Y-66190125D01*
X190006320Y-66190125D01*
X190650000Y-65546445D01*
X190650000Y-65552661D01*
X190677259Y-65654394D01*
X190729920Y-65745606D01*
X190804394Y-65820080D01*
X190895606Y-65872741D01*
X190997339Y-65900000D01*
X191003553Y-65900000D01*
X190359873Y-66543677D01*
X190359873Y-66543678D01*
X190394858Y-66569096D01*
X190570164Y-66658418D01*
X190757294Y-66719221D01*
X190951618Y-66750000D01*
X191148382Y-66750000D01*
X191342705Y-66719221D01*
X191529835Y-66658418D01*
X191705143Y-66569095D01*
X191740125Y-66543678D01*
X191740126Y-66543678D01*
X191096448Y-65900000D01*
X191102661Y-65900000D01*
X191204394Y-65872741D01*
X191295606Y-65820080D01*
X191370080Y-65745606D01*
X191422741Y-65654394D01*
X191450000Y-65552661D01*
X191450000Y-65546447D01*
X192093678Y-66190126D01*
X192093678Y-66190125D01*
X192119095Y-66155143D01*
X192208418Y-65979835D01*
X192269221Y-65792705D01*
X192300000Y-65598382D01*
X192300000Y-65401617D01*
X192269221Y-65207294D01*
X192208418Y-65020164D01*
X192119096Y-64844858D01*
X192093678Y-64809873D01*
X192093677Y-64809873D01*
X191450000Y-65453551D01*
X191450000Y-65447339D01*
X191422741Y-65345606D01*
X191370080Y-65254394D01*
X191295606Y-65179920D01*
X191204394Y-65127259D01*
X191102661Y-65100000D01*
X191096447Y-65100000D01*
X191740125Y-64456320D01*
X191740125Y-64456319D01*
X191705145Y-64430905D01*
X191529835Y-64341581D01*
X191342705Y-64280778D01*
X191148382Y-64250000D01*
X190951618Y-64250000D01*
X190757294Y-64280778D01*
X190570161Y-64341582D01*
X190394863Y-64430899D01*
X190394859Y-64430902D01*
X190359873Y-64456320D01*
X190359872Y-64456320D01*
X191003554Y-65100000D01*
X190997339Y-65100000D01*
X190895606Y-65127259D01*
X190804394Y-65179920D01*
X190729920Y-65254394D01*
X190677259Y-65345606D01*
X190650000Y-65447339D01*
X190650000Y-65453552D01*
X190006320Y-64809872D01*
X190006320Y-64809873D01*
X189980902Y-64844859D01*
X189890765Y-65021764D01*
X189842790Y-65072560D01*
X189774969Y-65089355D01*
X189708835Y-65066818D01*
X189669795Y-65021763D01*
X189579525Y-64844596D01*
X189551659Y-64806243D01*
X189463828Y-64685354D01*
X189324646Y-64546172D01*
X189165405Y-64430476D01*
X188990029Y-64341117D01*
X188802826Y-64280290D01*
X188608422Y-64249500D01*
X188608417Y-64249500D01*
X188411583Y-64249500D01*
X188411578Y-64249500D01*
X188217173Y-64280290D01*
X188029970Y-64341117D01*
X187854594Y-64430476D01*
X187763741Y-64496485D01*
X187695354Y-64546172D01*
X187695352Y-64546174D01*
X187695351Y-64546174D01*
X187556174Y-64685351D01*
X187556174Y-64685352D01*
X187556172Y-64685354D01*
X187506485Y-64753741D01*
X187440476Y-64844594D01*
X187350204Y-65021764D01*
X187302229Y-65072560D01*
X187234408Y-65089355D01*
X187168274Y-65066818D01*
X187129234Y-65021764D01*
X187039096Y-64844858D01*
X187013678Y-64809873D01*
X187013677Y-64809873D01*
X186370000Y-65453551D01*
X186370000Y-65447339D01*
X186342741Y-65345606D01*
X186290080Y-65254394D01*
X186215606Y-65179920D01*
X186124394Y-65127259D01*
X186022661Y-65100000D01*
X186016447Y-65100000D01*
X186660125Y-64456320D01*
X186660125Y-64456319D01*
X186625145Y-64430905D01*
X186449835Y-64341581D01*
X186262705Y-64280778D01*
X186068382Y-64250000D01*
X185871618Y-64250000D01*
X185677294Y-64280778D01*
X185490161Y-64341582D01*
X185314863Y-64430899D01*
X185314859Y-64430902D01*
X185279873Y-64456320D01*
X185279872Y-64456320D01*
X185923554Y-65100000D01*
X185917339Y-65100000D01*
X185815606Y-65127259D01*
X185724394Y-65179920D01*
X185649920Y-65254394D01*
X185597259Y-65345606D01*
X185570000Y-65447339D01*
X185570000Y-65453552D01*
X184926320Y-64809872D01*
X184926320Y-64809873D01*
X184900902Y-64844859D01*
X184810765Y-65021764D01*
X184762790Y-65072560D01*
X184694969Y-65089355D01*
X184628835Y-65066818D01*
X184589795Y-65021763D01*
X184499525Y-64844596D01*
X184471659Y-64806243D01*
X184383828Y-64685354D01*
X184244646Y-64546172D01*
X184085405Y-64430476D01*
X183910029Y-64341117D01*
X183722826Y-64280290D01*
X183528422Y-64249500D01*
X183528417Y-64249500D01*
X183331583Y-64249500D01*
X183331578Y-64249500D01*
X183137173Y-64280290D01*
X182949970Y-64341117D01*
X182774594Y-64430476D01*
X182683741Y-64496485D01*
X182615354Y-64546172D01*
X182615352Y-64546174D01*
X182615351Y-64546174D01*
X182476174Y-64685351D01*
X182476174Y-64685352D01*
X182476172Y-64685354D01*
X182426485Y-64753741D01*
X182360476Y-64844594D01*
X182271117Y-65019970D01*
X182210290Y-65207173D01*
X182179500Y-65401577D01*
X174933851Y-65401577D01*
X175049501Y-65317553D01*
X175177553Y-65189501D01*
X175283996Y-65042994D01*
X175366211Y-64881639D01*
X175422171Y-64709409D01*
X175440088Y-64596286D01*
X175450500Y-64530551D01*
X175450500Y-64349448D01*
X175432460Y-64235551D01*
X175422171Y-64170591D01*
X175386007Y-64059288D01*
X175366212Y-63998363D01*
X175366211Y-63998360D01*
X175336331Y-63939718D01*
X175283996Y-63837006D01*
X175218693Y-63747123D01*
X175177558Y-63690505D01*
X175177554Y-63690500D01*
X175049499Y-63562445D01*
X175049494Y-63562441D01*
X174902997Y-63456006D01*
X174902996Y-63456005D01*
X174902994Y-63456004D01*
X174851300Y-63429664D01*
X174741639Y-63373788D01*
X174741636Y-63373787D01*
X174569410Y-63317828D01*
X174407720Y-63292219D01*
X174344585Y-63262289D01*
X174307654Y-63202978D01*
X174308652Y-63133115D01*
X174347262Y-63074883D01*
X174407721Y-63047273D01*
X174569287Y-63021684D01*
X174569289Y-63021683D01*
X174681630Y-62985182D01*
X173996448Y-62300000D01*
X174002661Y-62300000D01*
X174104394Y-62272741D01*
X174195606Y-62220080D01*
X174270080Y-62145606D01*
X174322741Y-62054394D01*
X174350000Y-61952661D01*
X174350000Y-61946448D01*
X175114949Y-62711397D01*
X175177172Y-62649173D01*
X175177176Y-62649169D01*
X175283565Y-62502734D01*
X175365747Y-62341447D01*
X175365748Y-62341444D01*
X175421682Y-62169293D01*
X175450000Y-61990506D01*
X175450000Y-61809493D01*
X175421682Y-61630706D01*
X175365748Y-61458555D01*
X175365747Y-61458552D01*
X175283565Y-61297265D01*
X175177176Y-61150830D01*
X175114949Y-61088603D01*
X174350000Y-61853552D01*
X174350000Y-61847339D01*
X174322741Y-61745606D01*
X174270080Y-61654394D01*
X174195606Y-61579920D01*
X174104394Y-61527259D01*
X174002661Y-61500000D01*
X173996449Y-61500000D01*
X174681629Y-60814817D01*
X174681629Y-60814816D01*
X174569293Y-60778317D01*
X174407720Y-60752726D01*
X174344585Y-60722797D01*
X174307654Y-60663485D01*
X174308652Y-60593623D01*
X174347262Y-60535390D01*
X174407720Y-60507780D01*
X174422270Y-60505475D01*
X174569409Y-60482171D01*
X174741639Y-60426211D01*
X174902994Y-60343996D01*
X175049501Y-60237553D01*
X175177553Y-60109501D01*
X175283996Y-59962994D01*
X175366211Y-59801639D01*
X175422171Y-59629409D01*
X175440088Y-59516286D01*
X175450500Y-59450551D01*
X175450500Y-59269448D01*
X175425120Y-59109211D01*
X175422171Y-59090591D01*
X175383591Y-58971853D01*
X175366212Y-58918363D01*
X175366211Y-58918360D01*
X175336331Y-58859718D01*
X175283996Y-58757006D01*
X175238614Y-58694543D01*
X175177558Y-58610505D01*
X175177554Y-58610500D01*
X175049499Y-58482445D01*
X175049494Y-58482441D01*
X174902997Y-58376006D01*
X174902996Y-58376005D01*
X174902994Y-58376004D01*
X174840766Y-58344297D01*
X174741639Y-58293788D01*
X174741636Y-58293787D01*
X174569410Y-58237829D01*
X174409321Y-58212473D01*
X174346186Y-58182544D01*
X174309255Y-58123232D01*
X174310253Y-58053370D01*
X174348863Y-57995137D01*
X174409321Y-57967527D01*
X174479425Y-57956422D01*
X174569409Y-57942171D01*
X174741639Y-57886211D01*
X174902994Y-57803996D01*
X175049501Y-57697553D01*
X175177553Y-57569501D01*
X175283996Y-57422994D01*
X175366211Y-57261639D01*
X175422171Y-57089409D01*
X175440088Y-56976286D01*
X175450500Y-56910551D01*
X175450500Y-56729448D01*
X175425019Y-56568573D01*
X175422171Y-56550591D01*
X175387409Y-56443604D01*
X175366212Y-56378363D01*
X175366211Y-56378360D01*
X175332642Y-56312478D01*
X175283996Y-56217006D01*
X175238614Y-56154543D01*
X175177558Y-56070505D01*
X175177554Y-56070500D01*
X175049499Y-55942445D01*
X175049494Y-55942441D01*
X174902997Y-55836006D01*
X174902996Y-55836005D01*
X174902994Y-55836004D01*
X174851300Y-55809664D01*
X174741639Y-55753788D01*
X174741636Y-55753787D01*
X174569410Y-55697829D01*
X174409321Y-55672473D01*
X174346186Y-55642544D01*
X174309255Y-55583232D01*
X174310253Y-55513370D01*
X174348863Y-55455137D01*
X174409321Y-55427527D01*
X174479425Y-55416422D01*
X174569409Y-55402171D01*
X174741639Y-55346211D01*
X174902994Y-55263996D01*
X175049501Y-55157553D01*
X175177553Y-55029501D01*
X175283996Y-54882994D01*
X175366211Y-54721639D01*
X175422171Y-54549409D01*
X175436765Y-54457259D01*
X175450500Y-54370551D01*
X175450500Y-54189448D01*
X175434019Y-54085397D01*
X175422171Y-54010591D01*
X175387409Y-53903604D01*
X175366212Y-53838363D01*
X175366211Y-53838360D01*
X175306646Y-53721459D01*
X175283996Y-53677006D01*
X175213383Y-53579815D01*
X175177558Y-53530505D01*
X175177554Y-53530500D01*
X175049499Y-53402445D01*
X175049494Y-53402441D01*
X174902997Y-53296006D01*
X174902996Y-53296005D01*
X174902994Y-53296004D01*
X174851300Y-53269664D01*
X174741639Y-53213788D01*
X174741636Y-53213787D01*
X174569410Y-53157829D01*
X174409321Y-53132473D01*
X174346186Y-53102544D01*
X174309255Y-53043232D01*
X174310253Y-52973370D01*
X174348863Y-52915137D01*
X174409321Y-52887527D01*
X174479425Y-52876422D01*
X174569409Y-52862171D01*
X174741639Y-52806211D01*
X174902994Y-52723996D01*
X175049501Y-52617553D01*
X175177553Y-52489501D01*
X175283996Y-52342994D01*
X175366211Y-52181639D01*
X175422171Y-52009409D01*
X175440088Y-51896286D01*
X175450500Y-51830551D01*
X175450500Y-51649448D01*
X175430918Y-51525819D01*
X175422171Y-51470591D01*
X175366211Y-51298361D01*
X175366211Y-51298360D01*
X175309198Y-51186468D01*
X175283996Y-51137006D01*
X175222513Y-51052381D01*
X175177558Y-50990505D01*
X175177554Y-50990500D01*
X175049499Y-50862445D01*
X175049494Y-50862441D01*
X174902997Y-50756006D01*
X174902996Y-50756005D01*
X174902994Y-50756004D01*
X174851300Y-50729664D01*
X174741639Y-50673788D01*
X174741636Y-50673787D01*
X174569410Y-50617829D01*
X174409321Y-50592473D01*
X174346186Y-50562544D01*
X174309255Y-50503232D01*
X174310253Y-50433370D01*
X174348863Y-50375137D01*
X174409321Y-50347527D01*
X174479425Y-50336422D01*
X174569409Y-50322171D01*
X174741639Y-50266211D01*
X174902994Y-50183996D01*
X175049501Y-50077553D01*
X175177553Y-49949501D01*
X175283996Y-49802994D01*
X175366211Y-49641639D01*
X175422171Y-49469409D01*
X175440088Y-49356286D01*
X175450500Y-49290551D01*
X175450500Y-49109448D01*
X175434019Y-49005397D01*
X175422171Y-48930591D01*
X175366211Y-48758361D01*
X175366211Y-48758360D01*
X175337740Y-48702484D01*
X175283996Y-48597006D01*
X175244162Y-48542179D01*
X175177558Y-48450505D01*
X175177554Y-48450500D01*
X175049499Y-48322445D01*
X175049494Y-48322441D01*
X174902997Y-48216006D01*
X174902996Y-48216005D01*
X174902994Y-48216004D01*
X174851300Y-48189664D01*
X174741639Y-48133788D01*
X174741636Y-48133787D01*
X174569410Y-48077829D01*
X174409321Y-48052473D01*
X174346186Y-48022544D01*
X174309255Y-47963232D01*
X174310253Y-47893370D01*
X174348863Y-47835137D01*
X174409321Y-47807527D01*
X174479425Y-47796422D01*
X174569409Y-47782171D01*
X174741639Y-47726211D01*
X174902994Y-47643996D01*
X175049501Y-47537553D01*
X175177553Y-47409501D01*
X175283996Y-47262994D01*
X175366211Y-47101639D01*
X175422171Y-46929409D01*
X175446719Y-46774420D01*
X175450500Y-46750551D01*
X175450500Y-46569448D01*
X175434019Y-46465397D01*
X175422171Y-46390591D01*
X175366211Y-46218361D01*
X175366211Y-46218360D01*
X175337740Y-46162484D01*
X175283996Y-46057006D01*
X175270396Y-46038287D01*
X175177558Y-45910505D01*
X175177554Y-45910500D01*
X175049499Y-45782445D01*
X175049494Y-45782441D01*
X174902997Y-45676006D01*
X174902996Y-45676005D01*
X174902994Y-45676004D01*
X174851300Y-45649664D01*
X174741639Y-45593788D01*
X174741636Y-45593787D01*
X174569410Y-45537829D01*
X174390551Y-45509500D01*
X174390546Y-45509500D01*
X173509454Y-45509500D01*
X173509449Y-45509500D01*
X173330589Y-45537829D01*
X173158363Y-45593787D01*
X173158360Y-45593788D01*
X172997002Y-45676006D01*
X172850505Y-45782441D01*
X172850500Y-45782445D01*
X172722445Y-45910500D01*
X172722441Y-45910505D01*
X172616006Y-46057002D01*
X172533788Y-46218360D01*
X172533787Y-46218363D01*
X172477829Y-46390589D01*
X172449500Y-46569448D01*
X172449500Y-46750551D01*
X172477829Y-46929410D01*
X172533787Y-47101636D01*
X172533788Y-47101639D01*
X172616006Y-47262997D01*
X172722441Y-47409494D01*
X172722445Y-47409499D01*
X172850500Y-47537554D01*
X172850505Y-47537558D01*
X172947291Y-47607876D01*
X172997006Y-47643996D01*
X173102484Y-47697740D01*
X173158360Y-47726211D01*
X173158363Y-47726212D01*
X173244476Y-47754191D01*
X173330591Y-47782171D01*
X173403639Y-47793740D01*
X173490678Y-47807527D01*
X173553813Y-47837456D01*
X173590744Y-47896768D01*
X173589746Y-47966631D01*
X173551136Y-48024863D01*
X173490678Y-48052473D01*
X173330589Y-48077829D01*
X173158363Y-48133787D01*
X173158360Y-48133788D01*
X172997002Y-48216006D01*
X172850505Y-48322441D01*
X172850500Y-48322445D01*
X172722445Y-48450500D01*
X172722441Y-48450505D01*
X172616006Y-48597002D01*
X172533788Y-48758360D01*
X172533787Y-48758363D01*
X172477829Y-48930589D01*
X172449500Y-49109448D01*
X172449500Y-49290551D01*
X172477829Y-49469410D01*
X172533787Y-49641636D01*
X172533788Y-49641639D01*
X172567706Y-49708205D01*
X172598384Y-49768414D01*
X172616006Y-49802997D01*
X172722441Y-49949494D01*
X172722445Y-49949499D01*
X172850500Y-50077554D01*
X172850505Y-50077558D01*
X172978287Y-50170396D01*
X172997006Y-50183996D01*
X173102484Y-50237740D01*
X173158360Y-50266211D01*
X173158363Y-50266212D01*
X173201135Y-50280109D01*
X173330591Y-50322171D01*
X173403639Y-50333740D01*
X173490678Y-50347527D01*
X173553813Y-50377456D01*
X173590744Y-50436768D01*
X173589746Y-50506631D01*
X173551136Y-50564863D01*
X173490678Y-50592473D01*
X173330589Y-50617829D01*
X173158363Y-50673787D01*
X173158360Y-50673788D01*
X172997002Y-50756006D01*
X172850505Y-50862441D01*
X172850500Y-50862445D01*
X172722445Y-50990500D01*
X172722441Y-50990505D01*
X172616006Y-51137002D01*
X172533788Y-51298360D01*
X172533787Y-51298363D01*
X172477829Y-51470589D01*
X172449500Y-51649448D01*
X172449500Y-51830551D01*
X172477829Y-52009410D01*
X172533787Y-52181636D01*
X172533788Y-52181639D01*
X172589664Y-52291300D01*
X172598384Y-52308414D01*
X172616006Y-52342997D01*
X172722441Y-52489494D01*
X172722445Y-52489499D01*
X172850500Y-52617554D01*
X172850505Y-52617558D01*
X172922392Y-52669786D01*
X172997006Y-52723996D01*
X173071744Y-52762077D01*
X173158360Y-52806211D01*
X173158363Y-52806212D01*
X173201135Y-52820109D01*
X173330591Y-52862171D01*
X173403639Y-52873740D01*
X173490678Y-52887527D01*
X173553813Y-52917456D01*
X173590744Y-52976768D01*
X173589746Y-53046631D01*
X173551136Y-53104863D01*
X173490678Y-53132473D01*
X173330589Y-53157829D01*
X173158363Y-53213787D01*
X173158360Y-53213788D01*
X172997002Y-53296006D01*
X172850506Y-53402440D01*
X172740970Y-53511976D01*
X172679647Y-53545460D01*
X172629098Y-53545911D01*
X172521458Y-53524500D01*
X172521455Y-53524500D01*
X172378545Y-53524500D01*
X172378543Y-53524500D01*
X172238385Y-53552379D01*
X172238379Y-53552381D01*
X172147413Y-53590061D01*
X172099960Y-53599500D01*
X171770807Y-53599500D01*
X171741366Y-53590855D01*
X171711380Y-53584332D01*
X171706364Y-53580577D01*
X171703768Y-53579815D01*
X171683131Y-53563185D01*
X171557486Y-53437540D01*
X171530609Y-53397314D01*
X171492932Y-53306353D01*
X171492925Y-53306340D01*
X171413532Y-53187521D01*
X171413529Y-53187517D01*
X171312482Y-53086470D01*
X171312478Y-53086467D01*
X171193659Y-53007074D01*
X171193650Y-53007069D01*
X171061620Y-52952381D01*
X171061614Y-52952379D01*
X170921457Y-52924500D01*
X170921455Y-52924500D01*
X170778545Y-52924500D01*
X170778543Y-52924500D01*
X170638385Y-52952379D01*
X170638379Y-52952381D01*
X170506349Y-53007069D01*
X170506340Y-53007074D01*
X170387521Y-53086467D01*
X170387517Y-53086470D01*
X170286470Y-53187517D01*
X170286467Y-53187521D01*
X170207074Y-53306340D01*
X170207069Y-53306349D01*
X170152381Y-53438379D01*
X170152379Y-53438385D01*
X170124500Y-53578542D01*
X170124500Y-53721459D01*
X170138711Y-53792903D01*
X170132484Y-53862495D01*
X170089621Y-53917672D01*
X170023731Y-53940916D01*
X169992903Y-53938711D01*
X169921459Y-53924500D01*
X169921455Y-53924500D01*
X169778545Y-53924500D01*
X169778543Y-53924500D01*
X169638385Y-53952379D01*
X169638379Y-53952381D01*
X169506349Y-54007069D01*
X169506340Y-54007074D01*
X169387521Y-54086467D01*
X169387517Y-54086470D01*
X169286470Y-54187517D01*
X169286467Y-54187521D01*
X169207074Y-54306340D01*
X169207069Y-54306349D01*
X169152381Y-54438379D01*
X169152379Y-54438385D01*
X169124500Y-54578542D01*
X169124500Y-54610218D01*
X169104815Y-54677257D01*
X169052011Y-54723012D01*
X168982853Y-54732956D01*
X168919297Y-54703931D01*
X168912819Y-54697899D01*
X163686819Y-49471899D01*
X163653334Y-49410576D01*
X163650500Y-49384218D01*
X163650500Y-44351456D01*
X163612052Y-44158170D01*
X163612051Y-44158169D01*
X163612051Y-44158165D01*
X163612049Y-44158160D01*
X163536635Y-43976092D01*
X163536628Y-43976079D01*
X163427139Y-43812218D01*
X163427136Y-43812214D01*
X163287785Y-43672863D01*
X163287781Y-43672860D01*
X163123920Y-43563371D01*
X163123907Y-43563364D01*
X162941839Y-43487950D01*
X162941829Y-43487947D01*
X162748543Y-43449500D01*
X162748541Y-43449500D01*
X155211459Y-43449500D01*
X155211454Y-43449500D01*
X155179391Y-43455876D01*
X155179392Y-43455877D01*
X155018170Y-43487946D01*
X155018164Y-43487948D01*
X154836088Y-43563366D01*
X154836079Y-43563371D01*
X154672219Y-43672859D01*
X154672215Y-43672862D01*
X153021897Y-45323181D01*
X152960574Y-45356666D01*
X152934216Y-45359500D01*
X152152129Y-45359500D01*
X152152123Y-45359501D01*
X152092516Y-45365908D01*
X151957671Y-45416202D01*
X151957664Y-45416206D01*
X151842455Y-45502452D01*
X151842452Y-45502455D01*
X151756206Y-45617664D01*
X151756202Y-45617671D01*
X151705908Y-45752517D01*
X151699501Y-45812116D01*
X151699500Y-45812135D01*
X149500500Y-45812135D01*
X149500500Y-42974500D01*
X149520185Y-42907461D01*
X149572989Y-42861706D01*
X149624500Y-42850500D01*
X198225500Y-42850500D01*
X198292539Y-42870185D01*
G37*
%TD.AperFunction*%
%TD*%
M02*
