%TF.GenerationSoftware,KiCad,Pcbnew,9.0.7*%
%TF.CreationDate,2026-02-24T20:15:18+00:00*%
%TF.ProjectId,AD5M,4144354d-2e6b-4696-9361-645f70636258,rev?*%
%TF.SameCoordinates,Original*%
%TF.FileFunction,Soldermask,Bot*%
%TF.FilePolarity,Negative*%
%FSLAX46Y46*%
G04 Gerber Fmt 4.6, Leading zero omitted, Abs format (unit mm)*
G04 Created by KiCad (PCBNEW 9.0.7) date 2026-02-24 20:15:18*
%MOMM*%
%LPD*%
G01*
G04 APERTURE LIST*
G04 Aperture macros list*
%AMRoundRect*
0 Rectangle with rounded corners*
0 $1 Rounding radius*
0 $2 $3 $4 $5 $6 $7 $8 $9 X,Y pos of 4 corners*
0 Add a 4 corners polygon primitive as box body*
4,1,4,$2,$3,$4,$5,$6,$7,$8,$9,$2,$3,0*
0 Add four circle primitives for the rounded corners*
1,1,$1+$1,$2,$3*
1,1,$1+$1,$4,$5*
1,1,$1+$1,$6,$7*
1,1,$1+$1,$8,$9*
0 Add four rect primitives between the rounded corners*
20,1,$1+$1,$2,$3,$4,$5,0*
20,1,$1+$1,$4,$5,$6,$7,0*
20,1,$1+$1,$6,$7,$8,$9,0*
20,1,$1+$1,$8,$9,$2,$3,0*%
G04 Aperture macros list end*
%ADD10R,1.700000X1.700000*%
%ADD11C,1.700000*%
%ADD12C,1.500000*%
%ADD13RoundRect,0.250000X0.600000X0.750000X-0.600000X0.750000X-0.600000X-0.750000X0.600000X-0.750000X0*%
%ADD14O,1.700000X2.000000*%
%ADD15O,2.000000X1.300000*%
G04 APERTURE END LIST*
D10*
%TO.C,J3*%
X160430000Y-72350000D03*
D11*
X162970000Y-72350000D03*
X165510000Y-72350000D03*
X168050000Y-72350000D03*
X170590000Y-72350000D03*
%TD*%
D12*
%TO.C,U6*%
X183430000Y-65500000D03*
X185970000Y-65500000D03*
X188510000Y-65500000D03*
X191050000Y-65500000D03*
%TD*%
%TO.C,U5*%
X190990000Y-73950000D03*
X188450000Y-73950000D03*
X185910000Y-73950000D03*
X183370000Y-73950000D03*
%TD*%
D13*
%TO.C,J1*%
X155200000Y-93675000D03*
D14*
X152700000Y-93675000D03*
%TD*%
D10*
%TO.C,J2*%
X153050000Y-46710000D03*
D11*
X153050000Y-49250000D03*
X153050000Y-51790000D03*
X153050000Y-54330000D03*
X153050000Y-56870000D03*
X153050000Y-59410000D03*
X153050000Y-61950000D03*
X153050000Y-64490000D03*
X153050000Y-67030000D03*
X153050000Y-69570000D03*
X153050000Y-72110000D03*
%TD*%
D15*
%TO.C,U2*%
X158750000Y-46660000D03*
X158750000Y-49200000D03*
X158750000Y-51740000D03*
X158750000Y-54280000D03*
X158750000Y-56820000D03*
X158750000Y-59360000D03*
X158750000Y-61900000D03*
X158750000Y-64440000D03*
X173950000Y-64440000D03*
X173950000Y-61900000D03*
X173950000Y-59360000D03*
X173950000Y-56820000D03*
X173950000Y-54280000D03*
X173950000Y-51740000D03*
X173950000Y-49200000D03*
X173950000Y-46660000D03*
%TD*%
M02*
